<?xml version="1.0" encoding="UTF-8" standalone="no"?><!-- Generator: Gravit.io --><svg xmlns="http://www.w3.org/2000/svg" xmlns:xlink="http://www.w3.org/1999/xlink" style="isolation:isolate" viewBox="-1 -1 122 140.564" width="122pt" height="140.564pt"><defs><clipPath id="_clipPath_QFqkUfIxPmvDZQBDxRDI18WMrkJoLSou"><rect x="-1" y="-1" width="122" height="140.564"/></clipPath></defs><g clip-path="url(#_clipPath_QFqkUfIxPmvDZQBDxRDI18WMrkJoLSou)"><mask id="_mask_mUcSybof2XOoAusxVVm6IPKLz9VzAZQt"><path d=" M 40 127.017 L 40 103.923 L 60 115.47 L 60 138.564 L 40 127.017 Z " fill="white" stroke="none"/></mask><path d=" M 40 127.017 L 40 103.923 L 60 115.47 L 60 138.564 L 40 127.017 Z " fill="rgb(255,255,255)"/><path d=" M 40 127.017 L 40 103.923 L 60 115.47 L 60 138.564 L 40 127.017 Z " fill="rgb(255,255,255)" mask="url(#_mask_mUcSybof2XOoAusxVVm6IPKLz9VzAZQt)" vector-effect="non-scaling-stroke" stroke-width="2" stroke="rgb(0,0,0)" stroke-linejoin="round" stroke-linecap="round" stroke-miterlimit="3"/><mask id="_mask_HWC5cPfOl5KiYixTp8ndLZk0StxEe2pH"><path d=" M 40 103.923 L 40 80.829 L 60 92.376 L 60 115.47 L 40 103.923 Z " fill="white" stroke="none"/></mask><path d=" M 40 103.923 L 40 80.829 L 60 92.376 L 60 115.47 L 40 103.923 Z " fill="rgb(255,255,255)"/><path d=" M 40 103.923 L 40 80.829 L 60 92.376 L 60 115.47 L 40 103.923 Z " fill="rgb(255,255,255)" mask="url(#_mask_HWC5cPfOl5KiYixTp8ndLZk0StxEe2pH)" vector-effect="non-scaling-stroke" stroke-width="2" stroke="rgb(0,0,0)" stroke-linejoin="round" stroke-linecap="round" stroke-miterlimit="3"/><mask id="_mask_FW1ILfSTS4auOMn7VhnxFjPcarmXXXkW"><path d=" M 40 80.829 L 40 57.735 L 60 69.282 L 60 92.376 L 40 80.829 Z " fill="white" stroke="none"/></mask><path d=" M 40 80.829 L 40 57.735 L 60 69.282 L 60 92.376 L 40 80.829 Z " fill="rgb(255,255,255)"/><path d=" M 40 80.829 L 40 57.735 L 60 69.282 L 60 92.376 L 40 80.829 Z " fill="rgb(255,255,255)" mask="url(#_mask_FW1ILfSTS4auOMn7VhnxFjPcarmXXXkW)" vector-effect="non-scaling-stroke" stroke-width="2" stroke="rgb(0,0,0)" stroke-linejoin="round" stroke-linecap="round" stroke-miterlimit="3"/><mask id="_mask_Q1Jql7163JP5MQ4LZNGIYAidcIX1jtgq"><path d=" M 80 80.829 L 80 57.735 L 60 69.282 L 60 92.376 L 80 80.829 Z " fill="white" stroke="none"/></mask><path d=" M 80 80.829 L 80 57.735 L 60 69.282 L 60 92.376 L 80 80.829 Z " fill="rgb(255,255,255)"/><path d=" M 80 80.829 L 80 57.735 L 60 69.282 L 60 92.376 L 80 80.829 Z " fill="rgb(255,255,255)" mask="url(#_mask_Q1Jql7163JP5MQ4LZNGIYAidcIX1jtgq)" vector-effect="non-scaling-stroke" stroke-width="2" stroke="rgb(0,0,0)" stroke-linejoin="round" stroke-linecap="round" stroke-miterlimit="3"/><mask id="_mask_zQpwN47tgniuGDlTdWjadcoRcfpmWK62"><path d=" M 60 46.188 L 80 57.735 L 60 69.282 L 40 57.735 L 60 46.188 Z " fill="white" stroke="none"/></mask><path d=" M 60 46.188 L 80 57.735 L 60 69.282 L 40 57.735 L 60 46.188 Z " fill="rgb(255,255,255)"/><path d=" M 60 46.188 L 80 57.735 L 60 69.282 L 40 57.735 L 60 46.188 Z " fill="rgb(255,255,255)" mask="url(#_mask_zQpwN47tgniuGDlTdWjadcoRcfpmWK62)" vector-effect="non-scaling-stroke" stroke-width="2" stroke="rgb(0,0,0)" stroke-linejoin="round" stroke-linecap="round" stroke-miterlimit="3"/><mask id="_mask_erLAOxCzR7E7OaAYoYrS1uwfnY92EQz8"><path d=" M 80 34.641 L 100 46.188 L 80 57.735 L 60 46.188 L 80 34.641 Z " fill="white" stroke="none"/></mask><path d=" M 80 34.641 L 100 46.188 L 80 57.735 L 60 46.188 L 80 34.641 Z " fill="rgb(255,255,255)"/><path d=" M 80 34.641 L 100 46.188 L 80 57.735 L 60 46.188 L 80 34.641 Z " fill="rgb(255,255,255)" mask="url(#_mask_erLAOxCzR7E7OaAYoYrS1uwfnY92EQz8)" vector-effect="non-scaling-stroke" stroke-width="2" stroke="rgb(0,0,0)" stroke-linejoin="round" stroke-linecap="round" stroke-miterlimit="3"/><mask id="_mask_eI5zjXyreMlNx8g8pA6oUjWmDHScMpLS"><path d=" M 100 23.094 L 120 34.641 L 100 46.188 L 80 34.641 L 100 23.094 Z " fill="white" stroke="none"/></mask><path d=" M 100 23.094 L 120 34.641 L 100 46.188 L 80 34.641 L 100 23.094 Z " fill="rgb(209,209,209)"/><path d=" M 100 23.094 L 120 34.641 L 100 46.188 L 80 34.641 L 100 23.094 Z " fill="rgb(209,209,209)" mask="url(#_mask_eI5zjXyreMlNx8g8pA6oUjWmDHScMpLS)" vector-effect="non-scaling-stroke" stroke-width="2" stroke="rgb(0,0,0)" stroke-linejoin="round" stroke-linecap="round" stroke-miterlimit="3"/><mask id="_mask_F6XrlWdR2bSHCcEpNikgcK8F3mDMfVTj"><path d=" M 40 34.641 L 60 46.188 L 40 57.735 L 20 46.188 L 40 34.641 Z " fill="white" stroke="none"/></mask><path d=" M 40 34.641 L 60 46.188 L 40 57.735 L 20 46.188 L 40 34.641 Z " fill="rgb(255,255,255)"/><path d=" M 40 34.641 L 60 46.188 L 40 57.735 L 20 46.188 L 40 34.641 Z " fill="rgb(255,255,255)" mask="url(#_mask_F6XrlWdR2bSHCcEpNikgcK8F3mDMfVTj)" vector-effect="non-scaling-stroke" stroke-width="2" stroke="rgb(0,0,0)" stroke-linejoin="round" stroke-linecap="round" stroke-miterlimit="3"/><mask id="_mask_djOwmEZyWIlLDcQ9RYqpV8vUmN46wnoA"><path d=" M 60 23.094 L 80 34.641 L 60 46.188 L 40 34.641 L 60 23.094 Z " fill="white" stroke="none"/></mask><path d=" M 60 23.094 L 80 34.641 L 60 46.188 L 40 34.641 L 60 23.094 Z " fill="rgb(255,255,255)"/><path d=" M 60 23.094 L 80 34.641 L 60 46.188 L 40 34.641 L 60 23.094 Z " fill="rgb(255,255,255)" mask="url(#_mask_djOwmEZyWIlLDcQ9RYqpV8vUmN46wnoA)" vector-effect="non-scaling-stroke" stroke-width="2" stroke="rgb(0,0,0)" stroke-linejoin="round" stroke-linecap="round" stroke-miterlimit="3"/><mask id="_mask_VFRco0RribR1vu5w2coRLgvyl5TtimAP"><path d=" M 80 11.547 L 100 23.094 L 80 34.641 L 60 23.094 L 80 11.547 Z " fill="white" stroke="none"/></mask><path d=" M 80 11.547 L 100 23.094 L 80 34.641 L 60 23.094 L 80 11.547 Z " fill="rgb(209,209,209)"/><path d=" M 80 11.547 L 100 23.094 L 80 34.641 L 60 23.094 L 80 11.547 Z " fill="rgb(209,209,209)" mask="url(#_mask_VFRco0RribR1vu5w2coRLgvyl5TtimAP)" vector-effect="non-scaling-stroke" stroke-width="2" stroke="rgb(0,0,0)" stroke-linejoin="round" stroke-linecap="round" stroke-miterlimit="3"/><mask id="_mask_CwTzYiBpJhyWCGHhZcE4GafZxGHUA2gX"><path d=" M 20 23.094 L 40 34.641 L 20 46.188 L 0 34.641 L 20 23.094 Z " fill="white" stroke="none"/></mask><path d=" M 20 23.094 L 40 34.641 L 20 46.188 L 0 34.641 L 20 23.094 Z " fill="rgb(255,255,255)"/><path d=" M 20 23.094 L 40 34.641 L 20 46.188 L 0 34.641 L 20 23.094 Z " fill="rgb(255,255,255)" mask="url(#_mask_CwTzYiBpJhyWCGHhZcE4GafZxGHUA2gX)" vector-effect="non-scaling-stroke" stroke-width="2" stroke="rgb(0,0,0)" stroke-linejoin="round" stroke-linecap="round" stroke-miterlimit="3"/><mask id="_mask_n7kDXWIav0fawZUmlKTudoB0W4wmFcAJ"><path d=" M 40 11.547 L 60 23.094 L 40 34.641 L 20 23.094 L 40 11.547 Z " fill="white" stroke="none"/></mask><path d=" M 40 11.547 L 60 23.094 L 40 34.641 L 20 23.094 L 40 11.547 Z " fill="rgb(255,255,255)"/><path d=" M 40 11.547 L 60 23.094 L 40 34.641 L 20 23.094 L 40 11.547 Z " fill="rgb(255,255,255)" mask="url(#_mask_n7kDXWIav0fawZUmlKTudoB0W4wmFcAJ)" vector-effect="non-scaling-stroke" stroke-width="2" stroke="rgb(0,0,0)" stroke-linejoin="round" stroke-linecap="round" stroke-miterlimit="3"/><mask id="_mask_y37XgrkRORRId3labchkYo2aZfJZab8J"><path d=" M 60 0 L 80 11.547 L 60 23.094 L 40 11.547 L 60 0 Z " fill="white" stroke="none"/></mask><path d=" M 60 0 L 80 11.547 L 60 23.094 L 40 11.547 L 60 0 Z " fill="rgb(209,209,209)"/><path d=" M 60 0 L 80 11.547 L 60 23.094 L 40 11.547 L 60 0 Z " fill="rgb(209,209,209)" mask="url(#_mask_y37XgrkRORRId3labchkYo2aZfJZab8J)" vector-effect="non-scaling-stroke" stroke-width="2" stroke="rgb(0,0,0)" stroke-linejoin="round" stroke-linecap="round" stroke-miterlimit="3"/><mask id="_mask_86C0lRr4a4Bt3aU45fxiVl9TapcJYGA9"><path d=" M 100 69.282 L 100 46.188 L 80 57.735 L 80 80.829 L 100 69.282 Z " fill="white" stroke="none"/></mask><path d=" M 100 69.282 L 100 46.188 L 80 57.735 L 80 80.829 L 100 69.282 Z " fill="rgb(255,255,255)"/><path d=" M 100 69.282 L 100 46.188 L 80 57.735 L 80 80.829 L 100 69.282 Z " fill="rgb(255,255,255)" mask="url(#_mask_86C0lRr4a4Bt3aU45fxiVl9TapcJYGA9)" vector-effect="non-scaling-stroke" stroke-width="2" stroke="rgb(0,0,0)" stroke-linejoin="round" stroke-linecap="round" stroke-miterlimit="3"/><mask id="_mask_lKOAXYrOsKdTqLgPCOv4AY8Wz2XpDsRV"><path d=" M 120 57.735 L 120 34.641 L 100 46.188 L 100 69.282 L 120 57.735 Z " fill="white" stroke="none"/></mask><path d=" M 120 57.735 L 120 34.641 L 100 46.188 L 100 69.282 L 120 57.735 Z " fill="rgb(209,209,209)"/><path d=" M 120 57.735 L 120 34.641 L 100 46.188 L 100 69.282 L 120 57.735 Z " fill="rgb(209,209,209)" mask="url(#_mask_lKOAXYrOsKdTqLgPCOv4AY8Wz2XpDsRV)" vector-effect="non-scaling-stroke" stroke-width="2" stroke="rgb(0,0,0)" stroke-linejoin="round" stroke-linecap="round" stroke-miterlimit="3"/><mask id="_mask_sEles13XlO27oBKbK86bBUaNpUjPm15P"><path d=" M 80 103.923 L 80 80.829 L 60 92.376 L 60 115.47 L 80 103.923 Z " fill="white" stroke="none"/></mask><path d=" M 80 103.923 L 80 80.829 L 60 92.376 L 60 115.47 L 80 103.923 Z " fill="rgb(255,255,255)"/><path d=" M 80 103.923 L 80 80.829 L 60 92.376 L 60 115.47 L 80 103.923 Z " fill="rgb(255,255,255)" mask="url(#_mask_sEles13XlO27oBKbK86bBUaNpUjPm15P)" vector-effect="non-scaling-stroke" stroke-width="2" stroke="rgb(0,0,0)" stroke-linejoin="round" stroke-linecap="round" stroke-miterlimit="3"/><mask id="_mask_JQwi2JPkNATEeE6ixkqC6qc4kPnA258V"><path d=" M 100 92.376 L 100 69.282 L 80 80.829 L 80 103.923 L 100 92.376 Z " fill="white" stroke="none"/></mask><path d=" M 100 92.376 L 100 69.282 L 80 80.829 L 80 103.923 L 100 92.376 Z " fill="rgb(255,255,255)"/><path d=" M 100 92.376 L 100 69.282 L 80 80.829 L 80 103.923 L 100 92.376 Z " fill="rgb(255,255,255)" mask="url(#_mask_JQwi2JPkNATEeE6ixkqC6qc4kPnA258V)" vector-effect="non-scaling-stroke" stroke-width="2" stroke="rgb(0,0,0)" stroke-linejoin="round" stroke-linecap="round" stroke-miterlimit="3"/><mask id="_mask_tmaFIGgceIx9AmO4qh6n9kIGwDNxTJeT"><path d=" M 120 80.829 L 120 57.735 L 100 69.282 L 100 92.376 L 120 80.829 Z " fill="white" stroke="none"/></mask><path d=" M 120 80.829 L 120 57.735 L 100 69.282 L 100 92.376 L 120 80.829 Z " fill="rgb(209,209,209)"/><path d=" M 120 80.829 L 120 57.735 L 100 69.282 L 100 92.376 L 120 80.829 Z " fill="rgb(209,209,209)" mask="url(#_mask_tmaFIGgceIx9AmO4qh6n9kIGwDNxTJeT)" vector-effect="non-scaling-stroke" stroke-width="2" stroke="rgb(0,0,0)" stroke-linejoin="round" stroke-linecap="round" stroke-miterlimit="3"/><mask id="_mask_ET2WQoRigfLXoaPLiJhhGdIZCiXRK8VV"><path d=" M 80 127.017 L 80 103.923 L 60 115.47 L 60 138.564 L 80 127.017 Z " fill="white" stroke="none"/></mask><path d=" M 80 127.017 L 80 103.923 L 60 115.47 L 60 138.564 L 80 127.017 Z " fill="rgb(255,255,255)"/><path d=" M 80 127.017 L 80 103.923 L 60 115.47 L 60 138.564 L 80 127.017 Z " fill="rgb(255,255,255)" mask="url(#_mask_ET2WQoRigfLXoaPLiJhhGdIZCiXRK8VV)" vector-effect="non-scaling-stroke" stroke-width="2" stroke="rgb(0,0,0)" stroke-linejoin="round" stroke-linecap="round" stroke-miterlimit="3"/><mask id="_mask_fWbSygvKKewteOfXfhUmt6U8CG0rLMzR"><path d=" M 100 115.47 L 100 92.376 L 80 103.923 L 80 127.017 L 100 115.47 Z " fill="white" stroke="none"/></mask><path d=" M 100 115.47 L 100 92.376 L 80 103.923 L 80 127.017 L 100 115.47 Z " fill="rgb(255,255,255)"/><path d=" M 100 115.47 L 100 92.376 L 80 103.923 L 80 127.017 L 100 115.47 Z " fill="rgb(255,255,255)" mask="url(#_mask_fWbSygvKKewteOfXfhUmt6U8CG0rLMzR)" vector-effect="non-scaling-stroke" stroke-width="2" stroke="rgb(0,0,0)" stroke-linejoin="round" stroke-linecap="round" stroke-miterlimit="3"/><mask id="_mask_rDB8M7PTKLw8t4uB9RYw9tcDXy7YssDa"><path d=" M 120 103.923 L 120 80.829 L 100 92.376 L 100 115.47 L 120 103.923 Z " fill="white" stroke="none"/></mask><path d=" M 120 103.923 L 120 80.829 L 100 92.376 L 100 115.47 L 120 103.923 Z " fill="rgb(209,209,209)"/><path d=" M 120 103.923 L 120 80.829 L 100 92.376 L 100 115.47 L 120 103.923 Z " fill="rgb(209,209,209)" mask="url(#_mask_rDB8M7PTKLw8t4uB9RYw9tcDXy7YssDa)" vector-effect="non-scaling-stroke" stroke-width="2" stroke="rgb(0,0,0)" stroke-linejoin="round" stroke-linecap="round" stroke-miterlimit="3"/><mask id="_mask_4WJnveyZ9DY910efbQrS4qlb51zL3Rok"><path d=" M 20 115.47 L 20 92.376 L 40 103.923 L 40 127.017 L 20 115.47 Z " fill="white" stroke="none"/></mask><path d=" M 20 115.47 L 20 92.376 L 40 103.923 L 40 127.017 L 20 115.47 Z " fill="rgb(255,255,255)"/><path d=" M 20 115.47 L 20 92.376 L 40 103.923 L 40 127.017 L 20 115.47 Z " fill="rgb(255,255,255)" mask="url(#_mask_4WJnveyZ9DY910efbQrS4qlb51zL3Rok)" vector-effect="non-scaling-stroke" stroke-width="2" stroke="rgb(0,0,0)" stroke-linejoin="round" stroke-linecap="round" stroke-miterlimit="3"/><mask id="_mask_DsiYAgdTSl19lAARSbBehUSXJjb9L9Tj"><path d=" M 20 92.376 L 20 69.282 L 40 80.829 L 40 103.923 L 20 92.376 Z " fill="white" stroke="none"/></mask><path d=" M 20 92.376 L 20 69.282 L 40 80.829 L 40 103.923 L 20 92.376 Z " fill="rgb(255,255,255)"/><path d=" M 20 92.376 L 20 69.282 L 40 80.829 L 40 103.923 L 20 92.376 Z " fill="rgb(255,255,255)" mask="url(#_mask_DsiYAgdTSl19lAARSbBehUSXJjb9L9Tj)" vector-effect="non-scaling-stroke" stroke-width="2" stroke="rgb(0,0,0)" stroke-linejoin="round" stroke-linecap="round" stroke-miterlimit="3"/><mask id="_mask_M9OderdhvwGFeEE8eU6LjihuULPqXGQd"><path d=" M 20 69.282 L 20 46.188 L 40 57.735 L 40 80.829 L 20 69.282 Z " fill="white" stroke="none"/></mask><path d=" M 20 69.282 L 20 46.188 L 40 57.735 L 40 80.829 L 20 69.282 Z " fill="rgb(255,255,255)"/><path d=" M 20 69.282 L 20 46.188 L 40 57.735 L 40 80.829 L 20 69.282 Z " fill="rgb(255,255,255)" mask="url(#_mask_M9OderdhvwGFeEE8eU6LjihuULPqXGQd)" vector-effect="non-scaling-stroke" stroke-width="2" stroke="rgb(0,0,0)" stroke-linejoin="round" stroke-linecap="round" stroke-miterlimit="3"/><mask id="_mask_wxhw6Me1N8pD1p3XjKwjO5xCdyodxRFs"><path d=" M 0 103.923 L 0 80.829 L 20 92.376 L 20 115.47 L 0 103.923 Z " fill="white" stroke="none"/></mask><path d=" M 0 103.923 L 0 80.829 L 20 92.376 L 20 115.47 L 0 103.923 Z " fill="rgb(255,255,255)"/><path d=" M 0 103.923 L 0 80.829 L 20 92.376 L 20 115.47 L 0 103.923 Z " fill="rgb(255,255,255)" mask="url(#_mask_wxhw6Me1N8pD1p3XjKwjO5xCdyodxRFs)" vector-effect="non-scaling-stroke" stroke-width="2" stroke="rgb(0,0,0)" stroke-linejoin="round" stroke-linecap="round" stroke-miterlimit="3"/><mask id="_mask_stAb5GOt5hew3bMwMMjAoxxcveEB4XRl"><path d=" M 0 80.829 L 0 57.735 L 20 69.282 L 20 92.376 L 0 80.829 Z " fill="white" stroke="none"/></mask><path d=" M 0 80.829 L 0 57.735 L 20 69.282 L 20 92.376 L 0 80.829 Z " fill="rgb(255,255,255)"/><path d=" M 0 80.829 L 0 57.735 L 20 69.282 L 20 92.376 L 0 80.829 Z " fill="rgb(255,255,255)" mask="url(#_mask_stAb5GOt5hew3bMwMMjAoxxcveEB4XRl)" vector-effect="non-scaling-stroke" stroke-width="2" stroke="rgb(0,0,0)" stroke-linejoin="round" stroke-linecap="round" stroke-miterlimit="3"/><mask id="_mask_qCjJmpPw1wWCxx2pHI6HtskyJEBkboQF"><path d=" M 0 57.735 L 0 34.641 L 20 46.188 L 20 69.282 L 0 57.735 Z " fill="white" stroke="none"/></mask><path d=" M 0 57.735 L 0 34.641 L 20 46.188 L 20 69.282 L 0 57.735 Z " fill="rgb(255,255,255)"/><path d=" M 0 57.735 L 0 34.641 L 20 46.188 L 20 69.282 L 0 57.735 Z " fill="rgb(255,255,255)" mask="url(#_mask_qCjJmpPw1wWCxx2pHI6HtskyJEBkboQF)" vector-effect="non-scaling-stroke" stroke-width="2" stroke="rgb(0,0,0)" stroke-linejoin="round" stroke-linecap="round" stroke-miterlimit="3"/><path d=" M 0 103.923 L 0 34.641 L 60 0 L 120 34.641 L 120 103.923 L 60 138.564 L 0 103.923 Z " fill="none" vector-effect="non-scaling-stroke" stroke-width="2" stroke="rgb(0,0,0)" stroke-linejoin="round" stroke-linecap="round" stroke-miterlimit="3"/><line x1="110" y1="51.962" x2="110" y2="98.15" vector-effect="non-scaling-stroke" stroke-width="5" stroke="rgb(153,0,255)" stroke-linejoin="miter" stroke-linecap="square" stroke-miterlimit="3"/><path d=" M 104.41 94.493 L 110 105.674 L 115.59 94.493 Z " fill="rgb(153,0,255)" stroke="none"/></g></svg>