<?xml version="1.0" encoding="UTF-8" standalone="no"?><!-- Generator: Gravit.io --><svg xmlns="http://www.w3.org/2000/svg" xmlns:xlink="http://www.w3.org/1999/xlink" style="isolation:isolate" viewBox="-1 -1 122 140.564" width="122pt" height="140.564pt"><defs><clipPath id="_clipPath_qI6Rzeq7cDuEM9mcN6xwP53Ml63awRCb"><rect x="-1" y="-1" width="122" height="140.564"/></clipPath></defs><g clip-path="url(#_clipPath_qI6Rzeq7cDuEM9mcN6xwP53Ml63awRCb)"><mask id="_mask_lgPF0UHlI0nbL8ZOtuNiEVQndPgT1Hbt"><path d=" M 40 127.017 L 40 103.923 L 60 115.47 L 60 138.564 L 40 127.017 Z " fill="white" stroke="none"/></mask><path d=" M 40 127.017 L 40 103.923 L 60 115.47 L 60 138.564 L 40 127.017 Z " fill="rgb(255,255,255)"/><path d=" M 40 127.017 L 40 103.923 L 60 115.47 L 60 138.564 L 40 127.017 Z " fill="rgb(255,255,255)" mask="url(#_mask_lgPF0UHlI0nbL8ZOtuNiEVQndPgT1Hbt)" vector-effect="non-scaling-stroke" stroke-width="2" stroke="rgb(0,0,0)" stroke-linejoin="round" stroke-linecap="round" stroke-miterlimit="3"/><mask id="_mask_KlHSNa1cVOG4dZ2v1zwQobjPbG16mEZY"><path d=" M 40 103.923 L 40 80.829 L 60 92.376 L 60 115.47 L 40 103.923 Z " fill="white" stroke="none"/></mask><path d=" M 40 103.923 L 40 80.829 L 60 92.376 L 60 115.47 L 40 103.923 Z " fill="rgb(255,255,255)"/><path d=" M 40 103.923 L 40 80.829 L 60 92.376 L 60 115.47 L 40 103.923 Z " fill="rgb(255,255,255)" mask="url(#_mask_KlHSNa1cVOG4dZ2v1zwQobjPbG16mEZY)" vector-effect="non-scaling-stroke" stroke-width="2" stroke="rgb(0,0,0)" stroke-linejoin="round" stroke-linecap="round" stroke-miterlimit="3"/><mask id="_mask_oprIq6WUxJOtIxNwLrm9rzFKNSQlWquI"><path d=" M 40 80.829 L 40 57.735 L 60 69.282 L 60 92.376 L 40 80.829 Z " fill="white" stroke="none"/></mask><path d=" M 40 80.829 L 40 57.735 L 60 69.282 L 60 92.376 L 40 80.829 Z " fill="rgb(255,255,255)"/><path d=" M 40 80.829 L 40 57.735 L 60 69.282 L 60 92.376 L 40 80.829 Z " fill="rgb(255,255,255)" mask="url(#_mask_oprIq6WUxJOtIxNwLrm9rzFKNSQlWquI)" vector-effect="non-scaling-stroke" stroke-width="2" stroke="rgb(0,0,0)" stroke-linejoin="round" stroke-linecap="round" stroke-miterlimit="3"/><mask id="_mask_OEsz4qRnelZHW5Ei6b0U8Mf0jLkCPglB"><path d=" M 80 80.829 L 80 57.735 L 60 69.282 L 60 92.376 L 80 80.829 Z " fill="white" stroke="none"/></mask><path d=" M 80 80.829 L 80 57.735 L 60 69.282 L 60 92.376 L 80 80.829 Z " fill="rgb(255,255,255)"/><path d=" M 80 80.829 L 80 57.735 L 60 69.282 L 60 92.376 L 80 80.829 Z " fill="rgb(255,255,255)" mask="url(#_mask_OEsz4qRnelZHW5Ei6b0U8Mf0jLkCPglB)" vector-effect="non-scaling-stroke" stroke-width="2" stroke="rgb(0,0,0)" stroke-linejoin="round" stroke-linecap="round" stroke-miterlimit="3"/><mask id="_mask_K3tvQZhIr52UpE4u2L0FL11kh12aAAjB"><path d=" M 60 46.188 L 80 57.735 L 60 69.282 L 40 57.735 L 60 46.188 Z " fill="white" stroke="none"/></mask><path d=" M 60 46.188 L 80 57.735 L 60 69.282 L 40 57.735 L 60 46.188 Z " fill="rgb(255,255,255)"/><path d=" M 60 46.188 L 80 57.735 L 60 69.282 L 40 57.735 L 60 46.188 Z " fill="rgb(255,255,255)" mask="url(#_mask_K3tvQZhIr52UpE4u2L0FL11kh12aAAjB)" vector-effect="non-scaling-stroke" stroke-width="2" stroke="rgb(0,0,0)" stroke-linejoin="round" stroke-linecap="round" stroke-miterlimit="3"/><mask id="_mask_XEIz0S4z8JNvVvJj2EDsonCsWxGzjA3V"><path d=" M 80 34.641 L 100 46.188 L 80 57.735 L 60 46.188 L 80 34.641 Z " fill="white" stroke="none"/></mask><path d=" M 80 34.641 L 100 46.188 L 80 57.735 L 60 46.188 L 80 34.641 Z " fill="rgb(209,209,209)"/><path d=" M 80 34.641 L 100 46.188 L 80 57.735 L 60 46.188 L 80 34.641 Z " fill="rgb(209,209,209)" mask="url(#_mask_XEIz0S4z8JNvVvJj2EDsonCsWxGzjA3V)" vector-effect="non-scaling-stroke" stroke-width="2" stroke="rgb(0,0,0)" stroke-linejoin="round" stroke-linecap="round" stroke-miterlimit="3"/><mask id="_mask_xkUCXoWczZRzwaS2rknmQIyHE1MGqJJq"><path d=" M 100 23.094 L 120 34.641 L 100 46.188 L 80 34.641 L 100 23.094 Z " fill="white" stroke="none"/></mask><path d=" M 100 23.094 L 120 34.641 L 100 46.188 L 80 34.641 L 100 23.094 Z " fill="rgb(209,209,209)"/><path d=" M 100 23.094 L 120 34.641 L 100 46.188 L 80 34.641 L 100 23.094 Z " fill="rgb(209,209,209)" mask="url(#_mask_xkUCXoWczZRzwaS2rknmQIyHE1MGqJJq)" vector-effect="non-scaling-stroke" stroke-width="2" stroke="rgb(0,0,0)" stroke-linejoin="round" stroke-linecap="round" stroke-miterlimit="3"/><mask id="_mask_VB75zxuk43ypHcFTQ0nEd5mSoR9YsVEU"><path d=" M 40 34.641 L 60 46.188 L 40 57.735 L 20 46.188 L 40 34.641 Z " fill="white" stroke="none"/></mask><path d=" M 40 34.641 L 60 46.188 L 40 57.735 L 20 46.188 L 40 34.641 Z " fill="rgb(255,255,255)"/><path d=" M 40 34.641 L 60 46.188 L 40 57.735 L 20 46.188 L 40 34.641 Z " fill="rgb(255,255,255)" mask="url(#_mask_VB75zxuk43ypHcFTQ0nEd5mSoR9YsVEU)" vector-effect="non-scaling-stroke" stroke-width="2" stroke="rgb(0,0,0)" stroke-linejoin="round" stroke-linecap="round" stroke-miterlimit="3"/><mask id="_mask_2sQr3Rdy83QRsags9ysRQfr3Q9kKTbqf"><path d=" M 60 23.094 L 80 34.641 L 60 46.188 L 40 34.641 L 60 23.094 Z " fill="white" stroke="none"/></mask><path d=" M 60 23.094 L 80 34.641 L 60 46.188 L 40 34.641 L 60 23.094 Z " fill="rgb(209,209,209)"/><path d=" M 60 23.094 L 80 34.641 L 60 46.188 L 40 34.641 L 60 23.094 Z " fill="rgb(209,209,209)" mask="url(#_mask_2sQr3Rdy83QRsags9ysRQfr3Q9kKTbqf)" vector-effect="non-scaling-stroke" stroke-width="2" stroke="rgb(0,0,0)" stroke-linejoin="round" stroke-linecap="round" stroke-miterlimit="3"/><mask id="_mask_Rz2hgoos1fSakmeUSZe6mBJcqDTwmeBl"><path d=" M 80 11.547 L 100 23.094 L 80 34.641 L 60 23.094 L 80 11.547 Z " fill="white" stroke="none"/></mask><path d=" M 80 11.547 L 100 23.094 L 80 34.641 L 60 23.094 L 80 11.547 Z " fill="rgb(209,209,209)"/><path d=" M 80 11.547 L 100 23.094 L 80 34.641 L 60 23.094 L 80 11.547 Z " fill="rgb(209,209,209)" mask="url(#_mask_Rz2hgoos1fSakmeUSZe6mBJcqDTwmeBl)" vector-effect="non-scaling-stroke" stroke-width="2" stroke="rgb(0,0,0)" stroke-linejoin="round" stroke-linecap="round" stroke-miterlimit="3"/><mask id="_mask_SfEIBkZvb5gcPB53pgJQMJZWEoFZAVpG"><path d=" M 20 23.094 L 40 34.641 L 20 46.188 L 0 34.641 L 20 23.094 Z " fill="white" stroke="none"/></mask><path d=" M 20 23.094 L 40 34.641 L 20 46.188 L 0 34.641 L 20 23.094 Z " fill="rgb(255,255,255)"/><path d=" M 20 23.094 L 40 34.641 L 20 46.188 L 0 34.641 L 20 23.094 Z " fill="rgb(255,255,255)" mask="url(#_mask_SfEIBkZvb5gcPB53pgJQMJZWEoFZAVpG)" vector-effect="non-scaling-stroke" stroke-width="2" stroke="rgb(0,0,0)" stroke-linejoin="round" stroke-linecap="round" stroke-miterlimit="3"/><mask id="_mask_VXOJyG71X1hpauTsWHeO3NmaBhE8xfha"><path d=" M 40 11.547 L 60 23.094 L 40 34.641 L 20 23.094 L 40 11.547 Z " fill="white" stroke="none"/></mask><path d=" M 40 11.547 L 60 23.094 L 40 34.641 L 20 23.094 L 40 11.547 Z " fill="rgb(209,209,209)"/><path d=" M 40 11.547 L 60 23.094 L 40 34.641 L 20 23.094 L 40 11.547 Z " fill="rgb(209,209,209)" mask="url(#_mask_VXOJyG71X1hpauTsWHeO3NmaBhE8xfha)" vector-effect="non-scaling-stroke" stroke-width="2" stroke="rgb(0,0,0)" stroke-linejoin="round" stroke-linecap="round" stroke-miterlimit="3"/><mask id="_mask_XHcrhBBqOHQ9HYkPfV1vJOwWrbML5upw"><path d=" M 60 0 L 80 11.547 L 60 23.094 L 40 11.547 L 60 0 Z " fill="white" stroke="none"/></mask><path d=" M 60 0 L 80 11.547 L 60 23.094 L 40 11.547 L 60 0 Z " fill="rgb(209,209,209)"/><path d=" M 60 0 L 80 11.547 L 60 23.094 L 40 11.547 L 60 0 Z " fill="rgb(209,209,209)" mask="url(#_mask_XHcrhBBqOHQ9HYkPfV1vJOwWrbML5upw)" vector-effect="non-scaling-stroke" stroke-width="2" stroke="rgb(0,0,0)" stroke-linejoin="round" stroke-linecap="round" stroke-miterlimit="3"/><mask id="_mask_t2TI4Udc6hBYJc0TUjVNH6yPV5iAnPJS"><path d=" M 100 69.282 L 100 46.188 L 80 57.735 L 80 80.829 L 100 69.282 Z " fill="white" stroke="none"/></mask><path d=" M 100 69.282 L 100 46.188 L 80 57.735 L 80 80.829 L 100 69.282 Z " fill="rgb(209,209,209)"/><path d=" M 100 69.282 L 100 46.188 L 80 57.735 L 80 80.829 L 100 69.282 Z " fill="rgb(209,209,209)" mask="url(#_mask_t2TI4Udc6hBYJc0TUjVNH6yPV5iAnPJS)" vector-effect="non-scaling-stroke" stroke-width="2" stroke="rgb(0,0,0)" stroke-linejoin="round" stroke-linecap="round" stroke-miterlimit="3"/><mask id="_mask_ivIO07SimpCXCkmlaAZpB5MEQzQJXiyl"><path d=" M 120 57.735 L 120 34.641 L 100 46.188 L 100 69.282 L 120 57.735 Z " fill="white" stroke="none"/></mask><path d=" M 120 57.735 L 120 34.641 L 100 46.188 L 100 69.282 L 120 57.735 Z " fill="rgb(209,209,209)"/><path d=" M 120 57.735 L 120 34.641 L 100 46.188 L 100 69.282 L 120 57.735 Z " fill="rgb(209,209,209)" mask="url(#_mask_ivIO07SimpCXCkmlaAZpB5MEQzQJXiyl)" vector-effect="non-scaling-stroke" stroke-width="2" stroke="rgb(0,0,0)" stroke-linejoin="round" stroke-linecap="round" stroke-miterlimit="3"/><mask id="_mask_kbSAGM9aNOCbSU3MnkIy3Oz5HCWt6iFw"><path d=" M 80 103.923 L 80 80.829 L 60 92.376 L 60 115.47 L 80 103.923 Z " fill="white" stroke="none"/></mask><path d=" M 80 103.923 L 80 80.829 L 60 92.376 L 60 115.47 L 80 103.923 Z " fill="rgb(255,255,255)"/><path d=" M 80 103.923 L 80 80.829 L 60 92.376 L 60 115.47 L 80 103.923 Z " fill="rgb(255,255,255)" mask="url(#_mask_kbSAGM9aNOCbSU3MnkIy3Oz5HCWt6iFw)" vector-effect="non-scaling-stroke" stroke-width="2" stroke="rgb(0,0,0)" stroke-linejoin="round" stroke-linecap="round" stroke-miterlimit="3"/><mask id="_mask_hhgqqUm0XnCx9wKFnLRgumFPa5B0QZTu"><path d=" M 100 92.376 L 100 69.282 L 80 80.829 L 80 103.923 L 100 92.376 Z " fill="white" stroke="none"/></mask><path d=" M 100 92.376 L 100 69.282 L 80 80.829 L 80 103.923 L 100 92.376 Z " fill="rgb(209,209,209)"/><path d=" M 100 92.376 L 100 69.282 L 80 80.829 L 80 103.923 L 100 92.376 Z " fill="rgb(209,209,209)" mask="url(#_mask_hhgqqUm0XnCx9wKFnLRgumFPa5B0QZTu)" vector-effect="non-scaling-stroke" stroke-width="2" stroke="rgb(0,0,0)" stroke-linejoin="round" stroke-linecap="round" stroke-miterlimit="3"/><mask id="_mask_oYWaEAs2g1VxxcwgC0UyvRwpiGNMkgoJ"><path d=" M 120 80.829 L 120 57.735 L 100 69.282 L 100 92.376 L 120 80.829 Z " fill="white" stroke="none"/></mask><path d=" M 120 80.829 L 120 57.735 L 100 69.282 L 100 92.376 L 120 80.829 Z " fill="rgb(209,209,209)"/><path d=" M 120 80.829 L 120 57.735 L 100 69.282 L 100 92.376 L 120 80.829 Z " fill="rgb(209,209,209)" mask="url(#_mask_oYWaEAs2g1VxxcwgC0UyvRwpiGNMkgoJ)" vector-effect="non-scaling-stroke" stroke-width="2" stroke="rgb(0,0,0)" stroke-linejoin="round" stroke-linecap="round" stroke-miterlimit="3"/><mask id="_mask_i8KPeLhHA01Phud0Gv4HjtZ9uitDjrxA"><path d=" M 80 127.017 L 80 103.923 L 60 115.47 L 60 138.564 L 80 127.017 Z " fill="white" stroke="none"/></mask><path d=" M 80 127.017 L 80 103.923 L 60 115.47 L 60 138.564 L 80 127.017 Z " fill="rgb(255,255,255)"/><path d=" M 80 127.017 L 80 103.923 L 60 115.47 L 60 138.564 L 80 127.017 Z " fill="rgb(255,255,255)" mask="url(#_mask_i8KPeLhHA01Phud0Gv4HjtZ9uitDjrxA)" vector-effect="non-scaling-stroke" stroke-width="2" stroke="rgb(0,0,0)" stroke-linejoin="round" stroke-linecap="round" stroke-miterlimit="3"/><mask id="_mask_XOiSnVOO5mJ7ZCxD4NOhA6KrK4LI3Fn1"><path d=" M 100 115.47 L 100 92.376 L 80 103.923 L 80 127.017 L 100 115.47 Z " fill="white" stroke="none"/></mask><path d=" M 100 115.47 L 100 92.376 L 80 103.923 L 80 127.017 L 100 115.47 Z " fill="rgb(209,209,209)"/><path d=" M 100 115.47 L 100 92.376 L 80 103.923 L 80 127.017 L 100 115.47 Z " fill="rgb(209,209,209)" mask="url(#_mask_XOiSnVOO5mJ7ZCxD4NOhA6KrK4LI3Fn1)" vector-effect="non-scaling-stroke" stroke-width="2" stroke="rgb(0,0,0)" stroke-linejoin="round" stroke-linecap="round" stroke-miterlimit="3"/><mask id="_mask_BOLoTZGyZzjCIxaNfNdL6Bx1l3Sr75Wf"><path d=" M 120 103.923 L 120 80.829 L 100 92.376 L 100 115.47 L 120 103.923 Z " fill="white" stroke="none"/></mask><path d=" M 120 103.923 L 120 80.829 L 100 92.376 L 100 115.47 L 120 103.923 Z " fill="rgb(209,209,209)"/><path d=" M 120 103.923 L 120 80.829 L 100 92.376 L 100 115.47 L 120 103.923 Z " fill="rgb(209,209,209)" mask="url(#_mask_BOLoTZGyZzjCIxaNfNdL6Bx1l3Sr75Wf)" vector-effect="non-scaling-stroke" stroke-width="2" stroke="rgb(0,0,0)" stroke-linejoin="round" stroke-linecap="round" stroke-miterlimit="3"/><mask id="_mask_2j03LtsPQFrYaPkryF6UovNSIfooMArD"><path d=" M 20 115.47 L 20 92.376 L 40 103.923 L 40 127.017 L 20 115.47 Z " fill="white" stroke="none"/></mask><path d=" M 20 115.47 L 20 92.376 L 40 103.923 L 40 127.017 L 20 115.47 Z " fill="rgb(255,255,255)"/><path d=" M 20 115.47 L 20 92.376 L 40 103.923 L 40 127.017 L 20 115.47 Z " fill="rgb(255,255,255)" mask="url(#_mask_2j03LtsPQFrYaPkryF6UovNSIfooMArD)" vector-effect="non-scaling-stroke" stroke-width="2" stroke="rgb(0,0,0)" stroke-linejoin="round" stroke-linecap="round" stroke-miterlimit="3"/><mask id="_mask_wFyGwQoSSbm1WFkaDVtFObPBKC3CD8mA"><path d=" M 20 92.376 L 20 69.282 L 40 80.829 L 40 103.923 L 20 92.376 Z " fill="white" stroke="none"/></mask><path d=" M 20 92.376 L 20 69.282 L 40 80.829 L 40 103.923 L 20 92.376 Z " fill="rgb(255,255,255)"/><path d=" M 20 92.376 L 20 69.282 L 40 80.829 L 40 103.923 L 20 92.376 Z " fill="rgb(255,255,255)" mask="url(#_mask_wFyGwQoSSbm1WFkaDVtFObPBKC3CD8mA)" vector-effect="non-scaling-stroke" stroke-width="2" stroke="rgb(0,0,0)" stroke-linejoin="round" stroke-linecap="round" stroke-miterlimit="3"/><mask id="_mask_Q9UWYdwlNv11Yfk5WJrOhyZZ0YVkif4a"><path d=" M 20 69.282 L 20 46.188 L 40 57.735 L 40 80.829 L 20 69.282 Z " fill="white" stroke="none"/></mask><path d=" M 20 69.282 L 20 46.188 L 40 57.735 L 40 80.829 L 20 69.282 Z " fill="rgb(255,255,255)"/><path d=" M 20 69.282 L 20 46.188 L 40 57.735 L 40 80.829 L 20 69.282 Z " fill="rgb(255,255,255)" mask="url(#_mask_Q9UWYdwlNv11Yfk5WJrOhyZZ0YVkif4a)" vector-effect="non-scaling-stroke" stroke-width="2" stroke="rgb(0,0,0)" stroke-linejoin="round" stroke-linecap="round" stroke-miterlimit="3"/><mask id="_mask_TKcxQUaCA7CNXfqNALpLL3d1J19jnzFs"><path d=" M 0 103.923 L 0 80.829 L 20 92.376 L 20 115.47 L 0 103.923 Z " fill="white" stroke="none"/></mask><path d=" M 0 103.923 L 0 80.829 L 20 92.376 L 20 115.47 L 0 103.923 Z " fill="rgb(255,255,255)"/><path d=" M 0 103.923 L 0 80.829 L 20 92.376 L 20 115.47 L 0 103.923 Z " fill="rgb(255,255,255)" mask="url(#_mask_TKcxQUaCA7CNXfqNALpLL3d1J19jnzFs)" vector-effect="non-scaling-stroke" stroke-width="2" stroke="rgb(0,0,0)" stroke-linejoin="round" stroke-linecap="round" stroke-miterlimit="3"/><mask id="_mask_RqqHr8RjL0fm7JG19fcwLFRGp0yavLLd"><path d=" M 0 80.829 L 0 57.735 L 20 69.282 L 20 92.376 L 0 80.829 Z " fill="white" stroke="none"/></mask><path d=" M 0 80.829 L 0 57.735 L 20 69.282 L 20 92.376 L 0 80.829 Z " fill="rgb(255,255,255)"/><path d=" M 0 80.829 L 0 57.735 L 20 69.282 L 20 92.376 L 0 80.829 Z " fill="rgb(255,255,255)" mask="url(#_mask_RqqHr8RjL0fm7JG19fcwLFRGp0yavLLd)" vector-effect="non-scaling-stroke" stroke-width="2" stroke="rgb(0,0,0)" stroke-linejoin="round" stroke-linecap="round" stroke-miterlimit="3"/><mask id="_mask_BJTqzkoHbMQRxTxszW1NZ7A3q0aoM2Wg"><path d=" M 0 57.735 L 0 34.641 L 20 46.188 L 20 69.282 L 0 57.735 Z " fill="white" stroke="none"/></mask><path d=" M 0 57.735 L 0 34.641 L 20 46.188 L 20 69.282 L 0 57.735 Z " fill="rgb(255,255,255)"/><path d=" M 0 57.735 L 0 34.641 L 20 46.188 L 20 69.282 L 0 57.735 Z " fill="rgb(255,255,255)" mask="url(#_mask_BJTqzkoHbMQRxTxszW1NZ7A3q0aoM2Wg)" vector-effect="non-scaling-stroke" stroke-width="2" stroke="rgb(0,0,0)" stroke-linejoin="round" stroke-linecap="round" stroke-miterlimit="3"/><path d=" M 0 103.923 L 0 34.641 L 60 0 L 120 34.641 L 120 103.923 L 60 138.564 L 0 103.923 Z " fill="none" vector-effect="non-scaling-stroke" stroke-width="2" stroke="rgb(0,0,0)" stroke-linejoin="round" stroke-linecap="round" stroke-miterlimit="3"/><path d=" M 100 103.923 L 100 46.188 L 50 17.321" fill="none" vector-effect="non-scaling-stroke" stroke-width="5" stroke="rgb(153,0,255)" stroke-linejoin="miter" stroke-linecap="square" stroke-miterlimit="3"/><path d=" M 55.961 14.307 L 43.484 13.558 L 50.371 23.99 Z " fill="rgb(153,0,255)" stroke="none"/></g></svg>