<?xml version="1.0" encoding="UTF-8" standalone="no"?><!-- Generator: Gravit.io --><svg xmlns="http://www.w3.org/2000/svg" xmlns:xlink="http://www.w3.org/1999/xlink" style="isolation:isolate" viewBox="-1 -1 122 140.564" width="122pt" height="140.564pt"><defs><clipPath id="_clipPath_L5KBkxysRRQDlc94RC6Bo22wnDOozprB"><rect x="-1" y="-1" width="122" height="140.564"/></clipPath></defs><g clip-path="url(#_clipPath_L5KBkxysRRQDlc94RC6Bo22wnDOozprB)"><mask id="_mask_2S9MpSc3CIlbvSfH090E2WHrEJUR1HkO"><path d=" M 40 127.017 L 40 103.923 L 60 115.47 L 60 138.564 L 40 127.017 Z " fill="white" stroke="none"/></mask><path d=" M 40 127.017 L 40 103.923 L 60 115.47 L 60 138.564 L 40 127.017 Z " fill="rgb(255,255,255)"/><path d=" M 40 127.017 L 40 103.923 L 60 115.47 L 60 138.564 L 40 127.017 Z " fill="rgb(255,255,255)" mask="url(#_mask_2S9MpSc3CIlbvSfH090E2WHrEJUR1HkO)" vector-effect="non-scaling-stroke" stroke-width="2" stroke="rgb(0,0,0)" stroke-linejoin="round" stroke-linecap="round" stroke-miterlimit="3"/><mask id="_mask_ICHiz6RZ703ecNT6OFx04ywMGDePH9o7"><path d=" M 40 103.923 L 40 80.829 L 60 92.376 L 60 115.47 L 40 103.923 Z " fill="white" stroke="none"/></mask><path d=" M 40 103.923 L 40 80.829 L 60 92.376 L 60 115.47 L 40 103.923 Z " fill="rgb(255,255,255)"/><path d=" M 40 103.923 L 40 80.829 L 60 92.376 L 60 115.47 L 40 103.923 Z " fill="rgb(255,255,255)" mask="url(#_mask_ICHiz6RZ703ecNT6OFx04ywMGDePH9o7)" vector-effect="non-scaling-stroke" stroke-width="2" stroke="rgb(0,0,0)" stroke-linejoin="round" stroke-linecap="round" stroke-miterlimit="3"/><mask id="_mask_vUSp4sA8BCknTUlfuDkKQnROEVHLEQAH"><path d=" M 40 80.829 L 40 57.735 L 60 69.282 L 60 92.376 L 40 80.829 Z " fill="white" stroke="none"/></mask><path d=" M 40 80.829 L 40 57.735 L 60 69.282 L 60 92.376 L 40 80.829 Z " fill="rgb(255,255,255)"/><path d=" M 40 80.829 L 40 57.735 L 60 69.282 L 60 92.376 L 40 80.829 Z " fill="rgb(255,255,255)" mask="url(#_mask_vUSp4sA8BCknTUlfuDkKQnROEVHLEQAH)" vector-effect="non-scaling-stroke" stroke-width="2" stroke="rgb(0,0,0)" stroke-linejoin="round" stroke-linecap="round" stroke-miterlimit="3"/><mask id="_mask_u8DgbDom2JbV7feLimBO5kbzRQwYo3gP"><path d=" M 80 80.829 L 80 57.735 L 60 69.282 L 60 92.376 L 80 80.829 Z " fill="white" stroke="none"/></mask><path d=" M 80 80.829 L 80 57.735 L 60 69.282 L 60 92.376 L 80 80.829 Z " fill="rgb(255,255,255)"/><path d=" M 80 80.829 L 80 57.735 L 60 69.282 L 60 92.376 L 80 80.829 Z " fill="rgb(255,255,255)" mask="url(#_mask_u8DgbDom2JbV7feLimBO5kbzRQwYo3gP)" vector-effect="non-scaling-stroke" stroke-width="2" stroke="rgb(0,0,0)" stroke-linejoin="round" stroke-linecap="round" stroke-miterlimit="3"/><mask id="_mask_wVV4RtCS68rfPiv4wSR2jOHum0rFvoTk"><path d=" M 60 46.188 L 80 57.735 L 60 69.282 L 40 57.735 L 60 46.188 Z " fill="white" stroke="none"/></mask><path d=" M 60 46.188 L 80 57.735 L 60 69.282 L 40 57.735 L 60 46.188 Z " fill="rgb(255,255,255)"/><path d=" M 60 46.188 L 80 57.735 L 60 69.282 L 40 57.735 L 60 46.188 Z " fill="rgb(255,255,255)" mask="url(#_mask_wVV4RtCS68rfPiv4wSR2jOHum0rFvoTk)" vector-effect="non-scaling-stroke" stroke-width="2" stroke="rgb(0,0,0)" stroke-linejoin="round" stroke-linecap="round" stroke-miterlimit="3"/><mask id="_mask_oIKc9bZHhWN0tQ0AEYEKHCJjcZHen6tH"><path d=" M 80 34.641 L 100 46.188 L 80 57.735 L 60 46.188 L 80 34.641 Z " fill="white" stroke="none"/></mask><path d=" M 80 34.641 L 100 46.188 L 80 57.735 L 60 46.188 L 80 34.641 Z " fill="rgb(255,255,255)"/><path d=" M 80 34.641 L 100 46.188 L 80 57.735 L 60 46.188 L 80 34.641 Z " fill="rgb(255,255,255)" mask="url(#_mask_oIKc9bZHhWN0tQ0AEYEKHCJjcZHen6tH)" vector-effect="non-scaling-stroke" stroke-width="2" stroke="rgb(0,0,0)" stroke-linejoin="round" stroke-linecap="round" stroke-miterlimit="3"/><mask id="_mask_QGLxewOoQbA9Q62FuTSb033nRYoRNxnm"><path d=" M 100 23.094 L 120 34.641 L 100 46.188 L 80 34.641 L 100 23.094 Z " fill="white" stroke="none"/></mask><path d=" M 100 23.094 L 120 34.641 L 100 46.188 L 80 34.641 L 100 23.094 Z " fill="rgb(209,209,209)"/><path d=" M 100 23.094 L 120 34.641 L 100 46.188 L 80 34.641 L 100 23.094 Z " fill="rgb(209,209,209)" mask="url(#_mask_QGLxewOoQbA9Q62FuTSb033nRYoRNxnm)" vector-effect="non-scaling-stroke" stroke-width="2" stroke="rgb(0,0,0)" stroke-linejoin="round" stroke-linecap="round" stroke-miterlimit="3"/><mask id="_mask_a23GemB4z3HVEnFIYAa1883ruRPPbnvh"><path d=" M 40 34.641 L 60 46.188 L 40 57.735 L 20 46.188 L 40 34.641 Z " fill="white" stroke="none"/></mask><path d=" M 40 34.641 L 60 46.188 L 40 57.735 L 20 46.188 L 40 34.641 Z " fill="rgb(255,255,255)"/><path d=" M 40 34.641 L 60 46.188 L 40 57.735 L 20 46.188 L 40 34.641 Z " fill="rgb(255,255,255)" mask="url(#_mask_a23GemB4z3HVEnFIYAa1883ruRPPbnvh)" vector-effect="non-scaling-stroke" stroke-width="2" stroke="rgb(0,0,0)" stroke-linejoin="round" stroke-linecap="round" stroke-miterlimit="3"/><mask id="_mask_BQSMoV2wqk1SsTwuJ61BHsom8WzAdIRw"><path d=" M 60 23.094 L 80 34.641 L 60 46.188 L 40 34.641 L 60 23.094 Z " fill="white" stroke="none"/></mask><path d=" M 60 23.094 L 80 34.641 L 60 46.188 L 40 34.641 L 60 23.094 Z " fill="rgb(255,255,255)"/><path d=" M 60 23.094 L 80 34.641 L 60 46.188 L 40 34.641 L 60 23.094 Z " fill="rgb(255,255,255)" mask="url(#_mask_BQSMoV2wqk1SsTwuJ61BHsom8WzAdIRw)" vector-effect="non-scaling-stroke" stroke-width="2" stroke="rgb(0,0,0)" stroke-linejoin="round" stroke-linecap="round" stroke-miterlimit="3"/><mask id="_mask_UNhxKf6q8n2NvG0eig4fFvt31rqsTwQ5"><path d=" M 80 11.547 L 100 23.094 L 80 34.641 L 60 23.094 L 80 11.547 Z " fill="white" stroke="none"/></mask><path d=" M 80 11.547 L 100 23.094 L 80 34.641 L 60 23.094 L 80 11.547 Z " fill="rgb(209,209,209)"/><path d=" M 80 11.547 L 100 23.094 L 80 34.641 L 60 23.094 L 80 11.547 Z " fill="rgb(209,209,209)" mask="url(#_mask_UNhxKf6q8n2NvG0eig4fFvt31rqsTwQ5)" vector-effect="non-scaling-stroke" stroke-width="2" stroke="rgb(0,0,0)" stroke-linejoin="round" stroke-linecap="round" stroke-miterlimit="3"/><mask id="_mask_iWpbL7TagxssCx1AUKB4FRkbCMTqU1oG"><path d=" M 20 23.094 L 40 34.641 L 20 46.188 L 0 34.641 L 20 23.094 Z " fill="white" stroke="none"/></mask><path d=" M 20 23.094 L 40 34.641 L 20 46.188 L 0 34.641 L 20 23.094 Z " fill="rgb(255,255,255)"/><path d=" M 20 23.094 L 40 34.641 L 20 46.188 L 0 34.641 L 20 23.094 Z " fill="rgb(255,255,255)" mask="url(#_mask_iWpbL7TagxssCx1AUKB4FRkbCMTqU1oG)" vector-effect="non-scaling-stroke" stroke-width="2" stroke="rgb(0,0,0)" stroke-linejoin="round" stroke-linecap="round" stroke-miterlimit="3"/><mask id="_mask_iTXn4v7a5qY5wAFofpDduNAd5rTJQ3v2"><path d=" M 40 11.547 L 60 23.094 L 40 34.641 L 20 23.094 L 40 11.547 Z " fill="white" stroke="none"/></mask><path d=" M 40 11.547 L 60 23.094 L 40 34.641 L 20 23.094 L 40 11.547 Z " fill="rgb(255,255,255)"/><path d=" M 40 11.547 L 60 23.094 L 40 34.641 L 20 23.094 L 40 11.547 Z " fill="rgb(255,255,255)" mask="url(#_mask_iTXn4v7a5qY5wAFofpDduNAd5rTJQ3v2)" vector-effect="non-scaling-stroke" stroke-width="2" stroke="rgb(0,0,0)" stroke-linejoin="round" stroke-linecap="round" stroke-miterlimit="3"/><mask id="_mask_0ZAfX3MXn7ZZgChNL7rpoPkaGQTi1A38"><path d=" M 60 0 L 80 11.547 L 60 23.094 L 40 11.547 L 60 0 Z " fill="white" stroke="none"/></mask><path d=" M 60 0 L 80 11.547 L 60 23.094 L 40 11.547 L 60 0 Z " fill="rgb(209,209,209)"/><path d=" M 60 0 L 80 11.547 L 60 23.094 L 40 11.547 L 60 0 Z " fill="rgb(209,209,209)" mask="url(#_mask_0ZAfX3MXn7ZZgChNL7rpoPkaGQTi1A38)" vector-effect="non-scaling-stroke" stroke-width="2" stroke="rgb(0,0,0)" stroke-linejoin="round" stroke-linecap="round" stroke-miterlimit="3"/><mask id="_mask_do5zFXUT5FqVG6jteWi31AEOVCpdfWxZ"><path d=" M 100 69.282 L 100 46.188 L 80 57.735 L 80 80.829 L 100 69.282 Z " fill="white" stroke="none"/></mask><path d=" M 100 69.282 L 100 46.188 L 80 57.735 L 80 80.829 L 100 69.282 Z " fill="rgb(255,255,255)"/><path d=" M 100 69.282 L 100 46.188 L 80 57.735 L 80 80.829 L 100 69.282 Z " fill="rgb(255,255,255)" mask="url(#_mask_do5zFXUT5FqVG6jteWi31AEOVCpdfWxZ)" vector-effect="non-scaling-stroke" stroke-width="2" stroke="rgb(0,0,0)" stroke-linejoin="round" stroke-linecap="round" stroke-miterlimit="3"/><mask id="_mask_D1GLJlD5CyBcBpDcva4dPOGsLDFrFClo"><path d=" M 120 57.735 L 120 34.641 L 100 46.188 L 100 69.282 L 120 57.735 Z " fill="white" stroke="none"/></mask><path d=" M 120 57.735 L 120 34.641 L 100 46.188 L 100 69.282 L 120 57.735 Z " fill="rgb(209,209,209)"/><path d=" M 120 57.735 L 120 34.641 L 100 46.188 L 100 69.282 L 120 57.735 Z " fill="rgb(209,209,209)" mask="url(#_mask_D1GLJlD5CyBcBpDcva4dPOGsLDFrFClo)" vector-effect="non-scaling-stroke" stroke-width="2" stroke="rgb(0,0,0)" stroke-linejoin="round" stroke-linecap="round" stroke-miterlimit="3"/><mask id="_mask_JFivKBmSAxJI9hcbYoYGgAecKEOY74hv"><path d=" M 80 103.923 L 80 80.829 L 60 92.376 L 60 115.47 L 80 103.923 Z " fill="white" stroke="none"/></mask><path d=" M 80 103.923 L 80 80.829 L 60 92.376 L 60 115.47 L 80 103.923 Z " fill="rgb(255,255,255)"/><path d=" M 80 103.923 L 80 80.829 L 60 92.376 L 60 115.47 L 80 103.923 Z " fill="rgb(255,255,255)" mask="url(#_mask_JFivKBmSAxJI9hcbYoYGgAecKEOY74hv)" vector-effect="non-scaling-stroke" stroke-width="2" stroke="rgb(0,0,0)" stroke-linejoin="round" stroke-linecap="round" stroke-miterlimit="3"/><mask id="_mask_KylIgUE6CiElaD4R1Hc2U3yyoN175Qhp"><path d=" M 100 92.376 L 100 69.282 L 80 80.829 L 80 103.923 L 100 92.376 Z " fill="white" stroke="none"/></mask><path d=" M 100 92.376 L 100 69.282 L 80 80.829 L 80 103.923 L 100 92.376 Z " fill="rgb(255,255,255)"/><path d=" M 100 92.376 L 100 69.282 L 80 80.829 L 80 103.923 L 100 92.376 Z " fill="rgb(255,255,255)" mask="url(#_mask_KylIgUE6CiElaD4R1Hc2U3yyoN175Qhp)" vector-effect="non-scaling-stroke" stroke-width="2" stroke="rgb(0,0,0)" stroke-linejoin="round" stroke-linecap="round" stroke-miterlimit="3"/><mask id="_mask_pWqjfj1YrUoTdufpMXyBHJEhPup8iygt"><path d=" M 120 80.829 L 120 57.735 L 100 69.282 L 100 92.376 L 120 80.829 Z " fill="white" stroke="none"/></mask><path d=" M 120 80.829 L 120 57.735 L 100 69.282 L 100 92.376 L 120 80.829 Z " fill="rgb(209,209,209)"/><path d=" M 120 80.829 L 120 57.735 L 100 69.282 L 100 92.376 L 120 80.829 Z " fill="rgb(209,209,209)" mask="url(#_mask_pWqjfj1YrUoTdufpMXyBHJEhPup8iygt)" vector-effect="non-scaling-stroke" stroke-width="2" stroke="rgb(0,0,0)" stroke-linejoin="round" stroke-linecap="round" stroke-miterlimit="3"/><mask id="_mask_HsdFJrNJokC6a1GhHg3KkiIXfZVRzZLC"><path d=" M 80 127.017 L 80 103.923 L 60 115.47 L 60 138.564 L 80 127.017 Z " fill="white" stroke="none"/></mask><path d=" M 80 127.017 L 80 103.923 L 60 115.47 L 60 138.564 L 80 127.017 Z " fill="rgb(255,255,255)"/><path d=" M 80 127.017 L 80 103.923 L 60 115.47 L 60 138.564 L 80 127.017 Z " fill="rgb(255,255,255)" mask="url(#_mask_HsdFJrNJokC6a1GhHg3KkiIXfZVRzZLC)" vector-effect="non-scaling-stroke" stroke-width="2" stroke="rgb(0,0,0)" stroke-linejoin="round" stroke-linecap="round" stroke-miterlimit="3"/><mask id="_mask_taYxTSp5owPOtIc5UKIABq3yH1CnCWjV"><path d=" M 100 115.47 L 100 92.376 L 80 103.923 L 80 127.017 L 100 115.47 Z " fill="white" stroke="none"/></mask><path d=" M 100 115.47 L 100 92.376 L 80 103.923 L 80 127.017 L 100 115.47 Z " fill="rgb(255,255,255)"/><path d=" M 100 115.47 L 100 92.376 L 80 103.923 L 80 127.017 L 100 115.47 Z " fill="rgb(255,255,255)" mask="url(#_mask_taYxTSp5owPOtIc5UKIABq3yH1CnCWjV)" vector-effect="non-scaling-stroke" stroke-width="2" stroke="rgb(0,0,0)" stroke-linejoin="round" stroke-linecap="round" stroke-miterlimit="3"/><mask id="_mask_NAPocUPfNbfAFUkBfldHQmQnBVjmS12G"><path d=" M 120 103.923 L 120 80.829 L 100 92.376 L 100 115.47 L 120 103.923 Z " fill="white" stroke="none"/></mask><path d=" M 120 103.923 L 120 80.829 L 100 92.376 L 100 115.47 L 120 103.923 Z " fill="rgb(209,209,209)"/><path d=" M 120 103.923 L 120 80.829 L 100 92.376 L 100 115.47 L 120 103.923 Z " fill="rgb(209,209,209)" mask="url(#_mask_NAPocUPfNbfAFUkBfldHQmQnBVjmS12G)" vector-effect="non-scaling-stroke" stroke-width="2" stroke="rgb(0,0,0)" stroke-linejoin="round" stroke-linecap="round" stroke-miterlimit="3"/><mask id="_mask_cj9KdImYuY8qSqyhx6Ezh6QK6KHMqOcx"><path d=" M 20 115.47 L 20 92.376 L 40 103.923 L 40 127.017 L 20 115.47 Z " fill="white" stroke="none"/></mask><path d=" M 20 115.47 L 20 92.376 L 40 103.923 L 40 127.017 L 20 115.47 Z " fill="rgb(255,255,255)"/><path d=" M 20 115.47 L 20 92.376 L 40 103.923 L 40 127.017 L 20 115.47 Z " fill="rgb(255,255,255)" mask="url(#_mask_cj9KdImYuY8qSqyhx6Ezh6QK6KHMqOcx)" vector-effect="non-scaling-stroke" stroke-width="2" stroke="rgb(0,0,0)" stroke-linejoin="round" stroke-linecap="round" stroke-miterlimit="3"/><mask id="_mask_IXLfzN1EgWnDDwg7fAriYnC4eNaGuDxi"><path d=" M 20 92.376 L 20 69.282 L 40 80.829 L 40 103.923 L 20 92.376 Z " fill="white" stroke="none"/></mask><path d=" M 20 92.376 L 20 69.282 L 40 80.829 L 40 103.923 L 20 92.376 Z " fill="rgb(255,255,255)"/><path d=" M 20 92.376 L 20 69.282 L 40 80.829 L 40 103.923 L 20 92.376 Z " fill="rgb(255,255,255)" mask="url(#_mask_IXLfzN1EgWnDDwg7fAriYnC4eNaGuDxi)" vector-effect="non-scaling-stroke" stroke-width="2" stroke="rgb(0,0,0)" stroke-linejoin="round" stroke-linecap="round" stroke-miterlimit="3"/><mask id="_mask_OAxKpqQDMR7bGpVszzCA31v1H97pHrPI"><path d=" M 20 69.282 L 20 46.188 L 40 57.735 L 40 80.829 L 20 69.282 Z " fill="white" stroke="none"/></mask><path d=" M 20 69.282 L 20 46.188 L 40 57.735 L 40 80.829 L 20 69.282 Z " fill="rgb(255,255,255)"/><path d=" M 20 69.282 L 20 46.188 L 40 57.735 L 40 80.829 L 20 69.282 Z " fill="rgb(255,255,255)" mask="url(#_mask_OAxKpqQDMR7bGpVszzCA31v1H97pHrPI)" vector-effect="non-scaling-stroke" stroke-width="2" stroke="rgb(0,0,0)" stroke-linejoin="round" stroke-linecap="round" stroke-miterlimit="3"/><mask id="_mask_It4t2OMwlhMrTf9Y11Ga0KjtCc1gICMX"><path d=" M 0 103.923 L 0 80.829 L 20 92.376 L 20 115.47 L 0 103.923 Z " fill="white" stroke="none"/></mask><path d=" M 0 103.923 L 0 80.829 L 20 92.376 L 20 115.47 L 0 103.923 Z " fill="rgb(255,255,255)"/><path d=" M 0 103.923 L 0 80.829 L 20 92.376 L 20 115.47 L 0 103.923 Z " fill="rgb(255,255,255)" mask="url(#_mask_It4t2OMwlhMrTf9Y11Ga0KjtCc1gICMX)" vector-effect="non-scaling-stroke" stroke-width="2" stroke="rgb(0,0,0)" stroke-linejoin="round" stroke-linecap="round" stroke-miterlimit="3"/><mask id="_mask_cg5ICLu5f0L5WuKEXchu97QvfThXt3bf"><path d=" M 0 80.829 L 0 57.735 L 20 69.282 L 20 92.376 L 0 80.829 Z " fill="white" stroke="none"/></mask><path d=" M 0 80.829 L 0 57.735 L 20 69.282 L 20 92.376 L 0 80.829 Z " fill="rgb(255,255,255)"/><path d=" M 0 80.829 L 0 57.735 L 20 69.282 L 20 92.376 L 0 80.829 Z " fill="rgb(255,255,255)" mask="url(#_mask_cg5ICLu5f0L5WuKEXchu97QvfThXt3bf)" vector-effect="non-scaling-stroke" stroke-width="2" stroke="rgb(0,0,0)" stroke-linejoin="round" stroke-linecap="round" stroke-miterlimit="3"/><mask id="_mask_idmTBTGcrV6rVoJVYxl0ZfLJFSONLEpA"><path d=" M 0 57.735 L 0 34.641 L 20 46.188 L 20 69.282 L 0 57.735 Z " fill="white" stroke="none"/></mask><path d=" M 0 57.735 L 0 34.641 L 20 46.188 L 20 69.282 L 0 57.735 Z " fill="rgb(255,255,255)"/><path d=" M 0 57.735 L 0 34.641 L 20 46.188 L 20 69.282 L 0 57.735 Z " fill="rgb(255,255,255)" mask="url(#_mask_idmTBTGcrV6rVoJVYxl0ZfLJFSONLEpA)" vector-effect="non-scaling-stroke" stroke-width="2" stroke="rgb(0,0,0)" stroke-linejoin="round" stroke-linecap="round" stroke-miterlimit="3"/><path d=" M 0 103.923 L 0 34.641 L 60 0 L 120 34.641 L 120 103.923 L 60 138.564 L 0 103.923 Z " fill="none" vector-effect="non-scaling-stroke" stroke-width="2" stroke="rgb(0,0,0)" stroke-linejoin="round" stroke-linecap="round" stroke-miterlimit="3"/><path d=" M 110 98.15 L 110 40.415 L 60 11.547" fill="none" vector-effect="non-scaling-stroke" stroke-width="5" stroke="rgb(153,0,255)" stroke-linejoin="miter" stroke-linecap="square" stroke-miterlimit="3"/><path d=" M 65.961 8.534 L 53.484 7.785 L 60.371 18.216 Z " fill="rgb(153,0,255)" stroke="none"/></g></svg>