<?xml version="1.0" encoding="UTF-8" standalone="no"?><!-- Generator: Gravit.io --><svg xmlns="http://www.w3.org/2000/svg" xmlns:xlink="http://www.w3.org/1999/xlink" style="isolation:isolate" viewBox="-1.516 -1 122.516 140.564" width="122.516pt" height="140.564pt"><defs><clipPath id="_clipPath_pZsu5Wva2ExjLjubxZe6DnEeCMJK1NGP"><rect x="-1.516" y="-1" width="122.516" height="140.564"/></clipPath></defs><g clip-path="url(#_clipPath_pZsu5Wva2ExjLjubxZe6DnEeCMJK1NGP)"><mask id="_mask_SCEzAriHBhx3afNujsqZFHrh5aVUSOsV"><path d=" M 20 23.094 L 40 34.641 L 20 46.188 L 0 34.641 L 20 23.094 Z " fill="white" stroke="none"/></mask><path d=" M 20 23.094 L 40 34.641 L 20 46.188 L 0 34.641 L 20 23.094 Z " fill="rgb(255,255,255)"/><path d=" M 20 23.094 L 40 34.641 L 20 46.188 L 0 34.641 L 20 23.094 Z " fill="rgb(255,255,255)" mask="url(#_mask_SCEzAriHBhx3afNujsqZFHrh5aVUSOsV)" vector-effect="non-scaling-stroke" stroke-width="2" stroke="rgb(0,0,0)" stroke-linejoin="round" stroke-linecap="round" stroke-miterlimit="3"/><mask id="_mask_oNNBoKnWW1jKIS9s0PWLVDsQH8xv3bCu"><path d=" M 40 34.641 L 60 46.188 L 40 57.735 L 20 46.188 L 40 34.641 Z " fill="white" stroke="none"/></mask><path d=" M 40 34.641 L 60 46.188 L 40 57.735 L 20 46.188 L 40 34.641 Z " fill="rgb(255,255,255)"/><path d=" M 40 34.641 L 60 46.188 L 40 57.735 L 20 46.188 L 40 34.641 Z " fill="rgb(255,255,255)" mask="url(#_mask_oNNBoKnWW1jKIS9s0PWLVDsQH8xv3bCu)" vector-effect="non-scaling-stroke" stroke-width="2" stroke="rgb(0,0,0)" stroke-linejoin="round" stroke-linecap="round" stroke-miterlimit="3"/><mask id="_mask_S0pKYw0V6l5QHJ2mnaef3LKVKsXlaboj"><path d=" M 60 46.188 L 80 57.735 L 60 69.282 L 40 57.735 L 60 46.188 Z " fill="white" stroke="none"/></mask><path d=" M 60 46.188 L 80 57.735 L 60 69.282 L 40 57.735 L 60 46.188 Z " fill="rgb(255,255,255)"/><path d=" M 60 46.188 L 80 57.735 L 60 69.282 L 40 57.735 L 60 46.188 Z " fill="rgb(255,255,255)" mask="url(#_mask_S0pKYw0V6l5QHJ2mnaef3LKVKsXlaboj)" vector-effect="non-scaling-stroke" stroke-width="2" stroke="rgb(0,0,0)" stroke-linejoin="round" stroke-linecap="round" stroke-miterlimit="3"/><mask id="_mask_zD3Y6Hm0pNgKCgY5uUCqSF3z02KbLeOb"><path d=" M 40 80.829 L 60 92.376 L 60 69.282 L 40 57.735 L 40 80.829 Z " fill="white" stroke="none"/></mask><path d=" M 40 80.829 L 60 92.376 L 60 69.282 L 40 57.735 L 40 80.829 Z " fill="rgb(255,255,255)"/><path d=" M 40 80.829 L 60 92.376 L 60 69.282 L 40 57.735 L 40 80.829 Z " fill="rgb(255,255,255)" mask="url(#_mask_zD3Y6Hm0pNgKCgY5uUCqSF3z02KbLeOb)" vector-effect="non-scaling-stroke" stroke-width="2" stroke="rgb(0,0,0)" stroke-linejoin="round" stroke-linecap="round" stroke-miterlimit="3"/><mask id="_mask_GisOvmCKC6vH4jdyjyisPlS0n9T0FvX9"><path d=" M 80 80.829 L 60 92.376 L 60 69.282 L 80 57.735 L 80 80.829 Z " fill="white" stroke="none"/></mask><path d=" M 80 80.829 L 60 92.376 L 60 69.282 L 80 57.735 L 80 80.829 Z " fill="rgb(255,255,255)"/><path d=" M 80 80.829 L 60 92.376 L 60 69.282 L 80 57.735 L 80 80.829 Z " fill="rgb(255,255,255)" mask="url(#_mask_GisOvmCKC6vH4jdyjyisPlS0n9T0FvX9)" vector-effect="non-scaling-stroke" stroke-width="2" stroke="rgb(0,0,0)" stroke-linejoin="round" stroke-linecap="round" stroke-miterlimit="3"/><mask id="_mask_q7axsTV0icniGQtuBVRxIf3zhki4ccyX"><path d=" M 80 103.923 L 60 115.47 L 60 92.376 L 80 80.829 L 80 103.923 Z " fill="white" stroke="none"/></mask><path d=" M 80 103.923 L 60 115.47 L 60 92.376 L 80 80.829 L 80 103.923 Z " fill="rgb(255,255,255)"/><path d=" M 80 103.923 L 60 115.47 L 60 92.376 L 80 80.829 L 80 103.923 Z " fill="rgb(255,255,255)" mask="url(#_mask_q7axsTV0icniGQtuBVRxIf3zhki4ccyX)" vector-effect="non-scaling-stroke" stroke-width="2" stroke="rgb(0,0,0)" stroke-linejoin="round" stroke-linecap="round" stroke-miterlimit="3"/><mask id="_mask_PVuuhEHk2w9irZ5Y0s7diI9CgRLI10Dt"><path d=" M 80 127.017 L 60 138.564 L 60 115.47 L 80 103.923 L 80 127.017 Z " fill="white" stroke="none"/></mask><path d=" M 80 127.017 L 60 138.564 L 60 115.47 L 80 103.923 L 80 127.017 Z " fill="rgb(209,209,209)"/><path d=" M 80 127.017 L 60 138.564 L 60 115.47 L 80 103.923 L 80 127.017 Z " fill="rgb(209,209,209)" mask="url(#_mask_PVuuhEHk2w9irZ5Y0s7diI9CgRLI10Dt)" vector-effect="non-scaling-stroke" stroke-width="2" stroke="rgb(0,0,0)" stroke-linejoin="round" stroke-linecap="round" stroke-miterlimit="3"/><mask id="_mask_VGoT4Qnwca55u1gYADRt31CoXRuSgUHu"><path d=" M 100 69.282 L 80 80.829 L 80 57.735 L 100 46.188 L 100 69.282 Z " fill="white" stroke="none"/></mask><path d=" M 100 69.282 L 80 80.829 L 80 57.735 L 100 46.188 L 100 69.282 Z " fill="rgb(255,255,255)"/><path d=" M 100 69.282 L 80 80.829 L 80 57.735 L 100 46.188 L 100 69.282 Z " fill="rgb(255,255,255)" mask="url(#_mask_VGoT4Qnwca55u1gYADRt31CoXRuSgUHu)" vector-effect="non-scaling-stroke" stroke-width="2" stroke="rgb(0,0,0)" stroke-linejoin="round" stroke-linecap="round" stroke-miterlimit="3"/><mask id="_mask_7ZuOCavXULYDKIKt6TSHfwNkKT1edYV4"><path d=" M 100 92.376 L 80 103.923 L 80 80.829 L 100 69.282 L 100 92.376 Z " fill="white" stroke="none"/></mask><path d=" M 100 92.376 L 80 103.923 L 80 80.829 L 100 69.282 L 100 92.376 Z " fill="rgb(255,255,255)"/><path d=" M 100 92.376 L 80 103.923 L 80 80.829 L 100 69.282 L 100 92.376 Z " fill="rgb(255,255,255)" mask="url(#_mask_7ZuOCavXULYDKIKt6TSHfwNkKT1edYV4)" vector-effect="non-scaling-stroke" stroke-width="2" stroke="rgb(0,0,0)" stroke-linejoin="round" stroke-linecap="round" stroke-miterlimit="3"/><mask id="_mask_bAKqCAx1DJ8XpmQg8wzGTEx3PGBbE1fk"><path d=" M 100 115.47 L 80 127.017 L 80 103.923 L 100 92.376 L 100 115.47 Z " fill="white" stroke="none"/></mask><path d=" M 100 115.47 L 80 127.017 L 80 103.923 L 100 92.376 L 100 115.47 Z " fill="rgb(209,209,209)"/><path d=" M 100 115.47 L 80 127.017 L 80 103.923 L 100 92.376 L 100 115.47 Z " fill="rgb(209,209,209)" mask="url(#_mask_bAKqCAx1DJ8XpmQg8wzGTEx3PGBbE1fk)" vector-effect="non-scaling-stroke" stroke-width="2" stroke="rgb(0,0,0)" stroke-linejoin="round" stroke-linecap="round" stroke-miterlimit="3"/><mask id="_mask_fcm3qmFzqnEZRafMctfPLoZz4yynbw95"><path d=" M 120 57.735 L 100 69.282 L 100 46.188 L 120 34.641 L 120 57.735 Z " fill="white" stroke="none"/></mask><path d=" M 120 57.735 L 100 69.282 L 100 46.188 L 120 34.641 L 120 57.735 Z " fill="rgb(255,255,255)"/><path d=" M 120 57.735 L 100 69.282 L 100 46.188 L 120 34.641 L 120 57.735 Z " fill="rgb(255,255,255)" mask="url(#_mask_fcm3qmFzqnEZRafMctfPLoZz4yynbw95)" vector-effect="non-scaling-stroke" stroke-width="2" stroke="rgb(0,0,0)" stroke-linejoin="round" stroke-linecap="round" stroke-miterlimit="3"/><mask id="_mask_RIioqNkrIHDoDoFy3JUIrUwNNy1bxnx7"><path d=" M 120 80.829 L 100 92.376 L 100 69.282 L 120 57.735 L 120 80.829 Z " fill="white" stroke="none"/></mask><path d=" M 120 80.829 L 100 92.376 L 100 69.282 L 120 57.735 L 120 80.829 Z " fill="rgb(255,255,255)"/><path d=" M 120 80.829 L 100 92.376 L 100 69.282 L 120 57.735 L 120 80.829 Z " fill="rgb(255,255,255)" mask="url(#_mask_RIioqNkrIHDoDoFy3JUIrUwNNy1bxnx7)" vector-effect="non-scaling-stroke" stroke-width="2" stroke="rgb(0,0,0)" stroke-linejoin="round" stroke-linecap="round" stroke-miterlimit="3"/><mask id="_mask_0C8GoBebq3X1CHWHBTS5H9P7CiiiaA6u"><path d=" M 120 103.923 L 100 115.47 L 100 92.376 L 120 80.829 L 120 103.923 Z " fill="white" stroke="none"/></mask><path d=" M 120 103.923 L 100 115.47 L 100 92.376 L 120 80.829 L 120 103.923 Z " fill="rgb(209,209,209)"/><path d=" M 120 103.923 L 100 115.47 L 100 92.376 L 120 80.829 L 120 103.923 Z " fill="rgb(209,209,209)" mask="url(#_mask_0C8GoBebq3X1CHWHBTS5H9P7CiiiaA6u)" vector-effect="non-scaling-stroke" stroke-width="2" stroke="rgb(0,0,0)" stroke-linejoin="round" stroke-linecap="round" stroke-miterlimit="3"/><mask id="_mask_ie3PanJkrh7sSnNMME4zAWNkwv2xqMCX"><path d=" M 40 103.923 L 60 115.47 L 60 92.376 L 40 80.829 L 40 103.923 Z " fill="white" stroke="none"/></mask><path d=" M 40 103.923 L 60 115.47 L 60 92.376 L 40 80.829 L 40 103.923 Z " fill="rgb(255,255,255)"/><path d=" M 40 103.923 L 60 115.47 L 60 92.376 L 40 80.829 L 40 103.923 Z " fill="rgb(255,255,255)" mask="url(#_mask_ie3PanJkrh7sSnNMME4zAWNkwv2xqMCX)" vector-effect="non-scaling-stroke" stroke-width="2" stroke="rgb(0,0,0)" stroke-linejoin="round" stroke-linecap="round" stroke-miterlimit="3"/><mask id="_mask_1dpY7VxZ0SN6TdRWA6JvcTTJm9C295L9"><path d=" M 40 127.017 L 60 138.564 L 60 115.47 L 40 103.923 L 40 127.017 Z " fill="white" stroke="none"/></mask><path d=" M 40 127.017 L 60 138.564 L 60 115.47 L 40 103.923 L 40 127.017 Z " fill="rgb(209,209,209)"/><path d=" M 40 127.017 L 60 138.564 L 60 115.47 L 40 103.923 L 40 127.017 Z " fill="rgb(209,209,209)" mask="url(#_mask_1dpY7VxZ0SN6TdRWA6JvcTTJm9C295L9)" vector-effect="non-scaling-stroke" stroke-width="2" stroke="rgb(0,0,0)" stroke-linejoin="round" stroke-linecap="round" stroke-miterlimit="3"/><mask id="_mask_sc8H1Q2rcwFATjagnGhpLQC9CSF7ne7T"><path d=" M 20 69.282 L 40 80.829 L 40 57.735 L 20 46.188 L 20 69.282 Z " fill="white" stroke="none"/></mask><path d=" M 20 69.282 L 40 80.829 L 40 57.735 L 20 46.188 L 20 69.282 Z " fill="rgb(255,255,255)"/><path d=" M 20 69.282 L 40 80.829 L 40 57.735 L 20 46.188 L 20 69.282 Z " fill="rgb(255,255,255)" mask="url(#_mask_sc8H1Q2rcwFATjagnGhpLQC9CSF7ne7T)" vector-effect="non-scaling-stroke" stroke-width="2" stroke="rgb(0,0,0)" stroke-linejoin="round" stroke-linecap="round" stroke-miterlimit="3"/><mask id="_mask_jifc1GpuljJjByqEuftv6KPA4VFWsQiB"><path d=" M 20 92.376 L 40 103.923 L 40 80.829 L 20 69.282 L 20 92.376 Z " fill="white" stroke="none"/></mask><path d=" M 20 92.376 L 40 103.923 L 40 80.829 L 20 69.282 L 20 92.376 Z " fill="rgb(255,255,255)"/><path d=" M 20 92.376 L 40 103.923 L 40 80.829 L 20 69.282 L 20 92.376 Z " fill="rgb(255,255,255)" mask="url(#_mask_jifc1GpuljJjByqEuftv6KPA4VFWsQiB)" vector-effect="non-scaling-stroke" stroke-width="2" stroke="rgb(0,0,0)" stroke-linejoin="round" stroke-linecap="round" stroke-miterlimit="3"/><mask id="_mask_uPS2jolmyt2J3fCnkAIovxePY9KqrQMp"><path d=" M 20 115.47 L 40 127.017 L 40 103.923 L 20 92.376 L 20 115.47 Z " fill="white" stroke="none"/></mask><path d=" M 20 115.47 L 40 127.017 L 40 103.923 L 20 92.376 L 20 115.47 Z " fill="rgb(209,209,209)"/><path d=" M 20 115.47 L 40 127.017 L 40 103.923 L 20 92.376 L 20 115.47 Z " fill="rgb(209,209,209)" mask="url(#_mask_uPS2jolmyt2J3fCnkAIovxePY9KqrQMp)" vector-effect="non-scaling-stroke" stroke-width="2" stroke="rgb(0,0,0)" stroke-linejoin="round" stroke-linecap="round" stroke-miterlimit="3"/><mask id="_mask_gRE8Ngwtgjf0wHqaOcNqTbBPJoyp1RZo"><path d=" M 0 57.735 L 20 69.282 L 20 46.188 L 0 34.641 L 0 57.735 Z " fill="white" stroke="none"/></mask><path d=" M 0 57.735 L 20 69.282 L 20 46.188 L 0 34.641 L 0 57.735 Z " fill="rgb(255,255,255)"/><path d=" M 0 57.735 L 20 69.282 L 20 46.188 L 0 34.641 L 0 57.735 Z " fill="rgb(255,255,255)" mask="url(#_mask_gRE8Ngwtgjf0wHqaOcNqTbBPJoyp1RZo)" vector-effect="non-scaling-stroke" stroke-width="2" stroke="rgb(0,0,0)" stroke-linejoin="round" stroke-linecap="round" stroke-miterlimit="3"/><mask id="_mask_Cdo6nH5VXKCqa3KbwaV1hzOnT0yHI8KW"><path d=" M 0 80.829 L 20 92.376 L 20 69.282 L 0 57.735 L 0 80.829 Z " fill="white" stroke="none"/></mask><path d=" M 0 80.829 L 20 92.376 L 20 69.282 L 0 57.735 L 0 80.829 Z " fill="rgb(255,255,255)"/><path d=" M 0 80.829 L 20 92.376 L 20 69.282 L 0 57.735 L 0 80.829 Z " fill="rgb(255,255,255)" mask="url(#_mask_Cdo6nH5VXKCqa3KbwaV1hzOnT0yHI8KW)" vector-effect="non-scaling-stroke" stroke-width="2" stroke="rgb(0,0,0)" stroke-linejoin="round" stroke-linecap="round" stroke-miterlimit="3"/><mask id="_mask_wVGlGi0qobgOEBVkyT0eZYFvSOSOhA93"><path d=" M 0 103.923 L 20 115.47 L 20 92.376 L 0 80.829 L 0 103.923 Z " fill="white" stroke="none"/></mask><path d=" M 0 103.923 L 20 115.47 L 20 92.376 L 0 80.829 L 0 103.923 Z " fill="rgb(209,209,209)"/><path d=" M 0 103.923 L 20 115.47 L 20 92.376 L 0 80.829 L 0 103.923 Z " fill="rgb(209,209,209)" mask="url(#_mask_wVGlGi0qobgOEBVkyT0eZYFvSOSOhA93)" vector-effect="non-scaling-stroke" stroke-width="2" stroke="rgb(0,0,0)" stroke-linejoin="round" stroke-linecap="round" stroke-miterlimit="3"/><mask id="_mask_k7sAVA9yof1TJs0G0FUYpi0rCsmsOMou"><path d=" M 40 11.547 L 60 23.094 L 40 34.641 L 20 23.094 L 40 11.547 Z " fill="white" stroke="none"/></mask><path d=" M 40 11.547 L 60 23.094 L 40 34.641 L 20 23.094 L 40 11.547 Z " fill="rgb(255,255,255)"/><path d=" M 40 11.547 L 60 23.094 L 40 34.641 L 20 23.094 L 40 11.547 Z " fill="rgb(255,255,255)" mask="url(#_mask_k7sAVA9yof1TJs0G0FUYpi0rCsmsOMou)" vector-effect="non-scaling-stroke" stroke-width="2" stroke="rgb(0,0,0)" stroke-linejoin="round" stroke-linecap="round" stroke-miterlimit="3"/><mask id="_mask_l6zmv3zqi3qwIP9qxI9PMacdaIXA0Rl3"><path d=" M 60 23.094 L 80 34.641 L 60 46.188 L 40 34.641 L 60 23.094 Z " fill="white" stroke="none"/></mask><path d=" M 60 23.094 L 80 34.641 L 60 46.188 L 40 34.641 L 60 23.094 Z " fill="rgb(255,255,255)"/><path d=" M 60 23.094 L 80 34.641 L 60 46.188 L 40 34.641 L 60 23.094 Z " fill="rgb(255,255,255)" mask="url(#_mask_l6zmv3zqi3qwIP9qxI9PMacdaIXA0Rl3)" vector-effect="non-scaling-stroke" stroke-width="2" stroke="rgb(0,0,0)" stroke-linejoin="round" stroke-linecap="round" stroke-miterlimit="3"/><mask id="_mask_lEVnbGHnKEBFHF6blO54XrsBCPJRATcZ"><path d=" M 80 34.641 L 100 46.188 L 80 57.735 L 60 46.188 L 80 34.641 Z " fill="white" stroke="none"/></mask><path d=" M 80 34.641 L 100 46.188 L 80 57.735 L 60 46.188 L 80 34.641 Z " fill="rgb(255,255,255)"/><path d=" M 80 34.641 L 100 46.188 L 80 57.735 L 60 46.188 L 80 34.641 Z " fill="rgb(255,255,255)" mask="url(#_mask_lEVnbGHnKEBFHF6blO54XrsBCPJRATcZ)" vector-effect="non-scaling-stroke" stroke-width="2" stroke="rgb(0,0,0)" stroke-linejoin="round" stroke-linecap="round" stroke-miterlimit="3"/><mask id="_mask_nTKXQdgHvNVr2ZWVlU6ll0qqS3TtEWI7"><path d=" M 60 0 L 80 11.547 L 60 23.094 L 40 11.547 L 60 0 Z " fill="white" stroke="none"/></mask><path d=" M 60 0 L 80 11.547 L 60 23.094 L 40 11.547 L 60 0 Z " fill="rgb(255,255,255)"/><path d=" M 60 0 L 80 11.547 L 60 23.094 L 40 11.547 L 60 0 Z " fill="rgb(255,255,255)" mask="url(#_mask_nTKXQdgHvNVr2ZWVlU6ll0qqS3TtEWI7)" vector-effect="non-scaling-stroke" stroke-width="2" stroke="rgb(0,0,0)" stroke-linejoin="round" stroke-linecap="round" stroke-miterlimit="3"/><mask id="_mask_VdvPop9U9EiMpKPWhiOu1W4KeBiEHK0i"><path d=" M 80 11.547 L 100 23.094 L 80 34.641 L 60 23.094 L 80 11.547 Z " fill="white" stroke="none"/></mask><path d=" M 80 11.547 L 100 23.094 L 80 34.641 L 60 23.094 L 80 11.547 Z " fill="rgb(255,255,255)"/><path d=" M 80 11.547 L 100 23.094 L 80 34.641 L 60 23.094 L 80 11.547 Z " fill="rgb(255,255,255)" mask="url(#_mask_VdvPop9U9EiMpKPWhiOu1W4KeBiEHK0i)" vector-effect="non-scaling-stroke" stroke-width="2" stroke="rgb(0,0,0)" stroke-linejoin="round" stroke-linecap="round" stroke-miterlimit="3"/><mask id="_mask_dt4lQDGz8k64uDyFvayNRyN2X24MHrp8"><path d=" M 100 23.094 L 120 34.641 L 100 46.188 L 80 34.641 L 100 23.094 Z " fill="white" stroke="none"/></mask><path d=" M 100 23.094 L 120 34.641 L 100 46.188 L 80 34.641 L 100 23.094 Z " fill="rgb(255,255,255)"/><path d=" M 100 23.094 L 120 34.641 L 100 46.188 L 80 34.641 L 100 23.094 Z " fill="rgb(255,255,255)" mask="url(#_mask_dt4lQDGz8k64uDyFvayNRyN2X24MHrp8)" vector-effect="non-scaling-stroke" stroke-width="2" stroke="rgb(0,0,0)" stroke-linejoin="round" stroke-linecap="round" stroke-miterlimit="3"/><path d=" M 60 0 L 120 34.641 L 120 103.923 L 60 138.564 L 0 103.923 L 0 34.641 L 60 0 Z " fill="none" vector-effect="non-scaling-stroke" stroke-width="2" stroke="rgb(0,0,0)" stroke-linejoin="round" stroke-linecap="round" stroke-miterlimit="3"/><line x1="50" y1="121.244" x2="10" y2="98.15" vector-effect="non-scaling-stroke" stroke-width="5" stroke="rgb(153,0,255)" stroke-linejoin="miter" stroke-linecap="square" stroke-miterlimit="3"/><path d=" M 15.961 95.136 L 3.484 94.387 L 10.371 104.819 Z " fill="rgb(153,0,255)" stroke="none"/></g></svg>