<?xml version="1.0" encoding="UTF-8" standalone="no"?><!-- Generator: Gravit.io --><svg xmlns="http://www.w3.org/2000/svg" xmlns:xlink="http://www.w3.org/1999/xlink" style="isolation:isolate" viewBox="-1 -1 122 140.564" width="122pt" height="140.564pt"><defs><clipPath id="_clipPath_JF7Mj9nZU9Mondxwg2ppXGtWPLquNQul"><rect x="-1" y="-1" width="122" height="140.564"/></clipPath></defs><g clip-path="url(#_clipPath_JF7Mj9nZU9Mondxwg2ppXGtWPLquNQul)"><mask id="_mask_G4qRPvT68nIZV6AzZ7vMi3z0J6dodIeG"><path d=" M 20 23.094 L 40 34.641 L 20 46.188 L 0 34.641 L 20 23.094 Z " fill="white" stroke="none"/></mask><path d=" M 20 23.094 L 40 34.641 L 20 46.188 L 0 34.641 L 20 23.094 Z " fill="rgb(255,255,255)"/><path d=" M 20 23.094 L 40 34.641 L 20 46.188 L 0 34.641 L 20 23.094 Z " fill="rgb(255,255,255)" mask="url(#_mask_G4qRPvT68nIZV6AzZ7vMi3z0J6dodIeG)" vector-effect="non-scaling-stroke" stroke-width="2" stroke="rgb(0,0,0)" stroke-linejoin="round" stroke-linecap="round" stroke-miterlimit="3"/><mask id="_mask_NQnZvZQcteni089DE3lDLnnEQmgnnIx4"><path d=" M 40 34.641 L 60 46.188 L 40 57.735 L 20 46.188 L 40 34.641 Z " fill="white" stroke="none"/></mask><path d=" M 40 34.641 L 60 46.188 L 40 57.735 L 20 46.188 L 40 34.641 Z " fill="rgb(255,255,255)"/><path d=" M 40 34.641 L 60 46.188 L 40 57.735 L 20 46.188 L 40 34.641 Z " fill="rgb(255,255,255)" mask="url(#_mask_NQnZvZQcteni089DE3lDLnnEQmgnnIx4)" vector-effect="non-scaling-stroke" stroke-width="2" stroke="rgb(0,0,0)" stroke-linejoin="round" stroke-linecap="round" stroke-miterlimit="3"/><mask id="_mask_j51Zss3PgjgDvm4berQQnxkquCxQtLPE"><path d=" M 60 46.188 L 80 57.735 L 60 69.282 L 40 57.735 L 60 46.188 Z " fill="white" stroke="none"/></mask><path d=" M 60 46.188 L 80 57.735 L 60 69.282 L 40 57.735 L 60 46.188 Z " fill="rgb(255,255,255)"/><path d=" M 60 46.188 L 80 57.735 L 60 69.282 L 40 57.735 L 60 46.188 Z " fill="rgb(255,255,255)" mask="url(#_mask_j51Zss3PgjgDvm4berQQnxkquCxQtLPE)" vector-effect="non-scaling-stroke" stroke-width="2" stroke="rgb(0,0,0)" stroke-linejoin="round" stroke-linecap="round" stroke-miterlimit="3"/><mask id="_mask_osvbU8hTqbqwuZtzxQ79AT9HSFDpZeKg"><path d=" M 40 80.829 L 60 92.376 L 60 69.282 L 40 57.735 L 40 80.829 Z " fill="white" stroke="none"/></mask><path d=" M 40 80.829 L 60 92.376 L 60 69.282 L 40 57.735 L 40 80.829 Z " fill="rgb(255,255,255)"/><path d=" M 40 80.829 L 60 92.376 L 60 69.282 L 40 57.735 L 40 80.829 Z " fill="rgb(255,255,255)" mask="url(#_mask_osvbU8hTqbqwuZtzxQ79AT9HSFDpZeKg)" vector-effect="non-scaling-stroke" stroke-width="2" stroke="rgb(0,0,0)" stroke-linejoin="round" stroke-linecap="round" stroke-miterlimit="3"/><mask id="_mask_S0jokkC8jruZDecYcO957ioEfzWKL1Z3"><path d=" M 80 80.829 L 60 92.376 L 60 69.282 L 80 57.735 L 80 80.829 Z " fill="white" stroke="none"/></mask><path d=" M 80 80.829 L 60 92.376 L 60 69.282 L 80 57.735 L 80 80.829 Z " fill="rgb(255,255,255)"/><path d=" M 80 80.829 L 60 92.376 L 60 69.282 L 80 57.735 L 80 80.829 Z " fill="rgb(255,255,255)" mask="url(#_mask_S0jokkC8jruZDecYcO957ioEfzWKL1Z3)" vector-effect="non-scaling-stroke" stroke-width="2" stroke="rgb(0,0,0)" stroke-linejoin="round" stroke-linecap="round" stroke-miterlimit="3"/><mask id="_mask_q5AtKBc7CD9FWjQGpQkxRWFv0Y7nUDeN"><path d=" M 80 103.923 L 60 115.47 L 60 92.376 L 80 80.829 L 80 103.923 Z " fill="white" stroke="none"/></mask><path d=" M 80 103.923 L 60 115.47 L 60 92.376 L 80 80.829 L 80 103.923 Z " fill="rgb(255,255,255)"/><path d=" M 80 103.923 L 60 115.47 L 60 92.376 L 80 80.829 L 80 103.923 Z " fill="rgb(255,255,255)" mask="url(#_mask_q5AtKBc7CD9FWjQGpQkxRWFv0Y7nUDeN)" vector-effect="non-scaling-stroke" stroke-width="2" stroke="rgb(0,0,0)" stroke-linejoin="round" stroke-linecap="round" stroke-miterlimit="3"/><mask id="_mask_eEgEUbHW4m4VRyCAyfIX5wMYwULsTmtz"><path d=" M 80 127.017 L 60 138.564 L 60 115.47 L 80 103.923 L 80 127.017 Z " fill="white" stroke="none"/></mask><path d=" M 80 127.017 L 60 138.564 L 60 115.47 L 80 103.923 L 80 127.017 Z " fill="rgb(209,209,209)"/><path d=" M 80 127.017 L 60 138.564 L 60 115.47 L 80 103.923 L 80 127.017 Z " fill="rgb(209,209,209)" mask="url(#_mask_eEgEUbHW4m4VRyCAyfIX5wMYwULsTmtz)" vector-effect="non-scaling-stroke" stroke-width="2" stroke="rgb(0,0,0)" stroke-linejoin="round" stroke-linecap="round" stroke-miterlimit="3"/><mask id="_mask_qkmU3wxhUoBanmu0xLBitG6NSd4GYOJY"><path d=" M 100 69.282 L 80 80.829 L 80 57.735 L 100 46.188 L 100 69.282 Z " fill="white" stroke="none"/></mask><path d=" M 100 69.282 L 80 80.829 L 80 57.735 L 100 46.188 L 100 69.282 Z " fill="rgb(255,255,255)"/><path d=" M 100 69.282 L 80 80.829 L 80 57.735 L 100 46.188 L 100 69.282 Z " fill="rgb(255,255,255)" mask="url(#_mask_qkmU3wxhUoBanmu0xLBitG6NSd4GYOJY)" vector-effect="non-scaling-stroke" stroke-width="2" stroke="rgb(0,0,0)" stroke-linejoin="round" stroke-linecap="round" stroke-miterlimit="3"/><mask id="_mask_ADMWNfzFcQIPIHMeBgZmLTm5h9VHwu3G"><path d=" M 100 92.376 L 80 103.923 L 80 80.829 L 100 69.282 L 100 92.376 Z " fill="white" stroke="none"/></mask><path d=" M 100 92.376 L 80 103.923 L 80 80.829 L 100 69.282 L 100 92.376 Z " fill="rgb(255,255,255)"/><path d=" M 100 92.376 L 80 103.923 L 80 80.829 L 100 69.282 L 100 92.376 Z " fill="rgb(255,255,255)" mask="url(#_mask_ADMWNfzFcQIPIHMeBgZmLTm5h9VHwu3G)" vector-effect="non-scaling-stroke" stroke-width="2" stroke="rgb(0,0,0)" stroke-linejoin="round" stroke-linecap="round" stroke-miterlimit="3"/><mask id="_mask_8fQjjmj3FBGKw3gb1QAakeSVDlvs03jF"><path d=" M 100 115.47 L 80 127.017 L 80 103.923 L 100 92.376 L 100 115.47 Z " fill="white" stroke="none"/></mask><path d=" M 100 115.47 L 80 127.017 L 80 103.923 L 100 92.376 L 100 115.47 Z " fill="rgb(209,209,209)"/><path d=" M 100 115.47 L 80 127.017 L 80 103.923 L 100 92.376 L 100 115.47 Z " fill="rgb(209,209,209)" mask="url(#_mask_8fQjjmj3FBGKw3gb1QAakeSVDlvs03jF)" vector-effect="non-scaling-stroke" stroke-width="2" stroke="rgb(0,0,0)" stroke-linejoin="round" stroke-linecap="round" stroke-miterlimit="3"/><mask id="_mask_u4339KQwkNBQ46SwifEOJONpGKaSr9lu"><path d=" M 120 57.735 L 100 69.282 L 100 46.188 L 120 34.641 L 120 57.735 Z " fill="white" stroke="none"/></mask><path d=" M 120 57.735 L 100 69.282 L 100 46.188 L 120 34.641 L 120 57.735 Z " fill="rgb(255,255,255)"/><path d=" M 120 57.735 L 100 69.282 L 100 46.188 L 120 34.641 L 120 57.735 Z " fill="rgb(255,255,255)" mask="url(#_mask_u4339KQwkNBQ46SwifEOJONpGKaSr9lu)" vector-effect="non-scaling-stroke" stroke-width="2" stroke="rgb(0,0,0)" stroke-linejoin="round" stroke-linecap="round" stroke-miterlimit="3"/><mask id="_mask_EGhDkgUwbL3VFzGTFySKZIPBIwk6sGOZ"><path d=" M 120 80.829 L 100 92.376 L 100 69.282 L 120 57.735 L 120 80.829 Z " fill="white" stroke="none"/></mask><path d=" M 120 80.829 L 100 92.376 L 100 69.282 L 120 57.735 L 120 80.829 Z " fill="rgb(255,255,255)"/><path d=" M 120 80.829 L 100 92.376 L 100 69.282 L 120 57.735 L 120 80.829 Z " fill="rgb(255,255,255)" mask="url(#_mask_EGhDkgUwbL3VFzGTFySKZIPBIwk6sGOZ)" vector-effect="non-scaling-stroke" stroke-width="2" stroke="rgb(0,0,0)" stroke-linejoin="round" stroke-linecap="round" stroke-miterlimit="3"/><mask id="_mask_xjnrAWL5iczRne4qJXzCCVV7pGvRCS0v"><path d=" M 120 103.923 L 100 115.47 L 100 92.376 L 120 80.829 L 120 103.923 Z " fill="white" stroke="none"/></mask><path d=" M 120 103.923 L 100 115.47 L 100 92.376 L 120 80.829 L 120 103.923 Z " fill="rgb(209,209,209)"/><path d=" M 120 103.923 L 100 115.47 L 100 92.376 L 120 80.829 L 120 103.923 Z " fill="rgb(209,209,209)" mask="url(#_mask_xjnrAWL5iczRne4qJXzCCVV7pGvRCS0v)" vector-effect="non-scaling-stroke" stroke-width="2" stroke="rgb(0,0,0)" stroke-linejoin="round" stroke-linecap="round" stroke-miterlimit="3"/><mask id="_mask_lJ1xmluLd6MoZcPhCEBpyNdDmBhE1pFk"><path d=" M 40 103.923 L 60 115.47 L 60 92.376 L 40 80.829 L 40 103.923 Z " fill="white" stroke="none"/></mask><path d=" M 40 103.923 L 60 115.47 L 60 92.376 L 40 80.829 L 40 103.923 Z " fill="rgb(255,255,255)"/><path d=" M 40 103.923 L 60 115.47 L 60 92.376 L 40 80.829 L 40 103.923 Z " fill="rgb(255,255,255)" mask="url(#_mask_lJ1xmluLd6MoZcPhCEBpyNdDmBhE1pFk)" vector-effect="non-scaling-stroke" stroke-width="2" stroke="rgb(0,0,0)" stroke-linejoin="round" stroke-linecap="round" stroke-miterlimit="3"/><mask id="_mask_Pqe6Q61w5FTaVZDCRf2D84nAxmBVd7qz"><path d=" M 40 127.017 L 60 138.564 L 60 115.47 L 40 103.923 L 40 127.017 Z " fill="white" stroke="none"/></mask><path d=" M 40 127.017 L 60 138.564 L 60 115.47 L 40 103.923 L 40 127.017 Z " fill="rgb(209,209,209)"/><path d=" M 40 127.017 L 60 138.564 L 60 115.47 L 40 103.923 L 40 127.017 Z " fill="rgb(209,209,209)" mask="url(#_mask_Pqe6Q61w5FTaVZDCRf2D84nAxmBVd7qz)" vector-effect="non-scaling-stroke" stroke-width="2" stroke="rgb(0,0,0)" stroke-linejoin="round" stroke-linecap="round" stroke-miterlimit="3"/><mask id="_mask_3jAvzjFOhIKNv9cOq6uYiraLFIsedY9Z"><path d=" M 20 69.282 L 40 80.829 L 40 57.735 L 20 46.188 L 20 69.282 Z " fill="white" stroke="none"/></mask><path d=" M 20 69.282 L 40 80.829 L 40 57.735 L 20 46.188 L 20 69.282 Z " fill="rgb(255,255,255)"/><path d=" M 20 69.282 L 40 80.829 L 40 57.735 L 20 46.188 L 20 69.282 Z " fill="rgb(255,255,255)" mask="url(#_mask_3jAvzjFOhIKNv9cOq6uYiraLFIsedY9Z)" vector-effect="non-scaling-stroke" stroke-width="2" stroke="rgb(0,0,0)" stroke-linejoin="round" stroke-linecap="round" stroke-miterlimit="3"/><mask id="_mask_vGnsxgUGthvHpBp3qc4O1EBzQ3k9qSfg"><path d=" M 20 92.376 L 40 103.923 L 40 80.829 L 20 69.282 L 20 92.376 Z " fill="white" stroke="none"/></mask><path d=" M 20 92.376 L 40 103.923 L 40 80.829 L 20 69.282 L 20 92.376 Z " fill="rgb(255,255,255)"/><path d=" M 20 92.376 L 40 103.923 L 40 80.829 L 20 69.282 L 20 92.376 Z " fill="rgb(255,255,255)" mask="url(#_mask_vGnsxgUGthvHpBp3qc4O1EBzQ3k9qSfg)" vector-effect="non-scaling-stroke" stroke-width="2" stroke="rgb(0,0,0)" stroke-linejoin="round" stroke-linecap="round" stroke-miterlimit="3"/><mask id="_mask_SCDNSmnX4QZHxguK3ixc7EGtdAOiYafZ"><path d=" M 20 115.47 L 40 127.017 L 40 103.923 L 20 92.376 L 20 115.47 Z " fill="white" stroke="none"/></mask><path d=" M 20 115.47 L 40 127.017 L 40 103.923 L 20 92.376 L 20 115.47 Z " fill="rgb(209,209,209)"/><path d=" M 20 115.47 L 40 127.017 L 40 103.923 L 20 92.376 L 20 115.47 Z " fill="rgb(209,209,209)" mask="url(#_mask_SCDNSmnX4QZHxguK3ixc7EGtdAOiYafZ)" vector-effect="non-scaling-stroke" stroke-width="2" stroke="rgb(0,0,0)" stroke-linejoin="round" stroke-linecap="round" stroke-miterlimit="3"/><mask id="_mask_pG6yjPQeiESBCE9RH9mPePbNVhy8prXe"><path d=" M 0 57.735 L 20 69.282 L 20 46.188 L 0 34.641 L 0 57.735 Z " fill="white" stroke="none"/></mask><path d=" M 0 57.735 L 20 69.282 L 20 46.188 L 0 34.641 L 0 57.735 Z " fill="rgb(255,255,255)"/><path d=" M 0 57.735 L 20 69.282 L 20 46.188 L 0 34.641 L 0 57.735 Z " fill="rgb(255,255,255)" mask="url(#_mask_pG6yjPQeiESBCE9RH9mPePbNVhy8prXe)" vector-effect="non-scaling-stroke" stroke-width="2" stroke="rgb(0,0,0)" stroke-linejoin="round" stroke-linecap="round" stroke-miterlimit="3"/><mask id="_mask_qnBEOwr837PyEYV3t9Vv35vnKGoSW4gX"><path d=" M 0 80.829 L 20 92.376 L 20 69.282 L 0 57.735 L 0 80.829 Z " fill="white" stroke="none"/></mask><path d=" M 0 80.829 L 20 92.376 L 20 69.282 L 0 57.735 L 0 80.829 Z " fill="rgb(255,255,255)"/><path d=" M 0 80.829 L 20 92.376 L 20 69.282 L 0 57.735 L 0 80.829 Z " fill="rgb(255,255,255)" mask="url(#_mask_qnBEOwr837PyEYV3t9Vv35vnKGoSW4gX)" vector-effect="non-scaling-stroke" stroke-width="2" stroke="rgb(0,0,0)" stroke-linejoin="round" stroke-linecap="round" stroke-miterlimit="3"/><mask id="_mask_ZFyBRxa3K5ben9Fngh66kqZRzGBTjmsf"><path d=" M 0 103.923 L 20 115.47 L 20 92.376 L 0 80.829 L 0 103.923 Z " fill="white" stroke="none"/></mask><path d=" M 0 103.923 L 20 115.47 L 20 92.376 L 0 80.829 L 0 103.923 Z " fill="rgb(209,209,209)"/><path d=" M 0 103.923 L 20 115.47 L 20 92.376 L 0 80.829 L 0 103.923 Z " fill="rgb(209,209,209)" mask="url(#_mask_ZFyBRxa3K5ben9Fngh66kqZRzGBTjmsf)" vector-effect="non-scaling-stroke" stroke-width="2" stroke="rgb(0,0,0)" stroke-linejoin="round" stroke-linecap="round" stroke-miterlimit="3"/><mask id="_mask_2MqMLSqpKvDtXpsgBMkrh4QtJM8UFdAC"><path d=" M 40 11.547 L 60 23.094 L 40 34.641 L 20 23.094 L 40 11.547 Z " fill="white" stroke="none"/></mask><path d=" M 40 11.547 L 60 23.094 L 40 34.641 L 20 23.094 L 40 11.547 Z " fill="rgb(255,255,255)"/><path d=" M 40 11.547 L 60 23.094 L 40 34.641 L 20 23.094 L 40 11.547 Z " fill="rgb(255,255,255)" mask="url(#_mask_2MqMLSqpKvDtXpsgBMkrh4QtJM8UFdAC)" vector-effect="non-scaling-stroke" stroke-width="2" stroke="rgb(0,0,0)" stroke-linejoin="round" stroke-linecap="round" stroke-miterlimit="3"/><mask id="_mask_Pudid0Ey6s9ghwpU56ga3CTrefusQkcY"><path d=" M 60 23.094 L 80 34.641 L 60 46.188 L 40 34.641 L 60 23.094 Z " fill="white" stroke="none"/></mask><path d=" M 60 23.094 L 80 34.641 L 60 46.188 L 40 34.641 L 60 23.094 Z " fill="rgb(255,255,255)"/><path d=" M 60 23.094 L 80 34.641 L 60 46.188 L 40 34.641 L 60 23.094 Z " fill="rgb(255,255,255)" mask="url(#_mask_Pudid0Ey6s9ghwpU56ga3CTrefusQkcY)" vector-effect="non-scaling-stroke" stroke-width="2" stroke="rgb(0,0,0)" stroke-linejoin="round" stroke-linecap="round" stroke-miterlimit="3"/><mask id="_mask_N9R4IlFfwVcyB8fWL7QK5ewX0P6ttz5X"><path d=" M 80 34.641 L 100 46.188 L 80 57.735 L 60 46.188 L 80 34.641 Z " fill="white" stroke="none"/></mask><path d=" M 80 34.641 L 100 46.188 L 80 57.735 L 60 46.188 L 80 34.641 Z " fill="rgb(255,255,255)"/><path d=" M 80 34.641 L 100 46.188 L 80 57.735 L 60 46.188 L 80 34.641 Z " fill="rgb(255,255,255)" mask="url(#_mask_N9R4IlFfwVcyB8fWL7QK5ewX0P6ttz5X)" vector-effect="non-scaling-stroke" stroke-width="2" stroke="rgb(0,0,0)" stroke-linejoin="round" stroke-linecap="round" stroke-miterlimit="3"/><mask id="_mask_7hzyfI9POuyj9hKyl1cxc40wjtEZUNyz"><path d=" M 60 0 L 80 11.547 L 60 23.094 L 40 11.547 L 60 0 Z " fill="white" stroke="none"/></mask><path d=" M 60 0 L 80 11.547 L 60 23.094 L 40 11.547 L 60 0 Z " fill="rgb(255,255,255)"/><path d=" M 60 0 L 80 11.547 L 60 23.094 L 40 11.547 L 60 0 Z " fill="rgb(255,255,255)" mask="url(#_mask_7hzyfI9POuyj9hKyl1cxc40wjtEZUNyz)" vector-effect="non-scaling-stroke" stroke-width="2" stroke="rgb(0,0,0)" stroke-linejoin="round" stroke-linecap="round" stroke-miterlimit="3"/><mask id="_mask_YNWEfI3uOTtM5hkeDhrs0vpZJBhbXM7i"><path d=" M 80 11.547 L 100 23.094 L 80 34.641 L 60 23.094 L 80 11.547 Z " fill="white" stroke="none"/></mask><path d=" M 80 11.547 L 100 23.094 L 80 34.641 L 60 23.094 L 80 11.547 Z " fill="rgb(255,255,255)"/><path d=" M 80 11.547 L 100 23.094 L 80 34.641 L 60 23.094 L 80 11.547 Z " fill="rgb(255,255,255)" mask="url(#_mask_YNWEfI3uOTtM5hkeDhrs0vpZJBhbXM7i)" vector-effect="non-scaling-stroke" stroke-width="2" stroke="rgb(0,0,0)" stroke-linejoin="round" stroke-linecap="round" stroke-miterlimit="3"/><mask id="_mask_bHGOxL3xtAV8BMrqEzpVz1Rot6BXvVjr"><path d=" M 100 23.094 L 120 34.641 L 100 46.188 L 80 34.641 L 100 23.094 Z " fill="white" stroke="none"/></mask><path d=" M 100 23.094 L 120 34.641 L 100 46.188 L 80 34.641 L 100 23.094 Z " fill="rgb(255,255,255)"/><path d=" M 100 23.094 L 120 34.641 L 100 46.188 L 80 34.641 L 100 23.094 Z " fill="rgb(255,255,255)" mask="url(#_mask_bHGOxL3xtAV8BMrqEzpVz1Rot6BXvVjr)" vector-effect="non-scaling-stroke" stroke-width="2" stroke="rgb(0,0,0)" stroke-linejoin="round" stroke-linecap="round" stroke-miterlimit="3"/><path d=" M 60 0 L 120 34.641 L 120 103.923 L 60 138.564 L 0 103.923 L 0 34.641 L 60 0 Z " fill="none" vector-effect="non-scaling-stroke" stroke-width="2" stroke="rgb(0,0,0)" stroke-linejoin="round" stroke-linecap="round" stroke-miterlimit="3"/><line x1="10" y1="98.15" x2="50" y2="121.244" vector-effect="non-scaling-stroke" stroke-width="5" stroke="rgb(153,0,255)" stroke-linejoin="miter" stroke-linecap="square" stroke-miterlimit="3"/><path d=" M 44.039 124.257 L 56.516 125.006 L 49.629 114.574 Z " fill="rgb(153,0,255)" stroke="none"/></g></svg>