<?xml version="1.0" encoding="UTF-8" standalone="no"?><!-- Generator: Gravit.io --><svg xmlns="http://www.w3.org/2000/svg" xmlns:xlink="http://www.w3.org/1999/xlink" style="isolation:isolate" viewBox="-1 -1 122 140.564" width="122pt" height="140.564pt"><defs><clipPath id="_clipPath_51TEfM2Ar6lu5hKmOCCIdoTUF90wi5Wi"><rect x="-1" y="-1" width="122" height="140.564"/></clipPath></defs><g clip-path="url(#_clipPath_51TEfM2Ar6lu5hKmOCCIdoTUF90wi5Wi)"><mask id="_mask_lloNM8oHw8wLVKFg3OXfY3vISBJr1V3q"><path d=" M 40 127.017 L 40 103.923 L 60 115.47 L 60 138.564 L 40 127.017 Z " fill="white" stroke="none"/></mask><path d=" M 40 127.017 L 40 103.923 L 60 115.47 L 60 138.564 L 40 127.017 Z " fill="rgb(209,209,209)"/><path d=" M 40 127.017 L 40 103.923 L 60 115.47 L 60 138.564 L 40 127.017 Z " fill="rgb(209,209,209)" mask="url(#_mask_lloNM8oHw8wLVKFg3OXfY3vISBJr1V3q)" vector-effect="non-scaling-stroke" stroke-width="2" stroke="rgb(0,0,0)" stroke-linejoin="round" stroke-linecap="round" stroke-miterlimit="3"/><mask id="_mask_YtGi2ZHGLTFBz3jLS4fk8kH3g9oz61jB"><path d=" M 40 103.923 L 40 80.829 L 60 92.376 L 60 115.47 L 40 103.923 Z " fill="white" stroke="none"/></mask><path d=" M 40 103.923 L 40 80.829 L 60 92.376 L 60 115.47 L 40 103.923 Z " fill="rgb(209,209,209)"/><path d=" M 40 103.923 L 40 80.829 L 60 92.376 L 60 115.47 L 40 103.923 Z " fill="rgb(209,209,209)" mask="url(#_mask_YtGi2ZHGLTFBz3jLS4fk8kH3g9oz61jB)" vector-effect="non-scaling-stroke" stroke-width="2" stroke="rgb(0,0,0)" stroke-linejoin="round" stroke-linecap="round" stroke-miterlimit="3"/><mask id="_mask_Gre47ChPI1na7WI0uVweoAoxsfeuzQvA"><path d=" M 40 80.829 L 40 57.735 L 60 69.282 L 60 92.376 L 40 80.829 Z " fill="white" stroke="none"/></mask><path d=" M 40 80.829 L 40 57.735 L 60 69.282 L 60 92.376 L 40 80.829 Z " fill="rgb(209,209,209)"/><path d=" M 40 80.829 L 40 57.735 L 60 69.282 L 60 92.376 L 40 80.829 Z " fill="rgb(209,209,209)" mask="url(#_mask_Gre47ChPI1na7WI0uVweoAoxsfeuzQvA)" vector-effect="non-scaling-stroke" stroke-width="2" stroke="rgb(0,0,0)" stroke-linejoin="round" stroke-linecap="round" stroke-miterlimit="3"/><mask id="_mask_kJZlyjhwoNlbFd6enS7GUTJntUfBZBG1"><path d=" M 80 80.829 L 80 57.735 L 60 69.282 L 60 92.376 L 80 80.829 Z " fill="white" stroke="none"/></mask><path d=" M 80 80.829 L 80 57.735 L 60 69.282 L 60 92.376 L 80 80.829 Z " fill="rgb(209,209,209)"/><path d=" M 80 80.829 L 80 57.735 L 60 69.282 L 60 92.376 L 80 80.829 Z " fill="rgb(209,209,209)" mask="url(#_mask_kJZlyjhwoNlbFd6enS7GUTJntUfBZBG1)" vector-effect="non-scaling-stroke" stroke-width="2" stroke="rgb(0,0,0)" stroke-linejoin="round" stroke-linecap="round" stroke-miterlimit="3"/><mask id="_mask_4QlWuhvZR4v8EWIU1fqLxSSgQr5HVfJD"><path d=" M 60 46.188 L 80 57.735 L 60 69.282 L 40 57.735 L 60 46.188 Z " fill="white" stroke="none"/></mask><path d=" M 60 46.188 L 80 57.735 L 60 69.282 L 40 57.735 L 60 46.188 Z " fill="rgb(209,209,209)"/><path d=" M 60 46.188 L 80 57.735 L 60 69.282 L 40 57.735 L 60 46.188 Z " fill="rgb(209,209,209)" mask="url(#_mask_4QlWuhvZR4v8EWIU1fqLxSSgQr5HVfJD)" vector-effect="non-scaling-stroke" stroke-width="2" stroke="rgb(0,0,0)" stroke-linejoin="round" stroke-linecap="round" stroke-miterlimit="3"/><mask id="_mask_dFTZkRjPtHrv8FzbbtWAbHx3hq5OrTQp"><path d=" M 80 34.641 L 100 46.188 L 80 57.735 L 60 46.188 L 80 34.641 Z " fill="white" stroke="none"/></mask><path d=" M 80 34.641 L 100 46.188 L 80 57.735 L 60 46.188 L 80 34.641 Z " fill="rgb(255,255,255)"/><path d=" M 80 34.641 L 100 46.188 L 80 57.735 L 60 46.188 L 80 34.641 Z " fill="rgb(255,255,255)" mask="url(#_mask_dFTZkRjPtHrv8FzbbtWAbHx3hq5OrTQp)" vector-effect="non-scaling-stroke" stroke-width="2" stroke="rgb(0,0,0)" stroke-linejoin="round" stroke-linecap="round" stroke-miterlimit="3"/><mask id="_mask_aYBZH4r3hjjbJqDMDl0QtGdmpFMWhNwS"><path d=" M 100 23.094 L 120 34.641 L 100 46.188 L 80 34.641 L 100 23.094 Z " fill="white" stroke="none"/></mask><path d=" M 100 23.094 L 120 34.641 L 100 46.188 L 80 34.641 L 100 23.094 Z " fill="rgb(255,255,255)"/><path d=" M 100 23.094 L 120 34.641 L 100 46.188 L 80 34.641 L 100 23.094 Z " fill="rgb(255,255,255)" mask="url(#_mask_aYBZH4r3hjjbJqDMDl0QtGdmpFMWhNwS)" vector-effect="non-scaling-stroke" stroke-width="2" stroke="rgb(0,0,0)" stroke-linejoin="round" stroke-linecap="round" stroke-miterlimit="3"/><mask id="_mask_ed39vmRBvQSdoYSfcRbUyHTcsumcvwE8"><path d=" M 40 34.641 L 60 46.188 L 40 57.735 L 20 46.188 L 40 34.641 Z " fill="white" stroke="none"/></mask><path d=" M 40 34.641 L 60 46.188 L 40 57.735 L 20 46.188 L 40 34.641 Z " fill="rgb(209,209,209)"/><path d=" M 40 34.641 L 60 46.188 L 40 57.735 L 20 46.188 L 40 34.641 Z " fill="rgb(209,209,209)" mask="url(#_mask_ed39vmRBvQSdoYSfcRbUyHTcsumcvwE8)" vector-effect="non-scaling-stroke" stroke-width="2" stroke="rgb(0,0,0)" stroke-linejoin="round" stroke-linecap="round" stroke-miterlimit="3"/><mask id="_mask_skPQtfOrusLDjPKFlIw43f54EBLxRqxB"><path d=" M 60 23.094 L 80 34.641 L 60 46.188 L 40 34.641 L 60 23.094 Z " fill="white" stroke="none"/></mask><path d=" M 60 23.094 L 80 34.641 L 60 46.188 L 40 34.641 L 60 23.094 Z " fill="rgb(255,255,255)"/><path d=" M 60 23.094 L 80 34.641 L 60 46.188 L 40 34.641 L 60 23.094 Z " fill="rgb(255,255,255)" mask="url(#_mask_skPQtfOrusLDjPKFlIw43f54EBLxRqxB)" vector-effect="non-scaling-stroke" stroke-width="2" stroke="rgb(0,0,0)" stroke-linejoin="round" stroke-linecap="round" stroke-miterlimit="3"/><mask id="_mask_LNpA4KmJzHTdDo8oOdHaDKcd2TBYi4vR"><path d=" M 80 11.547 L 100 23.094 L 80 34.641 L 60 23.094 L 80 11.547 Z " fill="white" stroke="none"/></mask><path d=" M 80 11.547 L 100 23.094 L 80 34.641 L 60 23.094 L 80 11.547 Z " fill="rgb(255,255,255)"/><path d=" M 80 11.547 L 100 23.094 L 80 34.641 L 60 23.094 L 80 11.547 Z " fill="rgb(255,255,255)" mask="url(#_mask_LNpA4KmJzHTdDo8oOdHaDKcd2TBYi4vR)" vector-effect="non-scaling-stroke" stroke-width="2" stroke="rgb(0,0,0)" stroke-linejoin="round" stroke-linecap="round" stroke-miterlimit="3"/><mask id="_mask_J1Zif9Ya4ce3bIlDzRMS1PFzkXbOjOFD"><path d=" M 20 23.094 L 40 34.641 L 20 46.188 L 0 34.641 L 20 23.094 Z " fill="white" stroke="none"/></mask><path d=" M 20 23.094 L 40 34.641 L 20 46.188 L 0 34.641 L 20 23.094 Z " fill="rgb(209,209,209)"/><path d=" M 20 23.094 L 40 34.641 L 20 46.188 L 0 34.641 L 20 23.094 Z " fill="rgb(209,209,209)" mask="url(#_mask_J1Zif9Ya4ce3bIlDzRMS1PFzkXbOjOFD)" vector-effect="non-scaling-stroke" stroke-width="2" stroke="rgb(0,0,0)" stroke-linejoin="round" stroke-linecap="round" stroke-miterlimit="3"/><mask id="_mask_X1G1wwLPylwD41THAYKmOVdi6tNmP4OQ"><path d=" M 40 11.547 L 60 23.094 L 40 34.641 L 20 23.094 L 40 11.547 Z " fill="white" stroke="none"/></mask><path d=" M 40 11.547 L 60 23.094 L 40 34.641 L 20 23.094 L 40 11.547 Z " fill="rgb(255,255,255)"/><path d=" M 40 11.547 L 60 23.094 L 40 34.641 L 20 23.094 L 40 11.547 Z " fill="rgb(255,255,255)" mask="url(#_mask_X1G1wwLPylwD41THAYKmOVdi6tNmP4OQ)" vector-effect="non-scaling-stroke" stroke-width="2" stroke="rgb(0,0,0)" stroke-linejoin="round" stroke-linecap="round" stroke-miterlimit="3"/><mask id="_mask_Mktd0Kdcdi3vEde0VvdjbUJ9r3Ha1Iow"><path d=" M 60 0 L 80 11.547 L 60 23.094 L 40 11.547 L 60 0 Z " fill="white" stroke="none"/></mask><path d=" M 60 0 L 80 11.547 L 60 23.094 L 40 11.547 L 60 0 Z " fill="rgb(255,255,255)"/><path d=" M 60 0 L 80 11.547 L 60 23.094 L 40 11.547 L 60 0 Z " fill="rgb(255,255,255)" mask="url(#_mask_Mktd0Kdcdi3vEde0VvdjbUJ9r3Ha1Iow)" vector-effect="non-scaling-stroke" stroke-width="2" stroke="rgb(0,0,0)" stroke-linejoin="round" stroke-linecap="round" stroke-miterlimit="3"/><mask id="_mask_ktMMz0PoZ6q5yrX5LrIfgOF8FTKZqvZM"><path d=" M 100 69.282 L 100 46.188 L 80 57.735 L 80 80.829 L 100 69.282 Z " fill="white" stroke="none"/></mask><path d=" M 100 69.282 L 100 46.188 L 80 57.735 L 80 80.829 L 100 69.282 Z " fill="rgb(255,255,255)"/><path d=" M 100 69.282 L 100 46.188 L 80 57.735 L 80 80.829 L 100 69.282 Z " fill="rgb(255,255,255)" mask="url(#_mask_ktMMz0PoZ6q5yrX5LrIfgOF8FTKZqvZM)" vector-effect="non-scaling-stroke" stroke-width="2" stroke="rgb(0,0,0)" stroke-linejoin="round" stroke-linecap="round" stroke-miterlimit="3"/><mask id="_mask_jE8gdyxROnwIXZ5LweRGpOwDhDQ8b5dq"><path d=" M 120 57.735 L 120 34.641 L 100 46.188 L 100 69.282 L 120 57.735 Z " fill="white" stroke="none"/></mask><path d=" M 120 57.735 L 120 34.641 L 100 46.188 L 100 69.282 L 120 57.735 Z " fill="rgb(255,255,255)"/><path d=" M 120 57.735 L 120 34.641 L 100 46.188 L 100 69.282 L 120 57.735 Z " fill="rgb(255,255,255)" mask="url(#_mask_jE8gdyxROnwIXZ5LweRGpOwDhDQ8b5dq)" vector-effect="non-scaling-stroke" stroke-width="2" stroke="rgb(0,0,0)" stroke-linejoin="round" stroke-linecap="round" stroke-miterlimit="3"/><mask id="_mask_f1FjmrgglfTNVZmavgY5lC1kvjvLoObk"><path d=" M 80 103.923 L 80 80.829 L 60 92.376 L 60 115.47 L 80 103.923 Z " fill="white" stroke="none"/></mask><path d=" M 80 103.923 L 80 80.829 L 60 92.376 L 60 115.47 L 80 103.923 Z " fill="rgb(209,209,209)"/><path d=" M 80 103.923 L 80 80.829 L 60 92.376 L 60 115.47 L 80 103.923 Z " fill="rgb(209,209,209)" mask="url(#_mask_f1FjmrgglfTNVZmavgY5lC1kvjvLoObk)" vector-effect="non-scaling-stroke" stroke-width="2" stroke="rgb(0,0,0)" stroke-linejoin="round" stroke-linecap="round" stroke-miterlimit="3"/><mask id="_mask_I4PZf2obNvtIjf3w0943e9bytizwec1j"><path d=" M 100 92.376 L 100 69.282 L 80 80.829 L 80 103.923 L 100 92.376 Z " fill="white" stroke="none"/></mask><path d=" M 100 92.376 L 100 69.282 L 80 80.829 L 80 103.923 L 100 92.376 Z " fill="rgb(255,255,255)"/><path d=" M 100 92.376 L 100 69.282 L 80 80.829 L 80 103.923 L 100 92.376 Z " fill="rgb(255,255,255)" mask="url(#_mask_I4PZf2obNvtIjf3w0943e9bytizwec1j)" vector-effect="non-scaling-stroke" stroke-width="2" stroke="rgb(0,0,0)" stroke-linejoin="round" stroke-linecap="round" stroke-miterlimit="3"/><mask id="_mask_Gp9eauZa2bDWMg6hXjhF4Hj3iSyzKknM"><path d=" M 120 80.829 L 120 57.735 L 100 69.282 L 100 92.376 L 120 80.829 Z " fill="white" stroke="none"/></mask><path d=" M 120 80.829 L 120 57.735 L 100 69.282 L 100 92.376 L 120 80.829 Z " fill="rgb(255,255,255)"/><path d=" M 120 80.829 L 120 57.735 L 100 69.282 L 100 92.376 L 120 80.829 Z " fill="rgb(255,255,255)" mask="url(#_mask_Gp9eauZa2bDWMg6hXjhF4Hj3iSyzKknM)" vector-effect="non-scaling-stroke" stroke-width="2" stroke="rgb(0,0,0)" stroke-linejoin="round" stroke-linecap="round" stroke-miterlimit="3"/><mask id="_mask_N0LlRNougslgLoPPsCi430Uxd0ZnKmoL"><path d=" M 80 127.017 L 80 103.923 L 60 115.47 L 60 138.564 L 80 127.017 Z " fill="white" stroke="none"/></mask><path d=" M 80 127.017 L 80 103.923 L 60 115.47 L 60 138.564 L 80 127.017 Z " fill="rgb(209,209,209)"/><path d=" M 80 127.017 L 80 103.923 L 60 115.47 L 60 138.564 L 80 127.017 Z " fill="rgb(209,209,209)" mask="url(#_mask_N0LlRNougslgLoPPsCi430Uxd0ZnKmoL)" vector-effect="non-scaling-stroke" stroke-width="2" stroke="rgb(0,0,0)" stroke-linejoin="round" stroke-linecap="round" stroke-miterlimit="3"/><mask id="_mask_UkEiwdZoq2rs7sOO8QTL2eorgNRJMmzr"><path d=" M 100 115.47 L 100 92.376 L 80 103.923 L 80 127.017 L 100 115.47 Z " fill="white" stroke="none"/></mask><path d=" M 100 115.47 L 100 92.376 L 80 103.923 L 80 127.017 L 100 115.47 Z " fill="rgb(255,255,255)"/><path d=" M 100 115.47 L 100 92.376 L 80 103.923 L 80 127.017 L 100 115.47 Z " fill="rgb(255,255,255)" mask="url(#_mask_UkEiwdZoq2rs7sOO8QTL2eorgNRJMmzr)" vector-effect="non-scaling-stroke" stroke-width="2" stroke="rgb(0,0,0)" stroke-linejoin="round" stroke-linecap="round" stroke-miterlimit="3"/><mask id="_mask_YXn45Wb8bsxAuuaSaImDI17BgKYYmpOi"><path d=" M 120 103.923 L 120 80.829 L 100 92.376 L 100 115.47 L 120 103.923 Z " fill="white" stroke="none"/></mask><path d=" M 120 103.923 L 120 80.829 L 100 92.376 L 100 115.47 L 120 103.923 Z " fill="rgb(255,255,255)"/><path d=" M 120 103.923 L 120 80.829 L 100 92.376 L 100 115.47 L 120 103.923 Z " fill="rgb(255,255,255)" mask="url(#_mask_YXn45Wb8bsxAuuaSaImDI17BgKYYmpOi)" vector-effect="non-scaling-stroke" stroke-width="2" stroke="rgb(0,0,0)" stroke-linejoin="round" stroke-linecap="round" stroke-miterlimit="3"/><mask id="_mask_1RyzD6MDyR1BEh7t1wgwdxNiSEIwZFJP"><path d=" M 20 115.47 L 20 92.376 L 40 103.923 L 40 127.017 L 20 115.47 Z " fill="white" stroke="none"/></mask><path d=" M 20 115.47 L 20 92.376 L 40 103.923 L 40 127.017 L 20 115.47 Z " fill="rgb(209,209,209)"/><path d=" M 20 115.47 L 20 92.376 L 40 103.923 L 40 127.017 L 20 115.47 Z " fill="rgb(209,209,209)" mask="url(#_mask_1RyzD6MDyR1BEh7t1wgwdxNiSEIwZFJP)" vector-effect="non-scaling-stroke" stroke-width="2" stroke="rgb(0,0,0)" stroke-linejoin="round" stroke-linecap="round" stroke-miterlimit="3"/><mask id="_mask_hX6WaGXQGCq3202F1DWBZCf1m1aAUta0"><path d=" M 20 92.376 L 20 69.282 L 40 80.829 L 40 103.923 L 20 92.376 Z " fill="white" stroke="none"/></mask><path d=" M 20 92.376 L 20 69.282 L 40 80.829 L 40 103.923 L 20 92.376 Z " fill="rgb(209,209,209)"/><path d=" M 20 92.376 L 20 69.282 L 40 80.829 L 40 103.923 L 20 92.376 Z " fill="rgb(209,209,209)" mask="url(#_mask_hX6WaGXQGCq3202F1DWBZCf1m1aAUta0)" vector-effect="non-scaling-stroke" stroke-width="2" stroke="rgb(0,0,0)" stroke-linejoin="round" stroke-linecap="round" stroke-miterlimit="3"/><mask id="_mask_T129GWKJk5yg2JVvxv53KdojgTnoXyZb"><path d=" M 20 69.282 L 20 46.188 L 40 57.735 L 40 80.829 L 20 69.282 Z " fill="white" stroke="none"/></mask><path d=" M 20 69.282 L 20 46.188 L 40 57.735 L 40 80.829 L 20 69.282 Z " fill="rgb(209,209,209)"/><path d=" M 20 69.282 L 20 46.188 L 40 57.735 L 40 80.829 L 20 69.282 Z " fill="rgb(209,209,209)" mask="url(#_mask_T129GWKJk5yg2JVvxv53KdojgTnoXyZb)" vector-effect="non-scaling-stroke" stroke-width="2" stroke="rgb(0,0,0)" stroke-linejoin="round" stroke-linecap="round" stroke-miterlimit="3"/><mask id="_mask_1GOozV1BVtrs6rKhWFLDwnoAWcXxB8ON"><path d=" M 0 103.923 L 0 80.829 L 20 92.376 L 20 115.47 L 0 103.923 Z " fill="white" stroke="none"/></mask><path d=" M 0 103.923 L 0 80.829 L 20 92.376 L 20 115.47 L 0 103.923 Z " fill="rgb(209,209,209)"/><path d=" M 0 103.923 L 0 80.829 L 20 92.376 L 20 115.47 L 0 103.923 Z " fill="rgb(209,209,209)" mask="url(#_mask_1GOozV1BVtrs6rKhWFLDwnoAWcXxB8ON)" vector-effect="non-scaling-stroke" stroke-width="2" stroke="rgb(0,0,0)" stroke-linejoin="round" stroke-linecap="round" stroke-miterlimit="3"/><mask id="_mask_NsGboOPu2ts5CEK57iuNpuevAcCRfdW7"><path d=" M 0 80.829 L 0 57.735 L 20 69.282 L 20 92.376 L 0 80.829 Z " fill="white" stroke="none"/></mask><path d=" M 0 80.829 L 0 57.735 L 20 69.282 L 20 92.376 L 0 80.829 Z " fill="rgb(209,209,209)"/><path d=" M 0 80.829 L 0 57.735 L 20 69.282 L 20 92.376 L 0 80.829 Z " fill="rgb(209,209,209)" mask="url(#_mask_NsGboOPu2ts5CEK57iuNpuevAcCRfdW7)" vector-effect="non-scaling-stroke" stroke-width="2" stroke="rgb(0,0,0)" stroke-linejoin="round" stroke-linecap="round" stroke-miterlimit="3"/><mask id="_mask_Iu6mM98Qg3XaGSvYqrhu3uuGa8baEsck"><path d=" M 0 57.735 L 0 34.641 L 20 46.188 L 20 69.282 L 0 57.735 Z " fill="white" stroke="none"/></mask><path d=" M 0 57.735 L 0 34.641 L 20 46.188 L 20 69.282 L 0 57.735 Z " fill="rgb(209,209,209)"/><path d=" M 0 57.735 L 0 34.641 L 20 46.188 L 20 69.282 L 0 57.735 Z " fill="rgb(209,209,209)" mask="url(#_mask_Iu6mM98Qg3XaGSvYqrhu3uuGa8baEsck)" vector-effect="non-scaling-stroke" stroke-width="2" stroke="rgb(0,0,0)" stroke-linejoin="round" stroke-linecap="round" stroke-miterlimit="3"/><path d=" M 0 103.923 L 0 34.641 L 60 0 L 120 34.641 L 120 103.923 L 60 138.564 L 0 103.923 Z " fill="none" vector-effect="non-scaling-stroke" stroke-width="2" stroke="rgb(0,0,0)" stroke-linejoin="round" stroke-linecap="round" stroke-miterlimit="3"/><line x1="70" y1="75.056" x2="70" y2="121.244" vector-effect="non-scaling-stroke" stroke-width="5" stroke="rgb(153,0,255)" stroke-linejoin="miter" stroke-linecap="square" stroke-miterlimit="3"/><path d=" M 64.41 117.587 L 70 128.768 L 75.59 117.587 Z " fill="rgb(153,0,255)" stroke="none"/></g></svg>