<?xml version="1.0" encoding="UTF-8" standalone="no"?><!-- Generator: Gravit.io --><svg xmlns="http://www.w3.org/2000/svg" xmlns:xlink="http://www.w3.org/1999/xlink" style="isolation:isolate" viewBox="-1 -1 122 140.564" width="122pt" height="140.564pt"><defs><clipPath id="_clipPath_nv2BDiJbJHkRs1BbOI8eq23QM3n7kK0t"><rect x="-1" y="-1" width="122" height="140.564"/></clipPath></defs><g clip-path="url(#_clipPath_nv2BDiJbJHkRs1BbOI8eq23QM3n7kK0t)"><mask id="_mask_Ln94sN2hhYF263XedgwzseHtgRS39WQv"><path d=" M 120 57.735 L 100 69.282 L 100 46.188 L 120 34.641 L 120 57.735 Z " fill="white" stroke="none"/></mask><path d=" M 120 57.735 L 100 69.282 L 100 46.188 L 120 34.641 L 120 57.735 Z " fill="rgb(255,255,255)"/><path d=" M 120 57.735 L 100 69.282 L 100 46.188 L 120 34.641 L 120 57.735 Z " fill="rgb(255,255,255)" mask="url(#_mask_Ln94sN2hhYF263XedgwzseHtgRS39WQv)" vector-effect="non-scaling-stroke" stroke-width="2" stroke="rgb(0,0,0)" stroke-linejoin="round" stroke-linecap="round" stroke-miterlimit="3"/><mask id="_mask_Rqt5ZkXnPDZtzTgVNIPTsbBWXmLKgdQh"><path d=" M 100 69.282 L 80 80.829 L 80 57.735 L 100 46.188 L 100 69.282 Z " fill="white" stroke="none"/></mask><path d=" M 100 69.282 L 80 80.829 L 80 57.735 L 100 46.188 L 100 69.282 Z " fill="rgb(255,255,255)"/><path d=" M 100 69.282 L 80 80.829 L 80 57.735 L 100 46.188 L 100 69.282 Z " fill="rgb(255,255,255)" mask="url(#_mask_Rqt5ZkXnPDZtzTgVNIPTsbBWXmLKgdQh)" vector-effect="non-scaling-stroke" stroke-width="2" stroke="rgb(0,0,0)" stroke-linejoin="round" stroke-linecap="round" stroke-miterlimit="3"/><mask id="_mask_IMvO3bCUE9PWqgp1Jhji82zf9RSpLbq8"><path d=" M 80 80.829 L 60 92.376 L 60 69.282 L 80 57.735 L 80 80.829 Z " fill="white" stroke="none"/></mask><path d=" M 80 80.829 L 60 92.376 L 60 69.282 L 80 57.735 L 80 80.829 Z " fill="rgb(255,255,255)"/><path d=" M 80 80.829 L 60 92.376 L 60 69.282 L 80 57.735 L 80 80.829 Z " fill="rgb(255,255,255)" mask="url(#_mask_IMvO3bCUE9PWqgp1Jhji82zf9RSpLbq8)" vector-effect="non-scaling-stroke" stroke-width="2" stroke="rgb(0,0,0)" stroke-linejoin="round" stroke-linecap="round" stroke-miterlimit="3"/><mask id="_mask_1Paj2I7ouB4HwA09v2AyEojRgE0pr3YN"><path d=" M 60 46.188 L 40 57.735 L 60 69.282 L 80 57.735 L 60 46.188 Z " fill="white" stroke="none"/></mask><path d=" M 60 46.188 L 40 57.735 L 60 69.282 L 80 57.735 L 60 46.188 Z " fill="rgb(255,255,255)"/><path d=" M 60 46.188 L 40 57.735 L 60 69.282 L 80 57.735 L 60 46.188 Z " fill="rgb(255,255,255)" mask="url(#_mask_1Paj2I7ouB4HwA09v2AyEojRgE0pr3YN)" vector-effect="non-scaling-stroke" stroke-width="2" stroke="rgb(0,0,0)" stroke-linejoin="round" stroke-linecap="round" stroke-miterlimit="3"/><mask id="_mask_dOwlneIuPJJsgQyTpXSNyurtehJBDVXY"><path d=" M 40 80.829 L 40 57.735 L 60 69.282 L 60 92.376 L 40 80.829 Z " fill="white" stroke="none"/></mask><path d=" M 40 80.829 L 40 57.735 L 60 69.282 L 60 92.376 L 40 80.829 Z " fill="rgb(255,255,255)"/><path d=" M 40 80.829 L 40 57.735 L 60 69.282 L 60 92.376 L 40 80.829 Z " fill="rgb(255,255,255)" mask="url(#_mask_dOwlneIuPJJsgQyTpXSNyurtehJBDVXY)" vector-effect="non-scaling-stroke" stroke-width="2" stroke="rgb(0,0,0)" stroke-linejoin="round" stroke-linecap="round" stroke-miterlimit="3"/><mask id="_mask_Qu5Yu1iG61fdOMDHuOUySPlrVEATLAHu"><path d=" M 20 69.282 L 20 46.188 L 40 57.735 L 40 80.829 L 20 69.282 Z " fill="white" stroke="none"/></mask><path d=" M 20 69.282 L 20 46.188 L 40 57.735 L 40 80.829 L 20 69.282 Z " fill="rgb(255,255,255)"/><path d=" M 20 69.282 L 20 46.188 L 40 57.735 L 40 80.829 L 20 69.282 Z " fill="rgb(255,255,255)" mask="url(#_mask_Qu5Yu1iG61fdOMDHuOUySPlrVEATLAHu)" vector-effect="non-scaling-stroke" stroke-width="2" stroke="rgb(0,0,0)" stroke-linejoin="round" stroke-linecap="round" stroke-miterlimit="3"/><mask id="_mask_Y6mo1d2XqhNLHQTgtsknoKRVyvQjzbmn"><path d=" M 0 57.735 L 0 34.641 L 20 46.188 L 20 69.282 L 0 57.735 Z " fill="white" stroke="none"/></mask><path d=" M 0 57.735 L 0 34.641 L 20 46.188 L 20 69.282 L 0 57.735 Z " fill="rgb(209,209,209)"/><path d=" M 0 57.735 L 0 34.641 L 20 46.188 L 20 69.282 L 0 57.735 Z " fill="rgb(209,209,209)" mask="url(#_mask_Y6mo1d2XqhNLHQTgtsknoKRVyvQjzbmn)" vector-effect="non-scaling-stroke" stroke-width="2" stroke="rgb(0,0,0)" stroke-linejoin="round" stroke-linecap="round" stroke-miterlimit="3"/><mask id="_mask_49f32GHEuMK4dahgo0wgnFUHKpocs2js"><path d=" M 40 103.923 L 40 80.829 L 60 92.376 L 60 115.47 L 40 103.923 Z " fill="white" stroke="none"/></mask><path d=" M 40 103.923 L 40 80.829 L 60 92.376 L 60 115.47 L 40 103.923 Z " fill="rgb(255,255,255)"/><path d=" M 40 103.923 L 40 80.829 L 60 92.376 L 60 115.47 L 40 103.923 Z " fill="rgb(255,255,255)" mask="url(#_mask_49f32GHEuMK4dahgo0wgnFUHKpocs2js)" vector-effect="non-scaling-stroke" stroke-width="2" stroke="rgb(0,0,0)" stroke-linejoin="round" stroke-linecap="round" stroke-miterlimit="3"/><mask id="_mask_2EP94utLiNmWDRmJe1yzA4EMjKu9RzmZ"><path d=" M 20 92.376 L 20 69.282 L 40 80.829 L 40 103.923 L 20 92.376 Z " fill="white" stroke="none"/></mask><path d=" M 20 92.376 L 20 69.282 L 40 80.829 L 40 103.923 L 20 92.376 Z " fill="rgb(255,255,255)"/><path d=" M 20 92.376 L 20 69.282 L 40 80.829 L 40 103.923 L 20 92.376 Z " fill="rgb(255,255,255)" mask="url(#_mask_2EP94utLiNmWDRmJe1yzA4EMjKu9RzmZ)" vector-effect="non-scaling-stroke" stroke-width="2" stroke="rgb(0,0,0)" stroke-linejoin="round" stroke-linecap="round" stroke-miterlimit="3"/><mask id="_mask_dce6Wd600AG9ip9ROSY1lv37EC5v16JQ"><path d=" M 0 80.829 L 0 57.735 L 20 69.282 L 20 92.376 L 0 80.829 Z " fill="white" stroke="none"/></mask><path d=" M 0 80.829 L 0 57.735 L 20 69.282 L 20 92.376 L 0 80.829 Z " fill="rgb(209,209,209)"/><path d=" M 0 80.829 L 0 57.735 L 20 69.282 L 20 92.376 L 0 80.829 Z " fill="rgb(209,209,209)" mask="url(#_mask_dce6Wd600AG9ip9ROSY1lv37EC5v16JQ)" vector-effect="non-scaling-stroke" stroke-width="2" stroke="rgb(0,0,0)" stroke-linejoin="round" stroke-linecap="round" stroke-miterlimit="3"/><mask id="_mask_GHD9EE6Th2NWBVpdRAuh96dT0NSjrbvT"><path d=" M 40 127.017 L 40 103.923 L 60 115.47 L 60 138.564 L 40 127.017 Z " fill="white" stroke="none"/></mask><path d=" M 40 127.017 L 40 103.923 L 60 115.47 L 60 138.564 L 40 127.017 Z " fill="rgb(255,255,255)"/><path d=" M 40 127.017 L 40 103.923 L 60 115.47 L 60 138.564 L 40 127.017 Z " fill="rgb(255,255,255)" mask="url(#_mask_GHD9EE6Th2NWBVpdRAuh96dT0NSjrbvT)" vector-effect="non-scaling-stroke" stroke-width="2" stroke="rgb(0,0,0)" stroke-linejoin="round" stroke-linecap="round" stroke-miterlimit="3"/><mask id="_mask_UDKpxpQX6GsF9bOBR9031pN3NiBbWuyJ"><path d=" M 20 115.47 L 20 92.376 L 40 103.923 L 40 127.017 L 20 115.47 Z " fill="white" stroke="none"/></mask><path d=" M 20 115.47 L 20 92.376 L 40 103.923 L 40 127.017 L 20 115.47 Z " fill="rgb(255,255,255)"/><path d=" M 20 115.47 L 20 92.376 L 40 103.923 L 40 127.017 L 20 115.47 Z " fill="rgb(255,255,255)" mask="url(#_mask_UDKpxpQX6GsF9bOBR9031pN3NiBbWuyJ)" vector-effect="non-scaling-stroke" stroke-width="2" stroke="rgb(0,0,0)" stroke-linejoin="round" stroke-linecap="round" stroke-miterlimit="3"/><mask id="_mask_hSik7BcdrYxu5uEJaOrltvSsvFpclXsC"><path d=" M 0 103.923 L 0 80.829 L 20 92.376 L 20 115.47 L 0 103.923 Z " fill="white" stroke="none"/></mask><path d=" M 0 103.923 L 0 80.829 L 20 92.376 L 20 115.47 L 0 103.923 Z " fill="rgb(209,209,209)"/><path d=" M 0 103.923 L 0 80.829 L 20 92.376 L 20 115.47 L 0 103.923 Z " fill="rgb(209,209,209)" mask="url(#_mask_hSik7BcdrYxu5uEJaOrltvSsvFpclXsC)" vector-effect="non-scaling-stroke" stroke-width="2" stroke="rgb(0,0,0)" stroke-linejoin="round" stroke-linecap="round" stroke-miterlimit="3"/><mask id="_mask_8Nc1qThPWSp4n1rkhp9dpDGB67iT4ye5"><path d=" M 40 34.641 L 20 46.188 L 40 57.735 L 60 46.188 L 40 34.641 Z " fill="white" stroke="none"/></mask><path d=" M 40 34.641 L 20 46.188 L 40 57.735 L 60 46.188 L 40 34.641 Z " fill="rgb(255,255,255)"/><path d=" M 40 34.641 L 20 46.188 L 40 57.735 L 60 46.188 L 40 34.641 Z " fill="rgb(255,255,255)" mask="url(#_mask_8Nc1qThPWSp4n1rkhp9dpDGB67iT4ye5)" vector-effect="non-scaling-stroke" stroke-width="2" stroke="rgb(0,0,0)" stroke-linejoin="round" stroke-linecap="round" stroke-miterlimit="3"/><mask id="_mask_e72WaJDG9cRQzJhRbRIHhkwM7iztlMzz"><path d=" M 20 23.094 L 0 34.641 L 20 46.188 L 40 34.641 L 20 23.094 Z " fill="white" stroke="none"/></mask><path d=" M 20 23.094 L 0 34.641 L 20 46.188 L 40 34.641 L 20 23.094 Z " fill="rgb(209,209,209)"/><path d=" M 20 23.094 L 0 34.641 L 20 46.188 L 40 34.641 L 20 23.094 Z " fill="rgb(209,209,209)" mask="url(#_mask_e72WaJDG9cRQzJhRbRIHhkwM7iztlMzz)" vector-effect="non-scaling-stroke" stroke-width="2" stroke="rgb(0,0,0)" stroke-linejoin="round" stroke-linecap="round" stroke-miterlimit="3"/><mask id="_mask_PjDSF65AzA3xJQjMwoMAFVfI6s67Y400"><path d=" M 80 34.641 L 60 46.188 L 80 57.735 L 100 46.188 L 80 34.641 Z " fill="white" stroke="none"/></mask><path d=" M 80 34.641 L 60 46.188 L 80 57.735 L 100 46.188 L 80 34.641 Z " fill="rgb(255,255,255)"/><path d=" M 80 34.641 L 60 46.188 L 80 57.735 L 100 46.188 L 80 34.641 Z " fill="rgb(255,255,255)" mask="url(#_mask_PjDSF65AzA3xJQjMwoMAFVfI6s67Y400)" vector-effect="non-scaling-stroke" stroke-width="2" stroke="rgb(0,0,0)" stroke-linejoin="round" stroke-linecap="round" stroke-miterlimit="3"/><mask id="_mask_ans7NBtbY3E9WCOhQ0oDTaqU0ffMbGeb"><path d=" M 60 23.094 L 40 34.641 L 60 46.188 L 80 34.641 L 60 23.094 Z " fill="white" stroke="none"/></mask><path d=" M 60 23.094 L 40 34.641 L 60 46.188 L 80 34.641 L 60 23.094 Z " fill="rgb(255,255,255)"/><path d=" M 60 23.094 L 40 34.641 L 60 46.188 L 80 34.641 L 60 23.094 Z " fill="rgb(255,255,255)" mask="url(#_mask_ans7NBtbY3E9WCOhQ0oDTaqU0ffMbGeb)" vector-effect="non-scaling-stroke" stroke-width="2" stroke="rgb(0,0,0)" stroke-linejoin="round" stroke-linecap="round" stroke-miterlimit="3"/><mask id="_mask_53rkAlgcbuCoU4vicLPA7isifDQuu1sL"><path d=" M 40 11.547 L 20 23.094 L 40 34.641 L 60 23.094 L 40 11.547 Z " fill="white" stroke="none"/></mask><path d=" M 40 11.547 L 20 23.094 L 40 34.641 L 60 23.094 L 40 11.547 Z " fill="rgb(209,209,209)"/><path d=" M 40 11.547 L 20 23.094 L 40 34.641 L 60 23.094 L 40 11.547 Z " fill="rgb(209,209,209)" mask="url(#_mask_53rkAlgcbuCoU4vicLPA7isifDQuu1sL)" vector-effect="non-scaling-stroke" stroke-width="2" stroke="rgb(0,0,0)" stroke-linejoin="round" stroke-linecap="round" stroke-miterlimit="3"/><mask id="_mask_fDll28J5NmFFyJQsxDHo3oLKmYamhNV2"><path d=" M 100 23.094 L 80 34.641 L 100 46.188 L 120 34.641 L 100 23.094 Z " fill="white" stroke="none"/></mask><path d=" M 100 23.094 L 80 34.641 L 100 46.188 L 120 34.641 L 100 23.094 Z " fill="rgb(255,255,255)"/><path d=" M 100 23.094 L 80 34.641 L 100 46.188 L 120 34.641 L 100 23.094 Z " fill="rgb(255,255,255)" mask="url(#_mask_fDll28J5NmFFyJQsxDHo3oLKmYamhNV2)" vector-effect="non-scaling-stroke" stroke-width="2" stroke="rgb(0,0,0)" stroke-linejoin="round" stroke-linecap="round" stroke-miterlimit="3"/><mask id="_mask_2eLYHskE2xM2f9UffiCliCkxxEQ0FDZN"><path d=" M 80 11.547 L 60 23.094 L 80 34.641 L 100 23.094 L 80 11.547 Z " fill="white" stroke="none"/></mask><path d=" M 80 11.547 L 60 23.094 L 80 34.641 L 100 23.094 L 80 11.547 Z " fill="rgb(255,255,255)"/><path d=" M 80 11.547 L 60 23.094 L 80 34.641 L 100 23.094 L 80 11.547 Z " fill="rgb(255,255,255)" mask="url(#_mask_2eLYHskE2xM2f9UffiCliCkxxEQ0FDZN)" vector-effect="non-scaling-stroke" stroke-width="2" stroke="rgb(0,0,0)" stroke-linejoin="round" stroke-linecap="round" stroke-miterlimit="3"/><mask id="_mask_T2A3zz1NRDz34RplCo1AHUc5845bH0Kc"><path d=" M 60 0 L 40 11.547 L 60 23.094 L 80 11.547 L 60 0 Z " fill="white" stroke="none"/></mask><path d=" M 60 0 L 40 11.547 L 60 23.094 L 80 11.547 L 60 0 Z " fill="rgb(209,209,209)"/><path d=" M 60 0 L 40 11.547 L 60 23.094 L 80 11.547 L 60 0 Z " fill="rgb(209,209,209)" mask="url(#_mask_T2A3zz1NRDz34RplCo1AHUc5845bH0Kc)" vector-effect="non-scaling-stroke" stroke-width="2" stroke="rgb(0,0,0)" stroke-linejoin="round" stroke-linecap="round" stroke-miterlimit="3"/><mask id="_mask_HYua6eDRg6ktaOVEXX9aeJqFzBvr26Rt"><path d=" M 120 80.829 L 100 92.376 L 100 69.282 L 120 57.735 L 120 80.829 Z " fill="white" stroke="none"/></mask><path d=" M 120 80.829 L 100 92.376 L 100 69.282 L 120 57.735 L 120 80.829 Z " fill="rgb(255,255,255)"/><path d=" M 120 80.829 L 100 92.376 L 100 69.282 L 120 57.735 L 120 80.829 Z " fill="rgb(255,255,255)" mask="url(#_mask_HYua6eDRg6ktaOVEXX9aeJqFzBvr26Rt)" vector-effect="non-scaling-stroke" stroke-width="2" stroke="rgb(0,0,0)" stroke-linejoin="round" stroke-linecap="round" stroke-miterlimit="3"/><mask id="_mask_Mz521O7xIb9OBFNZYZPxe23skaAL24a7"><path d=" M 100 92.376 L 80 103.923 L 80 80.829 L 100 69.282 L 100 92.376 Z " fill="white" stroke="none"/></mask><path d=" M 100 92.376 L 80 103.923 L 80 80.829 L 100 69.282 L 100 92.376 Z " fill="rgb(255,255,255)"/><path d=" M 100 92.376 L 80 103.923 L 80 80.829 L 100 69.282 L 100 92.376 Z " fill="rgb(255,255,255)" mask="url(#_mask_Mz521O7xIb9OBFNZYZPxe23skaAL24a7)" vector-effect="non-scaling-stroke" stroke-width="2" stroke="rgb(0,0,0)" stroke-linejoin="round" stroke-linecap="round" stroke-miterlimit="3"/><mask id="_mask_RdkqW10lxf2KVZGbYsxfXFSqIVb1njwY"><path d=" M 80 103.923 L 60 115.47 L 60 92.376 L 80 80.829 L 80 103.923 Z " fill="white" stroke="none"/></mask><path d=" M 80 103.923 L 60 115.47 L 60 92.376 L 80 80.829 L 80 103.923 Z " fill="rgb(255,255,255)"/><path d=" M 80 103.923 L 60 115.47 L 60 92.376 L 80 80.829 L 80 103.923 Z " fill="rgb(255,255,255)" mask="url(#_mask_RdkqW10lxf2KVZGbYsxfXFSqIVb1njwY)" vector-effect="non-scaling-stroke" stroke-width="2" stroke="rgb(0,0,0)" stroke-linejoin="round" stroke-linecap="round" stroke-miterlimit="3"/><mask id="_mask_LZD2XCtg2FLbm7sdKjdmJ9YKanwPXor0"><path d=" M 120 103.923 L 100 115.47 L 100 92.376 L 120 80.829 L 120 103.923 Z " fill="white" stroke="none"/></mask><path d=" M 120 103.923 L 100 115.47 L 100 92.376 L 120 80.829 L 120 103.923 Z " fill="rgb(255,255,255)"/><path d=" M 120 103.923 L 100 115.47 L 100 92.376 L 120 80.829 L 120 103.923 Z " fill="rgb(255,255,255)" mask="url(#_mask_LZD2XCtg2FLbm7sdKjdmJ9YKanwPXor0)" vector-effect="non-scaling-stroke" stroke-width="2" stroke="rgb(0,0,0)" stroke-linejoin="round" stroke-linecap="round" stroke-miterlimit="3"/><mask id="_mask_ajHaYGKr253hnUH511vzsopnljigxfXf"><path d=" M 100 115.47 L 80 127.017 L 80 103.923 L 100 92.376 L 100 115.47 Z " fill="white" stroke="none"/></mask><path d=" M 100 115.47 L 80 127.017 L 80 103.923 L 100 92.376 L 100 115.47 Z " fill="rgb(255,255,255)"/><path d=" M 100 115.47 L 80 127.017 L 80 103.923 L 100 92.376 L 100 115.47 Z " fill="rgb(255,255,255)" mask="url(#_mask_ajHaYGKr253hnUH511vzsopnljigxfXf)" vector-effect="non-scaling-stroke" stroke-width="2" stroke="rgb(0,0,0)" stroke-linejoin="round" stroke-linecap="round" stroke-miterlimit="3"/><mask id="_mask_bw8yXAaKOHTrBtlfSnu0XKwvIsHQqeL0"><path d=" M 80 127.017 L 60 138.564 L 60 115.47 L 80 103.923 L 80 127.017 Z " fill="white" stroke="none"/></mask><path d=" M 80 127.017 L 60 138.564 L 60 115.47 L 80 103.923 L 80 127.017 Z " fill="rgb(255,255,255)"/><path d=" M 80 127.017 L 60 138.564 L 60 115.47 L 80 103.923 L 80 127.017 Z " fill="rgb(255,255,255)" mask="url(#_mask_bw8yXAaKOHTrBtlfSnu0XKwvIsHQqeL0)" vector-effect="non-scaling-stroke" stroke-width="2" stroke="rgb(0,0,0)" stroke-linejoin="round" stroke-linecap="round" stroke-miterlimit="3"/><path d=" M 120 103.923 L 60 138.564 L 0 103.923 L 0 34.641 L 60 0 L 120 34.641 L 120 103.923 Z " fill="none" vector-effect="non-scaling-stroke" stroke-width="2" stroke="rgb(0,0,0)" stroke-linejoin="round" stroke-linecap="round" stroke-miterlimit="3"/><line x1="20" y1="34.641" x2="60" y2="11.547" vector-effect="non-scaling-stroke" stroke-width="5" stroke="rgb(153,0,255)" stroke-linejoin="miter" stroke-linecap="square" stroke-miterlimit="3"/><path d=" M 59.629 18.216 L 66.516 7.785 L 54.039 8.534 Z " fill="rgb(153,0,255)" stroke="none"/></g></svg>