<?xml version="1.0" encoding="UTF-8" standalone="no"?><!-- Generator: Gravit.io --><svg xmlns="http://www.w3.org/2000/svg" xmlns:xlink="http://www.w3.org/1999/xlink" style="isolation:isolate" viewBox="-1 -1 122 140.564" width="122pt" height="140.564pt"><defs><clipPath id="_clipPath_77KeQhwWbdwdEuLHkUZXOR3keiAP9wUz"><rect x="-1" y="-1" width="122" height="140.564"/></clipPath></defs><g clip-path="url(#_clipPath_77KeQhwWbdwdEuLHkUZXOR3keiAP9wUz)"><mask id="_mask_NukDjVAEpxkHCnYu5H5t87o0lSjqOBcG"><path d=" M 120 57.735 L 100 69.282 L 100 46.188 L 120 34.641 L 120 57.735 Z " fill="white" stroke="none"/></mask><path d=" M 120 57.735 L 100 69.282 L 100 46.188 L 120 34.641 L 120 57.735 Z " fill="rgb(255,255,255)"/><path d=" M 120 57.735 L 100 69.282 L 100 46.188 L 120 34.641 L 120 57.735 Z " fill="rgb(255,255,255)" mask="url(#_mask_NukDjVAEpxkHCnYu5H5t87o0lSjqOBcG)" vector-effect="non-scaling-stroke" stroke-width="2" stroke="rgb(0,0,0)" stroke-linejoin="round" stroke-linecap="round" stroke-miterlimit="3"/><mask id="_mask_Gxzkhvar7fmPxhouDznGbwkoUFB6REoc"><path d=" M 100 69.282 L 80 80.829 L 80 57.735 L 100 46.188 L 100 69.282 Z " fill="white" stroke="none"/></mask><path d=" M 100 69.282 L 80 80.829 L 80 57.735 L 100 46.188 L 100 69.282 Z " fill="rgb(255,255,255)"/><path d=" M 100 69.282 L 80 80.829 L 80 57.735 L 100 46.188 L 100 69.282 Z " fill="rgb(255,255,255)" mask="url(#_mask_Gxzkhvar7fmPxhouDznGbwkoUFB6REoc)" vector-effect="non-scaling-stroke" stroke-width="2" stroke="rgb(0,0,0)" stroke-linejoin="round" stroke-linecap="round" stroke-miterlimit="3"/><mask id="_mask_NC2H0oViLS6KZ0hqoHI8qvq9BarNfid7"><path d=" M 80 80.829 L 60 92.376 L 60 69.282 L 80 57.735 L 80 80.829 Z " fill="white" stroke="none"/></mask><path d=" M 80 80.829 L 60 92.376 L 60 69.282 L 80 57.735 L 80 80.829 Z " fill="rgb(255,255,255)"/><path d=" M 80 80.829 L 60 92.376 L 60 69.282 L 80 57.735 L 80 80.829 Z " fill="rgb(255,255,255)" mask="url(#_mask_NC2H0oViLS6KZ0hqoHI8qvq9BarNfid7)" vector-effect="non-scaling-stroke" stroke-width="2" stroke="rgb(0,0,0)" stroke-linejoin="round" stroke-linecap="round" stroke-miterlimit="3"/><mask id="_mask_94fPAfL8rMiw3QlN2IXd0vNmjNa59NL8"><path d=" M 60 46.188 L 40 57.735 L 60 69.282 L 80 57.735 L 60 46.188 Z " fill="white" stroke="none"/></mask><path d=" M 60 46.188 L 40 57.735 L 60 69.282 L 80 57.735 L 60 46.188 Z " fill="rgb(255,255,255)"/><path d=" M 60 46.188 L 40 57.735 L 60 69.282 L 80 57.735 L 60 46.188 Z " fill="rgb(255,255,255)" mask="url(#_mask_94fPAfL8rMiw3QlN2IXd0vNmjNa59NL8)" vector-effect="non-scaling-stroke" stroke-width="2" stroke="rgb(0,0,0)" stroke-linejoin="round" stroke-linecap="round" stroke-miterlimit="3"/><mask id="_mask_VZL5KtvG45xmUrlAIQcXdXxWF9i4opM9"><path d=" M 40 80.829 L 40 57.735 L 60 69.282 L 60 92.376 L 40 80.829 Z " fill="white" stroke="none"/></mask><path d=" M 40 80.829 L 40 57.735 L 60 69.282 L 60 92.376 L 40 80.829 Z " fill="rgb(255,255,255)"/><path d=" M 40 80.829 L 40 57.735 L 60 69.282 L 60 92.376 L 40 80.829 Z " fill="rgb(255,255,255)" mask="url(#_mask_VZL5KtvG45xmUrlAIQcXdXxWF9i4opM9)" vector-effect="non-scaling-stroke" stroke-width="2" stroke="rgb(0,0,0)" stroke-linejoin="round" stroke-linecap="round" stroke-miterlimit="3"/><mask id="_mask_jny8DXniMqUyTXTeqWbuYy0hipRG782q"><path d=" M 20 69.282 L 20 46.188 L 40 57.735 L 40 80.829 L 20 69.282 Z " fill="white" stroke="none"/></mask><path d=" M 20 69.282 L 20 46.188 L 40 57.735 L 40 80.829 L 20 69.282 Z " fill="rgb(209,209,209)"/><path d=" M 20 69.282 L 20 46.188 L 40 57.735 L 40 80.829 L 20 69.282 Z " fill="rgb(209,209,209)" mask="url(#_mask_jny8DXniMqUyTXTeqWbuYy0hipRG782q)" vector-effect="non-scaling-stroke" stroke-width="2" stroke="rgb(0,0,0)" stroke-linejoin="round" stroke-linecap="round" stroke-miterlimit="3"/><mask id="_mask_rDWG3GeQpzNFHlYJn29BRilAFDqt2EJ2"><path d=" M 0 57.735 L 0 34.641 L 20 46.188 L 20 69.282 L 0 57.735 Z " fill="white" stroke="none"/></mask><path d=" M 0 57.735 L 0 34.641 L 20 46.188 L 20 69.282 L 0 57.735 Z " fill="rgb(209,209,209)"/><path d=" M 0 57.735 L 0 34.641 L 20 46.188 L 20 69.282 L 0 57.735 Z " fill="rgb(209,209,209)" mask="url(#_mask_rDWG3GeQpzNFHlYJn29BRilAFDqt2EJ2)" vector-effect="non-scaling-stroke" stroke-width="2" stroke="rgb(0,0,0)" stroke-linejoin="round" stroke-linecap="round" stroke-miterlimit="3"/><mask id="_mask_7qc2xxx9RybarwPXvyAnknBCfYLEqBuz"><path d=" M 40 103.923 L 40 80.829 L 60 92.376 L 60 115.47 L 40 103.923 Z " fill="white" stroke="none"/></mask><path d=" M 40 103.923 L 40 80.829 L 60 92.376 L 60 115.47 L 40 103.923 Z " fill="rgb(255,255,255)"/><path d=" M 40 103.923 L 40 80.829 L 60 92.376 L 60 115.47 L 40 103.923 Z " fill="rgb(255,255,255)" mask="url(#_mask_7qc2xxx9RybarwPXvyAnknBCfYLEqBuz)" vector-effect="non-scaling-stroke" stroke-width="2" stroke="rgb(0,0,0)" stroke-linejoin="round" stroke-linecap="round" stroke-miterlimit="3"/><mask id="_mask_CYwW88BLNneJMvh9FNGlpNDXBOThMaiG"><path d=" M 20 92.376 L 20 69.282 L 40 80.829 L 40 103.923 L 20 92.376 Z " fill="white" stroke="none"/></mask><path d=" M 20 92.376 L 20 69.282 L 40 80.829 L 40 103.923 L 20 92.376 Z " fill="rgb(209,209,209)"/><path d=" M 20 92.376 L 20 69.282 L 40 80.829 L 40 103.923 L 20 92.376 Z " fill="rgb(209,209,209)" mask="url(#_mask_CYwW88BLNneJMvh9FNGlpNDXBOThMaiG)" vector-effect="non-scaling-stroke" stroke-width="2" stroke="rgb(0,0,0)" stroke-linejoin="round" stroke-linecap="round" stroke-miterlimit="3"/><mask id="_mask_wp7jJdZwneAMWE9Zb2b5yeHc0SPGTpqe"><path d=" M 0 80.829 L 0 57.735 L 20 69.282 L 20 92.376 L 0 80.829 Z " fill="white" stroke="none"/></mask><path d=" M 0 80.829 L 0 57.735 L 20 69.282 L 20 92.376 L 0 80.829 Z " fill="rgb(209,209,209)"/><path d=" M 0 80.829 L 0 57.735 L 20 69.282 L 20 92.376 L 0 80.829 Z " fill="rgb(209,209,209)" mask="url(#_mask_wp7jJdZwneAMWE9Zb2b5yeHc0SPGTpqe)" vector-effect="non-scaling-stroke" stroke-width="2" stroke="rgb(0,0,0)" stroke-linejoin="round" stroke-linecap="round" stroke-miterlimit="3"/><mask id="_mask_zcb3KBZajl7u84ojBGf6tcStmK4Bdcme"><path d=" M 40 127.017 L 40 103.923 L 60 115.47 L 60 138.564 L 40 127.017 Z " fill="white" stroke="none"/></mask><path d=" M 40 127.017 L 40 103.923 L 60 115.47 L 60 138.564 L 40 127.017 Z " fill="rgb(255,255,255)"/><path d=" M 40 127.017 L 40 103.923 L 60 115.47 L 60 138.564 L 40 127.017 Z " fill="rgb(255,255,255)" mask="url(#_mask_zcb3KBZajl7u84ojBGf6tcStmK4Bdcme)" vector-effect="non-scaling-stroke" stroke-width="2" stroke="rgb(0,0,0)" stroke-linejoin="round" stroke-linecap="round" stroke-miterlimit="3"/><mask id="_mask_4y6NVWzaGaG3MQOCifXW3uBZBwXeVrvC"><path d=" M 20 115.47 L 20 92.376 L 40 103.923 L 40 127.017 L 20 115.47 Z " fill="white" stroke="none"/></mask><path d=" M 20 115.47 L 20 92.376 L 40 103.923 L 40 127.017 L 20 115.47 Z " fill="rgb(209,209,209)"/><path d=" M 20 115.47 L 20 92.376 L 40 103.923 L 40 127.017 L 20 115.47 Z " fill="rgb(209,209,209)" mask="url(#_mask_4y6NVWzaGaG3MQOCifXW3uBZBwXeVrvC)" vector-effect="non-scaling-stroke" stroke-width="2" stroke="rgb(0,0,0)" stroke-linejoin="round" stroke-linecap="round" stroke-miterlimit="3"/><mask id="_mask_E2tsQRZdBXJOIhAat7ZrUF6NPdlMngOA"><path d=" M 0 103.923 L 0 80.829 L 20 92.376 L 20 115.47 L 0 103.923 Z " fill="white" stroke="none"/></mask><path d=" M 0 103.923 L 0 80.829 L 20 92.376 L 20 115.47 L 0 103.923 Z " fill="rgb(209,209,209)"/><path d=" M 0 103.923 L 0 80.829 L 20 92.376 L 20 115.47 L 0 103.923 Z " fill="rgb(209,209,209)" mask="url(#_mask_E2tsQRZdBXJOIhAat7ZrUF6NPdlMngOA)" vector-effect="non-scaling-stroke" stroke-width="2" stroke="rgb(0,0,0)" stroke-linejoin="round" stroke-linecap="round" stroke-miterlimit="3"/><mask id="_mask_rbmGOy0nFgGtOm0xJGlzThdXohRa9jLs"><path d=" M 40 34.641 L 20 46.188 L 40 57.735 L 60 46.188 L 40 34.641 Z " fill="white" stroke="none"/></mask><path d=" M 40 34.641 L 20 46.188 L 40 57.735 L 60 46.188 L 40 34.641 Z " fill="rgb(209,209,209)"/><path d=" M 40 34.641 L 20 46.188 L 40 57.735 L 60 46.188 L 40 34.641 Z " fill="rgb(209,209,209)" mask="url(#_mask_rbmGOy0nFgGtOm0xJGlzThdXohRa9jLs)" vector-effect="non-scaling-stroke" stroke-width="2" stroke="rgb(0,0,0)" stroke-linejoin="round" stroke-linecap="round" stroke-miterlimit="3"/><mask id="_mask_UTr2DYamGWBTZxBsrFAJAZQSWXJ87kEv"><path d=" M 20 23.094 L 0 34.641 L 20 46.188 L 40 34.641 L 20 23.094 Z " fill="white" stroke="none"/></mask><path d=" M 20 23.094 L 0 34.641 L 20 46.188 L 40 34.641 L 20 23.094 Z " fill="rgb(209,209,209)"/><path d=" M 20 23.094 L 0 34.641 L 20 46.188 L 40 34.641 L 20 23.094 Z " fill="rgb(209,209,209)" mask="url(#_mask_UTr2DYamGWBTZxBsrFAJAZQSWXJ87kEv)" vector-effect="non-scaling-stroke" stroke-width="2" stroke="rgb(0,0,0)" stroke-linejoin="round" stroke-linecap="round" stroke-miterlimit="3"/><mask id="_mask_iqDFvecb8qhAGtGOVKBCI04Uc4VIJQcK"><path d=" M 80 34.641 L 60 46.188 L 80 57.735 L 100 46.188 L 80 34.641 Z " fill="white" stroke="none"/></mask><path d=" M 80 34.641 L 60 46.188 L 80 57.735 L 100 46.188 L 80 34.641 Z " fill="rgb(255,255,255)"/><path d=" M 80 34.641 L 60 46.188 L 80 57.735 L 100 46.188 L 80 34.641 Z " fill="rgb(255,255,255)" mask="url(#_mask_iqDFvecb8qhAGtGOVKBCI04Uc4VIJQcK)" vector-effect="non-scaling-stroke" stroke-width="2" stroke="rgb(0,0,0)" stroke-linejoin="round" stroke-linecap="round" stroke-miterlimit="3"/><mask id="_mask_EXJa5HCypXYZR0RwifAeXWkS51bGpJdA"><path d=" M 60 23.094 L 40 34.641 L 60 46.188 L 80 34.641 L 60 23.094 Z " fill="white" stroke="none"/></mask><path d=" M 60 23.094 L 40 34.641 L 60 46.188 L 80 34.641 L 60 23.094 Z " fill="rgb(209,209,209)"/><path d=" M 60 23.094 L 40 34.641 L 60 46.188 L 80 34.641 L 60 23.094 Z " fill="rgb(209,209,209)" mask="url(#_mask_EXJa5HCypXYZR0RwifAeXWkS51bGpJdA)" vector-effect="non-scaling-stroke" stroke-width="2" stroke="rgb(0,0,0)" stroke-linejoin="round" stroke-linecap="round" stroke-miterlimit="3"/><mask id="_mask_wVu3w8G3Q910ssdyWmn2wkwr6ax184aq"><path d=" M 40 11.547 L 20 23.094 L 40 34.641 L 60 23.094 L 40 11.547 Z " fill="white" stroke="none"/></mask><path d=" M 40 11.547 L 20 23.094 L 40 34.641 L 60 23.094 L 40 11.547 Z " fill="rgb(209,209,209)"/><path d=" M 40 11.547 L 20 23.094 L 40 34.641 L 60 23.094 L 40 11.547 Z " fill="rgb(209,209,209)" mask="url(#_mask_wVu3w8G3Q910ssdyWmn2wkwr6ax184aq)" vector-effect="non-scaling-stroke" stroke-width="2" stroke="rgb(0,0,0)" stroke-linejoin="round" stroke-linecap="round" stroke-miterlimit="3"/><mask id="_mask_E6JwxatwXhI18tXZrXfSBKXLZGVqsfsw"><path d=" M 100 23.094 L 80 34.641 L 100 46.188 L 120 34.641 L 100 23.094 Z " fill="white" stroke="none"/></mask><path d=" M 100 23.094 L 80 34.641 L 100 46.188 L 120 34.641 L 100 23.094 Z " fill="rgb(255,255,255)"/><path d=" M 100 23.094 L 80 34.641 L 100 46.188 L 120 34.641 L 100 23.094 Z " fill="rgb(255,255,255)" mask="url(#_mask_E6JwxatwXhI18tXZrXfSBKXLZGVqsfsw)" vector-effect="non-scaling-stroke" stroke-width="2" stroke="rgb(0,0,0)" stroke-linejoin="round" stroke-linecap="round" stroke-miterlimit="3"/><mask id="_mask_TDvh7EU5PLvYaqYPEcEDLdc48AaR79F7"><path d=" M 80 11.547 L 60 23.094 L 80 34.641 L 100 23.094 L 80 11.547 Z " fill="white" stroke="none"/></mask><path d=" M 80 11.547 L 60 23.094 L 80 34.641 L 100 23.094 L 80 11.547 Z " fill="rgb(209,209,209)"/><path d=" M 80 11.547 L 60 23.094 L 80 34.641 L 100 23.094 L 80 11.547 Z " fill="rgb(209,209,209)" mask="url(#_mask_TDvh7EU5PLvYaqYPEcEDLdc48AaR79F7)" vector-effect="non-scaling-stroke" stroke-width="2" stroke="rgb(0,0,0)" stroke-linejoin="round" stroke-linecap="round" stroke-miterlimit="3"/><mask id="_mask_u9Izg0ffAYniji325obhMvTYRgDEKj5p"><path d=" M 60 0 L 40 11.547 L 60 23.094 L 80 11.547 L 60 0 Z " fill="white" stroke="none"/></mask><path d=" M 60 0 L 40 11.547 L 60 23.094 L 80 11.547 L 60 0 Z " fill="rgb(209,209,209)"/><path d=" M 60 0 L 40 11.547 L 60 23.094 L 80 11.547 L 60 0 Z " fill="rgb(209,209,209)" mask="url(#_mask_u9Izg0ffAYniji325obhMvTYRgDEKj5p)" vector-effect="non-scaling-stroke" stroke-width="2" stroke="rgb(0,0,0)" stroke-linejoin="round" stroke-linecap="round" stroke-miterlimit="3"/><mask id="_mask_wKe8ADpbAwADiHCnWgoUQvowYq3Xvp8v"><path d=" M 120 80.829 L 100 92.376 L 100 69.282 L 120 57.735 L 120 80.829 Z " fill="white" stroke="none"/></mask><path d=" M 120 80.829 L 100 92.376 L 100 69.282 L 120 57.735 L 120 80.829 Z " fill="rgb(255,255,255)"/><path d=" M 120 80.829 L 100 92.376 L 100 69.282 L 120 57.735 L 120 80.829 Z " fill="rgb(255,255,255)" mask="url(#_mask_wKe8ADpbAwADiHCnWgoUQvowYq3Xvp8v)" vector-effect="non-scaling-stroke" stroke-width="2" stroke="rgb(0,0,0)" stroke-linejoin="round" stroke-linecap="round" stroke-miterlimit="3"/><mask id="_mask_X5pKvSmdY0VQcqavxccLPqK2ct27cWHL"><path d=" M 100 92.376 L 80 103.923 L 80 80.829 L 100 69.282 L 100 92.376 Z " fill="white" stroke="none"/></mask><path d=" M 100 92.376 L 80 103.923 L 80 80.829 L 100 69.282 L 100 92.376 Z " fill="rgb(255,255,255)"/><path d=" M 100 92.376 L 80 103.923 L 80 80.829 L 100 69.282 L 100 92.376 Z " fill="rgb(255,255,255)" mask="url(#_mask_X5pKvSmdY0VQcqavxccLPqK2ct27cWHL)" vector-effect="non-scaling-stroke" stroke-width="2" stroke="rgb(0,0,0)" stroke-linejoin="round" stroke-linecap="round" stroke-miterlimit="3"/><mask id="_mask_di1kuA4sqdrBm3wdjylLkLPKgmHjdwWe"><path d=" M 80 103.923 L 60 115.47 L 60 92.376 L 80 80.829 L 80 103.923 Z " fill="white" stroke="none"/></mask><path d=" M 80 103.923 L 60 115.47 L 60 92.376 L 80 80.829 L 80 103.923 Z " fill="rgb(255,255,255)"/><path d=" M 80 103.923 L 60 115.47 L 60 92.376 L 80 80.829 L 80 103.923 Z " fill="rgb(255,255,255)" mask="url(#_mask_di1kuA4sqdrBm3wdjylLkLPKgmHjdwWe)" vector-effect="non-scaling-stroke" stroke-width="2" stroke="rgb(0,0,0)" stroke-linejoin="round" stroke-linecap="round" stroke-miterlimit="3"/><mask id="_mask_iKAv0LiyegUoWTId7ZO34s1Fq5n9Qedy"><path d=" M 120 103.923 L 100 115.47 L 100 92.376 L 120 80.829 L 120 103.923 Z " fill="white" stroke="none"/></mask><path d=" M 120 103.923 L 100 115.47 L 100 92.376 L 120 80.829 L 120 103.923 Z " fill="rgb(255,255,255)"/><path d=" M 120 103.923 L 100 115.47 L 100 92.376 L 120 80.829 L 120 103.923 Z " fill="rgb(255,255,255)" mask="url(#_mask_iKAv0LiyegUoWTId7ZO34s1Fq5n9Qedy)" vector-effect="non-scaling-stroke" stroke-width="2" stroke="rgb(0,0,0)" stroke-linejoin="round" stroke-linecap="round" stroke-miterlimit="3"/><mask id="_mask_8XQ6ax75YeryVI0IUluQGeL673zAPAt1"><path d=" M 100 115.47 L 80 127.017 L 80 103.923 L 100 92.376 L 100 115.47 Z " fill="white" stroke="none"/></mask><path d=" M 100 115.47 L 80 127.017 L 80 103.923 L 100 92.376 L 100 115.47 Z " fill="rgb(255,255,255)"/><path d=" M 100 115.47 L 80 127.017 L 80 103.923 L 100 92.376 L 100 115.47 Z " fill="rgb(255,255,255)" mask="url(#_mask_8XQ6ax75YeryVI0IUluQGeL673zAPAt1)" vector-effect="non-scaling-stroke" stroke-width="2" stroke="rgb(0,0,0)" stroke-linejoin="round" stroke-linecap="round" stroke-miterlimit="3"/><mask id="_mask_E6nojLeuoXc4XZlvBtlIBRoifyAUhnNt"><path d=" M 80 127.017 L 60 138.564 L 60 115.47 L 80 103.923 L 80 127.017 Z " fill="white" stroke="none"/></mask><path d=" M 80 127.017 L 60 138.564 L 60 115.47 L 80 103.923 L 80 127.017 Z " fill="rgb(255,255,255)"/><path d=" M 80 127.017 L 60 138.564 L 60 115.47 L 80 103.923 L 80 127.017 Z " fill="rgb(255,255,255)" mask="url(#_mask_E6nojLeuoXc4XZlvBtlIBRoifyAUhnNt)" vector-effect="non-scaling-stroke" stroke-width="2" stroke="rgb(0,0,0)" stroke-linejoin="round" stroke-linecap="round" stroke-miterlimit="3"/><path d=" M 120 103.923 L 60 138.564 L 0 103.923 L 0 34.641 L 60 0 L 120 34.641 L 120 103.923 Z " fill="none" vector-effect="non-scaling-stroke" stroke-width="2" stroke="rgb(0,0,0)" stroke-linejoin="round" stroke-linecap="round" stroke-miterlimit="3"/><line x1="30" y1="40.415" x2="70" y2="17.321" vector-effect="non-scaling-stroke" stroke-width="5" stroke="rgb(153,0,255)" stroke-linejoin="miter" stroke-linecap="square" stroke-miterlimit="3"/><path d=" M 69.629 23.99 L 76.516 13.558 L 64.039 14.307 Z " fill="rgb(153,0,255)" stroke="none"/></g></svg>