<?xml version="1.0" encoding="UTF-8" standalone="no"?><!-- Generator: Gravit.io --><svg xmlns="http://www.w3.org/2000/svg" xmlns:xlink="http://www.w3.org/1999/xlink" style="isolation:isolate" viewBox="-1 -1 122 140.564" width="122pt" height="140.564pt"><defs><clipPath id="_clipPath_lDv24dducesCqnpfjeuihwip7sbouAtL"><rect x="-1" y="-1" width="122" height="140.564"/></clipPath></defs><g clip-path="url(#_clipPath_lDv24dducesCqnpfjeuihwip7sbouAtL)"><mask id="_mask_1HSfwWnLmFKCvwLwD5fGgwC2tW7XA6wL"><path d=" M 20 23.094 L 40 34.641 L 20 46.188 L 0 34.641 L 20 23.094 Z " fill="white" stroke="none"/></mask><path d=" M 20 23.094 L 40 34.641 L 20 46.188 L 0 34.641 L 20 23.094 Z " fill="rgb(255,255,255)"/><path d=" M 20 23.094 L 40 34.641 L 20 46.188 L 0 34.641 L 20 23.094 Z " fill="rgb(255,255,255)" mask="url(#_mask_1HSfwWnLmFKCvwLwD5fGgwC2tW7XA6wL)" vector-effect="non-scaling-stroke" stroke-width="2" stroke="rgb(0,0,0)" stroke-linejoin="round" stroke-linecap="round" stroke-miterlimit="3"/><mask id="_mask_GWmSKfekcbde3UYFEUiaOs8glu2OdXrO"><path d=" M 40 34.641 L 60 46.188 L 40 57.735 L 20 46.188 L 40 34.641 Z " fill="white" stroke="none"/></mask><path d=" M 40 34.641 L 60 46.188 L 40 57.735 L 20 46.188 L 40 34.641 Z " fill="rgb(209,209,209)"/><path d=" M 40 34.641 L 60 46.188 L 40 57.735 L 20 46.188 L 40 34.641 Z " fill="rgb(209,209,209)" mask="url(#_mask_GWmSKfekcbde3UYFEUiaOs8glu2OdXrO)" vector-effect="non-scaling-stroke" stroke-width="2" stroke="rgb(0,0,0)" stroke-linejoin="round" stroke-linecap="round" stroke-miterlimit="3"/><mask id="_mask_vfF1L0y5PNmyI9Z2aNiYphhTcZ0xwuMq"><path d=" M 60 46.188 L 80 57.735 L 60 69.282 L 40 57.735 L 60 46.188 Z " fill="white" stroke="none"/></mask><path d=" M 60 46.188 L 80 57.735 L 60 69.282 L 40 57.735 L 60 46.188 Z " fill="rgb(255,255,255)"/><path d=" M 60 46.188 L 80 57.735 L 60 69.282 L 40 57.735 L 60 46.188 Z " fill="rgb(255,255,255)" mask="url(#_mask_vfF1L0y5PNmyI9Z2aNiYphhTcZ0xwuMq)" vector-effect="non-scaling-stroke" stroke-width="2" stroke="rgb(0,0,0)" stroke-linejoin="round" stroke-linecap="round" stroke-miterlimit="3"/><mask id="_mask_nwscL16SujCI9vn9xfz2tAllAWxhtjfP"><path d=" M 40 80.829 L 60 92.376 L 60 69.282 L 40 57.735 L 40 80.829 Z " fill="white" stroke="none"/></mask><path d=" M 40 80.829 L 60 92.376 L 60 69.282 L 40 57.735 L 40 80.829 Z " fill="rgb(255,255,255)"/><path d=" M 40 80.829 L 60 92.376 L 60 69.282 L 40 57.735 L 40 80.829 Z " fill="rgb(255,255,255)" mask="url(#_mask_nwscL16SujCI9vn9xfz2tAllAWxhtjfP)" vector-effect="non-scaling-stroke" stroke-width="2" stroke="rgb(0,0,0)" stroke-linejoin="round" stroke-linecap="round" stroke-miterlimit="3"/><mask id="_mask_VQG3jlDmOdNwR0ukgKFEPBRBQnqMNN2p"><path d=" M 80 80.829 L 60 92.376 L 60 69.282 L 80 57.735 L 80 80.829 Z " fill="white" stroke="none"/></mask><path d=" M 80 80.829 L 60 92.376 L 60 69.282 L 80 57.735 L 80 80.829 Z " fill="rgb(255,255,255)"/><path d=" M 80 80.829 L 60 92.376 L 60 69.282 L 80 57.735 L 80 80.829 Z " fill="rgb(255,255,255)" mask="url(#_mask_VQG3jlDmOdNwR0ukgKFEPBRBQnqMNN2p)" vector-effect="non-scaling-stroke" stroke-width="2" stroke="rgb(0,0,0)" stroke-linejoin="round" stroke-linecap="round" stroke-miterlimit="3"/><mask id="_mask_sv9L4hc2TUqnEe03i4WnpMRjlCrQEePN"><path d=" M 80 103.923 L 60 115.47 L 60 92.376 L 80 80.829 L 80 103.923 Z " fill="white" stroke="none"/></mask><path d=" M 80 103.923 L 60 115.47 L 60 92.376 L 80 80.829 L 80 103.923 Z " fill="rgb(255,255,255)"/><path d=" M 80 103.923 L 60 115.47 L 60 92.376 L 80 80.829 L 80 103.923 Z " fill="rgb(255,255,255)" mask="url(#_mask_sv9L4hc2TUqnEe03i4WnpMRjlCrQEePN)" vector-effect="non-scaling-stroke" stroke-width="2" stroke="rgb(0,0,0)" stroke-linejoin="round" stroke-linecap="round" stroke-miterlimit="3"/><mask id="_mask_RQ9T7fogvz4rLl3iiXSaXgZQKZ16JhUe"><path d=" M 80 127.017 L 60 138.564 L 60 115.47 L 80 103.923 L 80 127.017 Z " fill="white" stroke="none"/></mask><path d=" M 80 127.017 L 60 138.564 L 60 115.47 L 80 103.923 L 80 127.017 Z " fill="rgb(255,255,255)"/><path d=" M 80 127.017 L 60 138.564 L 60 115.47 L 80 103.923 L 80 127.017 Z " fill="rgb(255,255,255)" mask="url(#_mask_RQ9T7fogvz4rLl3iiXSaXgZQKZ16JhUe)" vector-effect="non-scaling-stroke" stroke-width="2" stroke="rgb(0,0,0)" stroke-linejoin="round" stroke-linecap="round" stroke-miterlimit="3"/><mask id="_mask_020D6tMq1tdpxPXRsyQProbz7v09StYG"><path d=" M 100 69.282 L 80 80.829 L 80 57.735 L 100 46.188 L 100 69.282 Z " fill="white" stroke="none"/></mask><path d=" M 100 69.282 L 80 80.829 L 80 57.735 L 100 46.188 L 100 69.282 Z " fill="rgb(255,255,255)"/><path d=" M 100 69.282 L 80 80.829 L 80 57.735 L 100 46.188 L 100 69.282 Z " fill="rgb(255,255,255)" mask="url(#_mask_020D6tMq1tdpxPXRsyQProbz7v09StYG)" vector-effect="non-scaling-stroke" stroke-width="2" stroke="rgb(0,0,0)" stroke-linejoin="round" stroke-linecap="round" stroke-miterlimit="3"/><mask id="_mask_KY3526lBZfzIcUTEOLF7Hm7x85BNN8BF"><path d=" M 100 92.376 L 80 103.923 L 80 80.829 L 100 69.282 L 100 92.376 Z " fill="white" stroke="none"/></mask><path d=" M 100 92.376 L 80 103.923 L 80 80.829 L 100 69.282 L 100 92.376 Z " fill="rgb(255,255,255)"/><path d=" M 100 92.376 L 80 103.923 L 80 80.829 L 100 69.282 L 100 92.376 Z " fill="rgb(255,255,255)" mask="url(#_mask_KY3526lBZfzIcUTEOLF7Hm7x85BNN8BF)" vector-effect="non-scaling-stroke" stroke-width="2" stroke="rgb(0,0,0)" stroke-linejoin="round" stroke-linecap="round" stroke-miterlimit="3"/><mask id="_mask_deqfrAWP8O7KlpOTS7Aab8iVdoI8TQsS"><path d=" M 100 115.47 L 80 127.017 L 80 103.923 L 100 92.376 L 100 115.47 Z " fill="white" stroke="none"/></mask><path d=" M 100 115.47 L 80 127.017 L 80 103.923 L 100 92.376 L 100 115.47 Z " fill="rgb(255,255,255)"/><path d=" M 100 115.47 L 80 127.017 L 80 103.923 L 100 92.376 L 100 115.47 Z " fill="rgb(255,255,255)" mask="url(#_mask_deqfrAWP8O7KlpOTS7Aab8iVdoI8TQsS)" vector-effect="non-scaling-stroke" stroke-width="2" stroke="rgb(0,0,0)" stroke-linejoin="round" stroke-linecap="round" stroke-miterlimit="3"/><mask id="_mask_WP9nd1g638imUBhIdmuSBQPp5egPsPUS"><path d=" M 120 57.735 L 100 69.282 L 100 46.188 L 120 34.641 L 120 57.735 Z " fill="white" stroke="none"/></mask><path d=" M 120 57.735 L 100 69.282 L 100 46.188 L 120 34.641 L 120 57.735 Z " fill="rgb(255,255,255)"/><path d=" M 120 57.735 L 100 69.282 L 100 46.188 L 120 34.641 L 120 57.735 Z " fill="rgb(255,255,255)" mask="url(#_mask_WP9nd1g638imUBhIdmuSBQPp5egPsPUS)" vector-effect="non-scaling-stroke" stroke-width="2" stroke="rgb(0,0,0)" stroke-linejoin="round" stroke-linecap="round" stroke-miterlimit="3"/><mask id="_mask_bi7gtNhqPa6y1LglPnYvcXYb2bJz1CvE"><path d=" M 120 80.829 L 100 92.376 L 100 69.282 L 120 57.735 L 120 80.829 Z " fill="white" stroke="none"/></mask><path d=" M 120 80.829 L 100 92.376 L 100 69.282 L 120 57.735 L 120 80.829 Z " fill="rgb(255,255,255)"/><path d=" M 120 80.829 L 100 92.376 L 100 69.282 L 120 57.735 L 120 80.829 Z " fill="rgb(255,255,255)" mask="url(#_mask_bi7gtNhqPa6y1LglPnYvcXYb2bJz1CvE)" vector-effect="non-scaling-stroke" stroke-width="2" stroke="rgb(0,0,0)" stroke-linejoin="round" stroke-linecap="round" stroke-miterlimit="3"/><mask id="_mask_yueU6UqDq0nzEp4DPARwPqkYeqcGf6pM"><path d=" M 120 103.923 L 100 115.47 L 100 92.376 L 120 80.829 L 120 103.923 Z " fill="white" stroke="none"/></mask><path d=" M 120 103.923 L 100 115.47 L 100 92.376 L 120 80.829 L 120 103.923 Z " fill="rgb(255,255,255)"/><path d=" M 120 103.923 L 100 115.47 L 100 92.376 L 120 80.829 L 120 103.923 Z " fill="rgb(255,255,255)" mask="url(#_mask_yueU6UqDq0nzEp4DPARwPqkYeqcGf6pM)" vector-effect="non-scaling-stroke" stroke-width="2" stroke="rgb(0,0,0)" stroke-linejoin="round" stroke-linecap="round" stroke-miterlimit="3"/><mask id="_mask_omoTTyRMG5ZCncHPaUq7935WETsLwoNZ"><path d=" M 40 103.923 L 60 115.47 L 60 92.376 L 40 80.829 L 40 103.923 Z " fill="white" stroke="none"/></mask><path d=" M 40 103.923 L 60 115.47 L 60 92.376 L 40 80.829 L 40 103.923 Z " fill="rgb(255,255,255)"/><path d=" M 40 103.923 L 60 115.47 L 60 92.376 L 40 80.829 L 40 103.923 Z " fill="rgb(255,255,255)" mask="url(#_mask_omoTTyRMG5ZCncHPaUq7935WETsLwoNZ)" vector-effect="non-scaling-stroke" stroke-width="2" stroke="rgb(0,0,0)" stroke-linejoin="round" stroke-linecap="round" stroke-miterlimit="3"/><mask id="_mask_QuEjXVNwSgAm1oRmU37Juz2vtUg9YClz"><path d=" M 40 127.017 L 60 138.564 L 60 115.47 L 40 103.923 L 40 127.017 Z " fill="white" stroke="none"/></mask><path d=" M 40 127.017 L 60 138.564 L 60 115.47 L 40 103.923 L 40 127.017 Z " fill="rgb(255,255,255)"/><path d=" M 40 127.017 L 60 138.564 L 60 115.47 L 40 103.923 L 40 127.017 Z " fill="rgb(255,255,255)" mask="url(#_mask_QuEjXVNwSgAm1oRmU37Juz2vtUg9YClz)" vector-effect="non-scaling-stroke" stroke-width="2" stroke="rgb(0,0,0)" stroke-linejoin="round" stroke-linecap="round" stroke-miterlimit="3"/><mask id="_mask_zlpBUS8Ox26ZrmFlQ0Lsi4jjirjVgq2d"><path d=" M 20 69.282 L 40 80.829 L 40 57.735 L 20 46.188 L 20 69.282 Z " fill="white" stroke="none"/></mask><path d=" M 20 69.282 L 40 80.829 L 40 57.735 L 20 46.188 L 20 69.282 Z " fill="rgb(209,209,209)"/><path d=" M 20 69.282 L 40 80.829 L 40 57.735 L 20 46.188 L 20 69.282 Z " fill="rgb(209,209,209)" mask="url(#_mask_zlpBUS8Ox26ZrmFlQ0Lsi4jjirjVgq2d)" vector-effect="non-scaling-stroke" stroke-width="2" stroke="rgb(0,0,0)" stroke-linejoin="round" stroke-linecap="round" stroke-miterlimit="3"/><mask id="_mask_ct47tpzsXoqhgoVEH9OxS3FgjUN6b5iF"><path d=" M 20 92.376 L 40 103.923 L 40 80.829 L 20 69.282 L 20 92.376 Z " fill="white" stroke="none"/></mask><path d=" M 20 92.376 L 40 103.923 L 40 80.829 L 20 69.282 L 20 92.376 Z " fill="rgb(209,209,209)"/><path d=" M 20 92.376 L 40 103.923 L 40 80.829 L 20 69.282 L 20 92.376 Z " fill="rgb(209,209,209)" mask="url(#_mask_ct47tpzsXoqhgoVEH9OxS3FgjUN6b5iF)" vector-effect="non-scaling-stroke" stroke-width="2" stroke="rgb(0,0,0)" stroke-linejoin="round" stroke-linecap="round" stroke-miterlimit="3"/><mask id="_mask_Gf6TWlK682MBZDyg9GU71w9ABUzQ9nKP"><path d=" M 20 115.47 L 40 127.017 L 40 103.923 L 20 92.376 L 20 115.47 Z " fill="white" stroke="none"/></mask><path d=" M 20 115.47 L 40 127.017 L 40 103.923 L 20 92.376 L 20 115.47 Z " fill="rgb(209,209,209)"/><path d=" M 20 115.47 L 40 127.017 L 40 103.923 L 20 92.376 L 20 115.47 Z " fill="rgb(209,209,209)" mask="url(#_mask_Gf6TWlK682MBZDyg9GU71w9ABUzQ9nKP)" vector-effect="non-scaling-stroke" stroke-width="2" stroke="rgb(0,0,0)" stroke-linejoin="round" stroke-linecap="round" stroke-miterlimit="3"/><mask id="_mask_Py5pcbJtZb30NFI7cBELt6bpMUJzdOP2"><path d=" M 0 57.735 L 20 69.282 L 20 46.188 L 0 34.641 L 0 57.735 Z " fill="white" stroke="none"/></mask><path d=" M 0 57.735 L 20 69.282 L 20 46.188 L 0 34.641 L 0 57.735 Z " fill="rgb(255,255,255)"/><path d=" M 0 57.735 L 20 69.282 L 20 46.188 L 0 34.641 L 0 57.735 Z " fill="rgb(255,255,255)" mask="url(#_mask_Py5pcbJtZb30NFI7cBELt6bpMUJzdOP2)" vector-effect="non-scaling-stroke" stroke-width="2" stroke="rgb(0,0,0)" stroke-linejoin="round" stroke-linecap="round" stroke-miterlimit="3"/><mask id="_mask_88oujJfQkln5f8YUUOah33SXhcvzQ2e7"><path d=" M 0 80.829 L 20 92.376 L 20 69.282 L 0 57.735 L 0 80.829 Z " fill="white" stroke="none"/></mask><path d=" M 0 80.829 L 20 92.376 L 20 69.282 L 0 57.735 L 0 80.829 Z " fill="rgb(255,255,255)"/><path d=" M 0 80.829 L 20 92.376 L 20 69.282 L 0 57.735 L 0 80.829 Z " fill="rgb(255,255,255)" mask="url(#_mask_88oujJfQkln5f8YUUOah33SXhcvzQ2e7)" vector-effect="non-scaling-stroke" stroke-width="2" stroke="rgb(0,0,0)" stroke-linejoin="round" stroke-linecap="round" stroke-miterlimit="3"/><mask id="_mask_Tqjq1esvSxbAtZB59RR1IiyTPhXosXem"><path d=" M 0 103.923 L 20 115.47 L 20 92.376 L 0 80.829 L 0 103.923 Z " fill="white" stroke="none"/></mask><path d=" M 0 103.923 L 20 115.47 L 20 92.376 L 0 80.829 L 0 103.923 Z " fill="rgb(255,255,255)"/><path d=" M 0 103.923 L 20 115.47 L 20 92.376 L 0 80.829 L 0 103.923 Z " fill="rgb(255,255,255)" mask="url(#_mask_Tqjq1esvSxbAtZB59RR1IiyTPhXosXem)" vector-effect="non-scaling-stroke" stroke-width="2" stroke="rgb(0,0,0)" stroke-linejoin="round" stroke-linecap="round" stroke-miterlimit="3"/><mask id="_mask_ZxyfqmYPHygVpsSR9D7BNDRhPzMgQOTd"><path d=" M 40 11.547 L 60 23.094 L 40 34.641 L 20 23.094 L 40 11.547 Z " fill="white" stroke="none"/></mask><path d=" M 40 11.547 L 60 23.094 L 40 34.641 L 20 23.094 L 40 11.547 Z " fill="rgb(255,255,255)"/><path d=" M 40 11.547 L 60 23.094 L 40 34.641 L 20 23.094 L 40 11.547 Z " fill="rgb(255,255,255)" mask="url(#_mask_ZxyfqmYPHygVpsSR9D7BNDRhPzMgQOTd)" vector-effect="non-scaling-stroke" stroke-width="2" stroke="rgb(0,0,0)" stroke-linejoin="round" stroke-linecap="round" stroke-miterlimit="3"/><mask id="_mask_4KEQIRQpc9G6fNl1LOq5EKB5JE849FQN"><path d=" M 60 23.094 L 80 34.641 L 60 46.188 L 40 34.641 L 60 23.094 Z " fill="white" stroke="none"/></mask><path d=" M 60 23.094 L 80 34.641 L 60 46.188 L 40 34.641 L 60 23.094 Z " fill="rgb(209,209,209)"/><path d=" M 60 23.094 L 80 34.641 L 60 46.188 L 40 34.641 L 60 23.094 Z " fill="rgb(209,209,209)" mask="url(#_mask_4KEQIRQpc9G6fNl1LOq5EKB5JE849FQN)" vector-effect="non-scaling-stroke" stroke-width="2" stroke="rgb(0,0,0)" stroke-linejoin="round" stroke-linecap="round" stroke-miterlimit="3"/><mask id="_mask_m9SCosdcxdxMbw868SSM9XQrAWki7DB3"><path d=" M 80 34.641 L 100 46.188 L 80 57.735 L 60 46.188 L 80 34.641 Z " fill="white" stroke="none"/></mask><path d=" M 80 34.641 L 100 46.188 L 80 57.735 L 60 46.188 L 80 34.641 Z " fill="rgb(255,255,255)"/><path d=" M 80 34.641 L 100 46.188 L 80 57.735 L 60 46.188 L 80 34.641 Z " fill="rgb(255,255,255)" mask="url(#_mask_m9SCosdcxdxMbw868SSM9XQrAWki7DB3)" vector-effect="non-scaling-stroke" stroke-width="2" stroke="rgb(0,0,0)" stroke-linejoin="round" stroke-linecap="round" stroke-miterlimit="3"/><mask id="_mask_RI3Sn26GbR3JfdEaPm5EPd7Oe5AmreZ4"><path d=" M 60 0 L 80 11.547 L 60 23.094 L 40 11.547 L 60 0 Z " fill="white" stroke="none"/></mask><path d=" M 60 0 L 80 11.547 L 60 23.094 L 40 11.547 L 60 0 Z " fill="rgb(255,255,255)"/><path d=" M 60 0 L 80 11.547 L 60 23.094 L 40 11.547 L 60 0 Z " fill="rgb(255,255,255)" mask="url(#_mask_RI3Sn26GbR3JfdEaPm5EPd7Oe5AmreZ4)" vector-effect="non-scaling-stroke" stroke-width="2" stroke="rgb(0,0,0)" stroke-linejoin="round" stroke-linecap="round" stroke-miterlimit="3"/><mask id="_mask_H1yD0864d0BOMtEPmcxzBNbLNgeuKFNV"><path d=" M 80 11.547 L 100 23.094 L 80 34.641 L 60 23.094 L 80 11.547 Z " fill="white" stroke="none"/></mask><path d=" M 80 11.547 L 100 23.094 L 80 34.641 L 60 23.094 L 80 11.547 Z " fill="rgb(209,209,209)"/><path d=" M 80 11.547 L 100 23.094 L 80 34.641 L 60 23.094 L 80 11.547 Z " fill="rgb(209,209,209)" mask="url(#_mask_H1yD0864d0BOMtEPmcxzBNbLNgeuKFNV)" vector-effect="non-scaling-stroke" stroke-width="2" stroke="rgb(0,0,0)" stroke-linejoin="round" stroke-linecap="round" stroke-miterlimit="3"/><mask id="_mask_iD0swHxmac0M72nS8pSjhP0aB98m6j57"><path d=" M 100 23.094 L 120 34.641 L 100 46.188 L 80 34.641 L 100 23.094 Z " fill="white" stroke="none"/></mask><path d=" M 100 23.094 L 120 34.641 L 100 46.188 L 80 34.641 L 100 23.094 Z " fill="rgb(255,255,255)"/><path d=" M 100 23.094 L 120 34.641 L 100 46.188 L 80 34.641 L 100 23.094 Z " fill="rgb(255,255,255)" mask="url(#_mask_iD0swHxmac0M72nS8pSjhP0aB98m6j57)" vector-effect="non-scaling-stroke" stroke-width="2" stroke="rgb(0,0,0)" stroke-linejoin="round" stroke-linecap="round" stroke-miterlimit="3"/><path d=" M 60 0 L 120 34.641 L 120 103.923 L 60 138.564 L 0 103.923 L 0 34.641 L 60 0 Z " fill="none" vector-effect="non-scaling-stroke" stroke-width="2" stroke="rgb(0,0,0)" stroke-linejoin="round" stroke-linecap="round" stroke-miterlimit="3"/><line x1="30" y1="63.509" x2="30" y2="109.697" vector-effect="non-scaling-stroke" stroke-width="5" stroke="rgb(153,0,255)" stroke-linejoin="miter" stroke-linecap="square" stroke-miterlimit="3"/><path d=" M 24.41 106.04 L 30 117.221 L 35.59 106.04 Z " fill="rgb(153,0,255)" stroke="none"/></g></svg>