<?xml version="1.0" encoding="UTF-8" standalone="no"?><!-- Generator: Gravit.io --><svg xmlns="http://www.w3.org/2000/svg" xmlns:xlink="http://www.w3.org/1999/xlink" style="isolation:isolate" viewBox="-1 -1 122 140.564" width="122pt" height="140.564pt"><defs><clipPath id="_clipPath_LMI6AJDhB0hm74AG2tCWLsagtEjCWsZ7"><rect x="-1" y="-1" width="122" height="140.564"/></clipPath></defs><g clip-path="url(#_clipPath_LMI6AJDhB0hm74AG2tCWLsagtEjCWsZ7)"><mask id="_mask_MgoGkrCbNyuXSH4CIDu6Arley3xuSUau"><path d=" M 20 23.094 L 40 34.641 L 20 46.188 L 0 34.641 L 20 23.094 Z " fill="white" stroke="none"/></mask><path d=" M 20 23.094 L 40 34.641 L 20 46.188 L 0 34.641 L 20 23.094 Z " fill="rgb(255,255,255)"/><path d=" M 20 23.094 L 40 34.641 L 20 46.188 L 0 34.641 L 20 23.094 Z " fill="rgb(255,255,255)" mask="url(#_mask_MgoGkrCbNyuXSH4CIDu6Arley3xuSUau)" vector-effect="non-scaling-stroke" stroke-width="2" stroke="rgb(0,0,0)" stroke-linejoin="round" stroke-linecap="round" stroke-miterlimit="3"/><mask id="_mask_VeHoVe8SzNlZW9ieSJ19jvj2mrCliNQs"><path d=" M 40 34.641 L 60 46.188 L 40 57.735 L 20 46.188 L 40 34.641 Z " fill="white" stroke="none"/></mask><path d=" M 40 34.641 L 60 46.188 L 40 57.735 L 20 46.188 L 40 34.641 Z " fill="rgb(209,209,209)"/><path d=" M 40 34.641 L 60 46.188 L 40 57.735 L 20 46.188 L 40 34.641 Z " fill="rgb(209,209,209)" mask="url(#_mask_VeHoVe8SzNlZW9ieSJ19jvj2mrCliNQs)" vector-effect="non-scaling-stroke" stroke-width="2" stroke="rgb(0,0,0)" stroke-linejoin="round" stroke-linecap="round" stroke-miterlimit="3"/><mask id="_mask_imYGCWRsuKi8d9O8uJlkZjyHWUrYNf9G"><path d=" M 60 46.188 L 80 57.735 L 60 69.282 L 40 57.735 L 60 46.188 Z " fill="white" stroke="none"/></mask><path d=" M 60 46.188 L 80 57.735 L 60 69.282 L 40 57.735 L 60 46.188 Z " fill="rgb(255,255,255)"/><path d=" M 60 46.188 L 80 57.735 L 60 69.282 L 40 57.735 L 60 46.188 Z " fill="rgb(255,255,255)" mask="url(#_mask_imYGCWRsuKi8d9O8uJlkZjyHWUrYNf9G)" vector-effect="non-scaling-stroke" stroke-width="2" stroke="rgb(0,0,0)" stroke-linejoin="round" stroke-linecap="round" stroke-miterlimit="3"/><mask id="_mask_6B31bBW0cTNw98FPJpig0ng3l2Fdy1io"><path d=" M 40 80.829 L 60 92.376 L 60 69.282 L 40 57.735 L 40 80.829 Z " fill="white" stroke="none"/></mask><path d=" M 40 80.829 L 60 92.376 L 60 69.282 L 40 57.735 L 40 80.829 Z " fill="rgb(255,255,255)"/><path d=" M 40 80.829 L 60 92.376 L 60 69.282 L 40 57.735 L 40 80.829 Z " fill="rgb(255,255,255)" mask="url(#_mask_6B31bBW0cTNw98FPJpig0ng3l2Fdy1io)" vector-effect="non-scaling-stroke" stroke-width="2" stroke="rgb(0,0,0)" stroke-linejoin="round" stroke-linecap="round" stroke-miterlimit="3"/><mask id="_mask_1cerKpeXhIlArNrN0lzPvvmIIfgRE5xJ"><path d=" M 80 80.829 L 60 92.376 L 60 69.282 L 80 57.735 L 80 80.829 Z " fill="white" stroke="none"/></mask><path d=" M 80 80.829 L 60 92.376 L 60 69.282 L 80 57.735 L 80 80.829 Z " fill="rgb(255,255,255)"/><path d=" M 80 80.829 L 60 92.376 L 60 69.282 L 80 57.735 L 80 80.829 Z " fill="rgb(255,255,255)" mask="url(#_mask_1cerKpeXhIlArNrN0lzPvvmIIfgRE5xJ)" vector-effect="non-scaling-stroke" stroke-width="2" stroke="rgb(0,0,0)" stroke-linejoin="round" stroke-linecap="round" stroke-miterlimit="3"/><mask id="_mask_VstAALNC15LXIN4c0haaNw4uO3LPk7Rk"><path d=" M 80 103.923 L 60 115.47 L 60 92.376 L 80 80.829 L 80 103.923 Z " fill="white" stroke="none"/></mask><path d=" M 80 103.923 L 60 115.47 L 60 92.376 L 80 80.829 L 80 103.923 Z " fill="rgb(255,255,255)"/><path d=" M 80 103.923 L 60 115.47 L 60 92.376 L 80 80.829 L 80 103.923 Z " fill="rgb(255,255,255)" mask="url(#_mask_VstAALNC15LXIN4c0haaNw4uO3LPk7Rk)" vector-effect="non-scaling-stroke" stroke-width="2" stroke="rgb(0,0,0)" stroke-linejoin="round" stroke-linecap="round" stroke-miterlimit="3"/><mask id="_mask_W0kFcY09TE8HhGpDkdDM0G6Un8JiXJOi"><path d=" M 80 127.017 L 60 138.564 L 60 115.47 L 80 103.923 L 80 127.017 Z " fill="white" stroke="none"/></mask><path d=" M 80 127.017 L 60 138.564 L 60 115.47 L 80 103.923 L 80 127.017 Z " fill="rgb(255,255,255)"/><path d=" M 80 127.017 L 60 138.564 L 60 115.47 L 80 103.923 L 80 127.017 Z " fill="rgb(255,255,255)" mask="url(#_mask_W0kFcY09TE8HhGpDkdDM0G6Un8JiXJOi)" vector-effect="non-scaling-stroke" stroke-width="2" stroke="rgb(0,0,0)" stroke-linejoin="round" stroke-linecap="round" stroke-miterlimit="3"/><mask id="_mask_sGzL1fwZgcJlPacJYaVIAsTRmYW7gKZl"><path d=" M 100 69.282 L 80 80.829 L 80 57.735 L 100 46.188 L 100 69.282 Z " fill="white" stroke="none"/></mask><path d=" M 100 69.282 L 80 80.829 L 80 57.735 L 100 46.188 L 100 69.282 Z " fill="rgb(255,255,255)"/><path d=" M 100 69.282 L 80 80.829 L 80 57.735 L 100 46.188 L 100 69.282 Z " fill="rgb(255,255,255)" mask="url(#_mask_sGzL1fwZgcJlPacJYaVIAsTRmYW7gKZl)" vector-effect="non-scaling-stroke" stroke-width="2" stroke="rgb(0,0,0)" stroke-linejoin="round" stroke-linecap="round" stroke-miterlimit="3"/><mask id="_mask_eFjYZHbbmFCtYq9uVLcf313ljT6yYeQy"><path d=" M 100 92.376 L 80 103.923 L 80 80.829 L 100 69.282 L 100 92.376 Z " fill="white" stroke="none"/></mask><path d=" M 100 92.376 L 80 103.923 L 80 80.829 L 100 69.282 L 100 92.376 Z " fill="rgb(255,255,255)"/><path d=" M 100 92.376 L 80 103.923 L 80 80.829 L 100 69.282 L 100 92.376 Z " fill="rgb(255,255,255)" mask="url(#_mask_eFjYZHbbmFCtYq9uVLcf313ljT6yYeQy)" vector-effect="non-scaling-stroke" stroke-width="2" stroke="rgb(0,0,0)" stroke-linejoin="round" stroke-linecap="round" stroke-miterlimit="3"/><mask id="_mask_HnVuHefBivDfQ53OGPWQKFlwIEPJTFCB"><path d=" M 100 115.47 L 80 127.017 L 80 103.923 L 100 92.376 L 100 115.47 Z " fill="white" stroke="none"/></mask><path d=" M 100 115.47 L 80 127.017 L 80 103.923 L 100 92.376 L 100 115.47 Z " fill="rgb(255,255,255)"/><path d=" M 100 115.47 L 80 127.017 L 80 103.923 L 100 92.376 L 100 115.47 Z " fill="rgb(255,255,255)" mask="url(#_mask_HnVuHefBivDfQ53OGPWQKFlwIEPJTFCB)" vector-effect="non-scaling-stroke" stroke-width="2" stroke="rgb(0,0,0)" stroke-linejoin="round" stroke-linecap="round" stroke-miterlimit="3"/><mask id="_mask_nJPNVneaTB3sDQ0rgt53auX2x3A9WRSr"><path d=" M 120 57.735 L 100 69.282 L 100 46.188 L 120 34.641 L 120 57.735 Z " fill="white" stroke="none"/></mask><path d=" M 120 57.735 L 100 69.282 L 100 46.188 L 120 34.641 L 120 57.735 Z " fill="rgb(255,255,255)"/><path d=" M 120 57.735 L 100 69.282 L 100 46.188 L 120 34.641 L 120 57.735 Z " fill="rgb(255,255,255)" mask="url(#_mask_nJPNVneaTB3sDQ0rgt53auX2x3A9WRSr)" vector-effect="non-scaling-stroke" stroke-width="2" stroke="rgb(0,0,0)" stroke-linejoin="round" stroke-linecap="round" stroke-miterlimit="3"/><mask id="_mask_G4OH8GiRThytWg2kjA28Hs8biZPp9ho0"><path d=" M 120 80.829 L 100 92.376 L 100 69.282 L 120 57.735 L 120 80.829 Z " fill="white" stroke="none"/></mask><path d=" M 120 80.829 L 100 92.376 L 100 69.282 L 120 57.735 L 120 80.829 Z " fill="rgb(255,255,255)"/><path d=" M 120 80.829 L 100 92.376 L 100 69.282 L 120 57.735 L 120 80.829 Z " fill="rgb(255,255,255)" mask="url(#_mask_G4OH8GiRThytWg2kjA28Hs8biZPp9ho0)" vector-effect="non-scaling-stroke" stroke-width="2" stroke="rgb(0,0,0)" stroke-linejoin="round" stroke-linecap="round" stroke-miterlimit="3"/><mask id="_mask_tM5U6DRNUvZSkOan1gzoTUKHNCeS0qZD"><path d=" M 120 103.923 L 100 115.47 L 100 92.376 L 120 80.829 L 120 103.923 Z " fill="white" stroke="none"/></mask><path d=" M 120 103.923 L 100 115.47 L 100 92.376 L 120 80.829 L 120 103.923 Z " fill="rgb(255,255,255)"/><path d=" M 120 103.923 L 100 115.47 L 100 92.376 L 120 80.829 L 120 103.923 Z " fill="rgb(255,255,255)" mask="url(#_mask_tM5U6DRNUvZSkOan1gzoTUKHNCeS0qZD)" vector-effect="non-scaling-stroke" stroke-width="2" stroke="rgb(0,0,0)" stroke-linejoin="round" stroke-linecap="round" stroke-miterlimit="3"/><mask id="_mask_DhkcrGTFX6O036w86US181EjaEWpSGKn"><path d=" M 40 103.923 L 60 115.47 L 60 92.376 L 40 80.829 L 40 103.923 Z " fill="white" stroke="none"/></mask><path d=" M 40 103.923 L 60 115.47 L 60 92.376 L 40 80.829 L 40 103.923 Z " fill="rgb(255,255,255)"/><path d=" M 40 103.923 L 60 115.47 L 60 92.376 L 40 80.829 L 40 103.923 Z " fill="rgb(255,255,255)" mask="url(#_mask_DhkcrGTFX6O036w86US181EjaEWpSGKn)" vector-effect="non-scaling-stroke" stroke-width="2" stroke="rgb(0,0,0)" stroke-linejoin="round" stroke-linecap="round" stroke-miterlimit="3"/><mask id="_mask_yMOo0dD2a9urzrD5sMwfqJZOE46SplLo"><path d=" M 40 127.017 L 60 138.564 L 60 115.47 L 40 103.923 L 40 127.017 Z " fill="white" stroke="none"/></mask><path d=" M 40 127.017 L 60 138.564 L 60 115.47 L 40 103.923 L 40 127.017 Z " fill="rgb(255,255,255)"/><path d=" M 40 127.017 L 60 138.564 L 60 115.47 L 40 103.923 L 40 127.017 Z " fill="rgb(255,255,255)" mask="url(#_mask_yMOo0dD2a9urzrD5sMwfqJZOE46SplLo)" vector-effect="non-scaling-stroke" stroke-width="2" stroke="rgb(0,0,0)" stroke-linejoin="round" stroke-linecap="round" stroke-miterlimit="3"/><mask id="_mask_Ab5K4qqPj6vQFhqLthZOcWBPmlK3L5yw"><path d=" M 20 69.282 L 40 80.829 L 40 57.735 L 20 46.188 L 20 69.282 Z " fill="white" stroke="none"/></mask><path d=" M 20 69.282 L 40 80.829 L 40 57.735 L 20 46.188 L 20 69.282 Z " fill="rgb(209,209,209)"/><path d=" M 20 69.282 L 40 80.829 L 40 57.735 L 20 46.188 L 20 69.282 Z " fill="rgb(209,209,209)" mask="url(#_mask_Ab5K4qqPj6vQFhqLthZOcWBPmlK3L5yw)" vector-effect="non-scaling-stroke" stroke-width="2" stroke="rgb(0,0,0)" stroke-linejoin="round" stroke-linecap="round" stroke-miterlimit="3"/><mask id="_mask_WAZnS00Kmn8XSTJx9GFQkrC93yijmmW1"><path d=" M 20 92.376 L 40 103.923 L 40 80.829 L 20 69.282 L 20 92.376 Z " fill="white" stroke="none"/></mask><path d=" M 20 92.376 L 40 103.923 L 40 80.829 L 20 69.282 L 20 92.376 Z " fill="rgb(209,209,209)"/><path d=" M 20 92.376 L 40 103.923 L 40 80.829 L 20 69.282 L 20 92.376 Z " fill="rgb(209,209,209)" mask="url(#_mask_WAZnS00Kmn8XSTJx9GFQkrC93yijmmW1)" vector-effect="non-scaling-stroke" stroke-width="2" stroke="rgb(0,0,0)" stroke-linejoin="round" stroke-linecap="round" stroke-miterlimit="3"/><mask id="_mask_z42laeVI7ESZlSlyBIkA5Q1f866GKoC8"><path d=" M 20 115.47 L 40 127.017 L 40 103.923 L 20 92.376 L 20 115.47 Z " fill="white" stroke="none"/></mask><path d=" M 20 115.47 L 40 127.017 L 40 103.923 L 20 92.376 L 20 115.47 Z " fill="rgb(209,209,209)"/><path d=" M 20 115.47 L 40 127.017 L 40 103.923 L 20 92.376 L 20 115.47 Z " fill="rgb(209,209,209)" mask="url(#_mask_z42laeVI7ESZlSlyBIkA5Q1f866GKoC8)" vector-effect="non-scaling-stroke" stroke-width="2" stroke="rgb(0,0,0)" stroke-linejoin="round" stroke-linecap="round" stroke-miterlimit="3"/><mask id="_mask_5hFMYGtk1Kmh3gZ4wxsGWZHoNmUFRarH"><path d=" M 0 57.735 L 20 69.282 L 20 46.188 L 0 34.641 L 0 57.735 Z " fill="white" stroke="none"/></mask><path d=" M 0 57.735 L 20 69.282 L 20 46.188 L 0 34.641 L 0 57.735 Z " fill="rgb(255,255,255)"/><path d=" M 0 57.735 L 20 69.282 L 20 46.188 L 0 34.641 L 0 57.735 Z " fill="rgb(255,255,255)" mask="url(#_mask_5hFMYGtk1Kmh3gZ4wxsGWZHoNmUFRarH)" vector-effect="non-scaling-stroke" stroke-width="2" stroke="rgb(0,0,0)" stroke-linejoin="round" stroke-linecap="round" stroke-miterlimit="3"/><mask id="_mask_2rcKs7R2XqhOnHVSPb4VCKuZoXc09c7j"><path d=" M 0 80.829 L 20 92.376 L 20 69.282 L 0 57.735 L 0 80.829 Z " fill="white" stroke="none"/></mask><path d=" M 0 80.829 L 20 92.376 L 20 69.282 L 0 57.735 L 0 80.829 Z " fill="rgb(255,255,255)"/><path d=" M 0 80.829 L 20 92.376 L 20 69.282 L 0 57.735 L 0 80.829 Z " fill="rgb(255,255,255)" mask="url(#_mask_2rcKs7R2XqhOnHVSPb4VCKuZoXc09c7j)" vector-effect="non-scaling-stroke" stroke-width="2" stroke="rgb(0,0,0)" stroke-linejoin="round" stroke-linecap="round" stroke-miterlimit="3"/><mask id="_mask_2b9gLXj1bioCY0TTDhypn2OzVcEAqZou"><path d=" M 0 103.923 L 20 115.47 L 20 92.376 L 0 80.829 L 0 103.923 Z " fill="white" stroke="none"/></mask><path d=" M 0 103.923 L 20 115.47 L 20 92.376 L 0 80.829 L 0 103.923 Z " fill="rgb(255,255,255)"/><path d=" M 0 103.923 L 20 115.47 L 20 92.376 L 0 80.829 L 0 103.923 Z " fill="rgb(255,255,255)" mask="url(#_mask_2b9gLXj1bioCY0TTDhypn2OzVcEAqZou)" vector-effect="non-scaling-stroke" stroke-width="2" stroke="rgb(0,0,0)" stroke-linejoin="round" stroke-linecap="round" stroke-miterlimit="3"/><mask id="_mask_8PD2Z7w0wer8ciVmfGHIE98cFyxhZEjs"><path d=" M 40 11.547 L 60 23.094 L 40 34.641 L 20 23.094 L 40 11.547 Z " fill="white" stroke="none"/></mask><path d=" M 40 11.547 L 60 23.094 L 40 34.641 L 20 23.094 L 40 11.547 Z " fill="rgb(255,255,255)"/><path d=" M 40 11.547 L 60 23.094 L 40 34.641 L 20 23.094 L 40 11.547 Z " fill="rgb(255,255,255)" mask="url(#_mask_8PD2Z7w0wer8ciVmfGHIE98cFyxhZEjs)" vector-effect="non-scaling-stroke" stroke-width="2" stroke="rgb(0,0,0)" stroke-linejoin="round" stroke-linecap="round" stroke-miterlimit="3"/><mask id="_mask_mbrlDlmndO9TNpCRotUCwaP9ZOWgx1Lq"><path d=" M 60 23.094 L 80 34.641 L 60 46.188 L 40 34.641 L 60 23.094 Z " fill="white" stroke="none"/></mask><path d=" M 60 23.094 L 80 34.641 L 60 46.188 L 40 34.641 L 60 23.094 Z " fill="rgb(209,209,209)"/><path d=" M 60 23.094 L 80 34.641 L 60 46.188 L 40 34.641 L 60 23.094 Z " fill="rgb(209,209,209)" mask="url(#_mask_mbrlDlmndO9TNpCRotUCwaP9ZOWgx1Lq)" vector-effect="non-scaling-stroke" stroke-width="2" stroke="rgb(0,0,0)" stroke-linejoin="round" stroke-linecap="round" stroke-miterlimit="3"/><mask id="_mask_wtwMdPK6YoUlYPnL9Jdy0VAjVrPYm0yM"><path d=" M 80 34.641 L 100 46.188 L 80 57.735 L 60 46.188 L 80 34.641 Z " fill="white" stroke="none"/></mask><path d=" M 80 34.641 L 100 46.188 L 80 57.735 L 60 46.188 L 80 34.641 Z " fill="rgb(255,255,255)"/><path d=" M 80 34.641 L 100 46.188 L 80 57.735 L 60 46.188 L 80 34.641 Z " fill="rgb(255,255,255)" mask="url(#_mask_wtwMdPK6YoUlYPnL9Jdy0VAjVrPYm0yM)" vector-effect="non-scaling-stroke" stroke-width="2" stroke="rgb(0,0,0)" stroke-linejoin="round" stroke-linecap="round" stroke-miterlimit="3"/><mask id="_mask_YevfreYs39lQjSBKdKwUudE5LJ4FvTbD"><path d=" M 60 0 L 80 11.547 L 60 23.094 L 40 11.547 L 60 0 Z " fill="white" stroke="none"/></mask><path d=" M 60 0 L 80 11.547 L 60 23.094 L 40 11.547 L 60 0 Z " fill="rgb(255,255,255)"/><path d=" M 60 0 L 80 11.547 L 60 23.094 L 40 11.547 L 60 0 Z " fill="rgb(255,255,255)" mask="url(#_mask_YevfreYs39lQjSBKdKwUudE5LJ4FvTbD)" vector-effect="non-scaling-stroke" stroke-width="2" stroke="rgb(0,0,0)" stroke-linejoin="round" stroke-linecap="round" stroke-miterlimit="3"/><mask id="_mask_KJmf86uDaYh4MuBbEpCAHxJl9uPg6pTV"><path d=" M 80 11.547 L 100 23.094 L 80 34.641 L 60 23.094 L 80 11.547 Z " fill="white" stroke="none"/></mask><path d=" M 80 11.547 L 100 23.094 L 80 34.641 L 60 23.094 L 80 11.547 Z " fill="rgb(209,209,209)"/><path d=" M 80 11.547 L 100 23.094 L 80 34.641 L 60 23.094 L 80 11.547 Z " fill="rgb(209,209,209)" mask="url(#_mask_KJmf86uDaYh4MuBbEpCAHxJl9uPg6pTV)" vector-effect="non-scaling-stroke" stroke-width="2" stroke="rgb(0,0,0)" stroke-linejoin="round" stroke-linecap="round" stroke-miterlimit="3"/><mask id="_mask_wfIhSpvye80EFmzbY95kRNTtcJIiaoOg"><path d=" M 100 23.094 L 120 34.641 L 100 46.188 L 80 34.641 L 100 23.094 Z " fill="white" stroke="none"/></mask><path d=" M 100 23.094 L 120 34.641 L 100 46.188 L 80 34.641 L 100 23.094 Z " fill="rgb(255,255,255)"/><path d=" M 100 23.094 L 120 34.641 L 100 46.188 L 80 34.641 L 100 23.094 Z " fill="rgb(255,255,255)" mask="url(#_mask_wfIhSpvye80EFmzbY95kRNTtcJIiaoOg)" vector-effect="non-scaling-stroke" stroke-width="2" stroke="rgb(0,0,0)" stroke-linejoin="round" stroke-linecap="round" stroke-miterlimit="3"/><path d=" M 60 0 L 120 34.641 L 120 103.923 L 60 138.564 L 0 103.923 L 0 34.641 L 60 0 Z " fill="none" vector-effect="non-scaling-stroke" stroke-width="2" stroke="rgb(0,0,0)" stroke-linejoin="round" stroke-linecap="round" stroke-miterlimit="3"/><path d=" M 80 23.094 L 30 51.962 L 30 109.697" fill="none" vector-effect="non-scaling-stroke" stroke-width="5" stroke="rgb(153,0,255)" stroke-linejoin="miter" stroke-linecap="square" stroke-miterlimit="3"/><path d=" M 24.41 106.04 L 30 117.221 L 35.59 106.04 Z " fill="rgb(153,0,255)" stroke="none"/></g></svg>