<?xml version="1.0" encoding="UTF-8" standalone="no"?><!-- Generator: Gravit.io --><svg xmlns="http://www.w3.org/2000/svg" xmlns:xlink="http://www.w3.org/1999/xlink" style="isolation:isolate" viewBox="-1 -1 122 140.564" width="122pt" height="140.564pt"><defs><clipPath id="_clipPath_bqK5J2imzDsDDlUK6qresf9cOjJkhj4g"><rect x="-1" y="-1" width="122" height="140.564"/></clipPath></defs><g clip-path="url(#_clipPath_bqK5J2imzDsDDlUK6qresf9cOjJkhj4g)"><mask id="_mask_X3kRhFwwbhj1cHXCpRy6evh1PkkyB4F6"><path d=" M 120 57.735 L 100 69.282 L 100 46.188 L 120 34.641 L 120 57.735 Z " fill="white" stroke="none"/></mask><path d=" M 120 57.735 L 100 69.282 L 100 46.188 L 120 34.641 L 120 57.735 Z " fill="rgb(209,209,209)"/><path d=" M 120 57.735 L 100 69.282 L 100 46.188 L 120 34.641 L 120 57.735 Z " fill="rgb(209,209,209)" mask="url(#_mask_X3kRhFwwbhj1cHXCpRy6evh1PkkyB4F6)" vector-effect="non-scaling-stroke" stroke-width="2" stroke="rgb(0,0,0)" stroke-linejoin="round" stroke-linecap="round" stroke-miterlimit="3"/><mask id="_mask_VbrBsZEeI0cOTxPWFGzy5MafA4IW9L9Z"><path d=" M 100 69.282 L 80 80.829 L 80 57.735 L 100 46.188 L 100 69.282 Z " fill="white" stroke="none"/></mask><path d=" M 100 69.282 L 80 80.829 L 80 57.735 L 100 46.188 L 100 69.282 Z " fill="rgb(209,209,209)"/><path d=" M 100 69.282 L 80 80.829 L 80 57.735 L 100 46.188 L 100 69.282 Z " fill="rgb(209,209,209)" mask="url(#_mask_VbrBsZEeI0cOTxPWFGzy5MafA4IW9L9Z)" vector-effect="non-scaling-stroke" stroke-width="2" stroke="rgb(0,0,0)" stroke-linejoin="round" stroke-linecap="round" stroke-miterlimit="3"/><mask id="_mask_oKFIT7wxeBeGMKGgb1hjtd1tU1xU3BKJ"><path d=" M 80 80.829 L 60 92.376 L 60 69.282 L 80 57.735 L 80 80.829 Z " fill="white" stroke="none"/></mask><path d=" M 80 80.829 L 60 92.376 L 60 69.282 L 80 57.735 L 80 80.829 Z " fill="rgb(209,209,209)"/><path d=" M 80 80.829 L 60 92.376 L 60 69.282 L 80 57.735 L 80 80.829 Z " fill="rgb(209,209,209)" mask="url(#_mask_oKFIT7wxeBeGMKGgb1hjtd1tU1xU3BKJ)" vector-effect="non-scaling-stroke" stroke-width="2" stroke="rgb(0,0,0)" stroke-linejoin="round" stroke-linecap="round" stroke-miterlimit="3"/><mask id="_mask_Jppsv2W0orKjCz3e1EIFbaWB3gn8WskW"><path d=" M 60 46.188 L 40 57.735 L 60 69.282 L 80 57.735 L 60 46.188 Z " fill="white" stroke="none"/></mask><path d=" M 60 46.188 L 40 57.735 L 60 69.282 L 80 57.735 L 60 46.188 Z " fill="rgb(209,209,209)"/><path d=" M 60 46.188 L 40 57.735 L 60 69.282 L 80 57.735 L 60 46.188 Z " fill="rgb(209,209,209)" mask="url(#_mask_Jppsv2W0orKjCz3e1EIFbaWB3gn8WskW)" vector-effect="non-scaling-stroke" stroke-width="2" stroke="rgb(0,0,0)" stroke-linejoin="round" stroke-linecap="round" stroke-miterlimit="3"/><mask id="_mask_YEOzIx0bO364sioT3jUmPAdh7DniSJ4G"><path d=" M 40 80.829 L 40 57.735 L 60 69.282 L 60 92.376 L 40 80.829 Z " fill="white" stroke="none"/></mask><path d=" M 40 80.829 L 40 57.735 L 60 69.282 L 60 92.376 L 40 80.829 Z " fill="rgb(209,209,209)"/><path d=" M 40 80.829 L 40 57.735 L 60 69.282 L 60 92.376 L 40 80.829 Z " fill="rgb(209,209,209)" mask="url(#_mask_YEOzIx0bO364sioT3jUmPAdh7DniSJ4G)" vector-effect="non-scaling-stroke" stroke-width="2" stroke="rgb(0,0,0)" stroke-linejoin="round" stroke-linecap="round" stroke-miterlimit="3"/><mask id="_mask_MFCHOdCLAGUj28wPVzVhUrPBg3UAVioR"><path d=" M 20 69.282 L 20 46.188 L 40 57.735 L 40 80.829 L 20 69.282 Z " fill="white" stroke="none"/></mask><path d=" M 20 69.282 L 20 46.188 L 40 57.735 L 40 80.829 L 20 69.282 Z " fill="rgb(209,209,209)"/><path d=" M 20 69.282 L 20 46.188 L 40 57.735 L 40 80.829 L 20 69.282 Z " fill="rgb(209,209,209)" mask="url(#_mask_MFCHOdCLAGUj28wPVzVhUrPBg3UAVioR)" vector-effect="non-scaling-stroke" stroke-width="2" stroke="rgb(0,0,0)" stroke-linejoin="round" stroke-linecap="round" stroke-miterlimit="3"/><mask id="_mask_RvgEjyildbwid0gWRFPJFH2zSAtpclrK"><path d=" M 0 57.735 L 0 34.641 L 20 46.188 L 20 69.282 L 0 57.735 Z " fill="white" stroke="none"/></mask><path d=" M 0 57.735 L 0 34.641 L 20 46.188 L 20 69.282 L 0 57.735 Z " fill="rgb(255,255,255)"/><path d=" M 0 57.735 L 0 34.641 L 20 46.188 L 20 69.282 L 0 57.735 Z " fill="rgb(255,255,255)" mask="url(#_mask_RvgEjyildbwid0gWRFPJFH2zSAtpclrK)" vector-effect="non-scaling-stroke" stroke-width="2" stroke="rgb(0,0,0)" stroke-linejoin="round" stroke-linecap="round" stroke-miterlimit="3"/><mask id="_mask_61B67KcddXHt2WHOOiXzbV7HZ8qqYZee"><path d=" M 40 103.923 L 40 80.829 L 60 92.376 L 60 115.47 L 40 103.923 Z " fill="white" stroke="none"/></mask><path d=" M 40 103.923 L 40 80.829 L 60 92.376 L 60 115.47 L 40 103.923 Z " fill="rgb(209,209,209)"/><path d=" M 40 103.923 L 40 80.829 L 60 92.376 L 60 115.47 L 40 103.923 Z " fill="rgb(209,209,209)" mask="url(#_mask_61B67KcddXHt2WHOOiXzbV7HZ8qqYZee)" vector-effect="non-scaling-stroke" stroke-width="2" stroke="rgb(0,0,0)" stroke-linejoin="round" stroke-linecap="round" stroke-miterlimit="3"/><mask id="_mask_Skr1ZJbmLlzA9xgvA9EhDz8F8sW4odrt"><path d=" M 20 92.376 L 20 69.282 L 40 80.829 L 40 103.923 L 20 92.376 Z " fill="white" stroke="none"/></mask><path d=" M 20 92.376 L 20 69.282 L 40 80.829 L 40 103.923 L 20 92.376 Z " fill="rgb(209,209,209)"/><path d=" M 20 92.376 L 20 69.282 L 40 80.829 L 40 103.923 L 20 92.376 Z " fill="rgb(209,209,209)" mask="url(#_mask_Skr1ZJbmLlzA9xgvA9EhDz8F8sW4odrt)" vector-effect="non-scaling-stroke" stroke-width="2" stroke="rgb(0,0,0)" stroke-linejoin="round" stroke-linecap="round" stroke-miterlimit="3"/><mask id="_mask_HlhlJAExG5KiaNkGTBSjPR93zc0GhjBE"><path d=" M 0 80.829 L 0 57.735 L 20 69.282 L 20 92.376 L 0 80.829 Z " fill="white" stroke="none"/></mask><path d=" M 0 80.829 L 0 57.735 L 20 69.282 L 20 92.376 L 0 80.829 Z " fill="rgb(255,255,255)"/><path d=" M 0 80.829 L 0 57.735 L 20 69.282 L 20 92.376 L 0 80.829 Z " fill="rgb(255,255,255)" mask="url(#_mask_HlhlJAExG5KiaNkGTBSjPR93zc0GhjBE)" vector-effect="non-scaling-stroke" stroke-width="2" stroke="rgb(0,0,0)" stroke-linejoin="round" stroke-linecap="round" stroke-miterlimit="3"/><mask id="_mask_Vjju5s0vSHiBFSCyWYiDEAYuImAZubp4"><path d=" M 40 127.017 L 40 103.923 L 60 115.47 L 60 138.564 L 40 127.017 Z " fill="white" stroke="none"/></mask><path d=" M 40 127.017 L 40 103.923 L 60 115.47 L 60 138.564 L 40 127.017 Z " fill="rgb(209,209,209)"/><path d=" M 40 127.017 L 40 103.923 L 60 115.47 L 60 138.564 L 40 127.017 Z " fill="rgb(209,209,209)" mask="url(#_mask_Vjju5s0vSHiBFSCyWYiDEAYuImAZubp4)" vector-effect="non-scaling-stroke" stroke-width="2" stroke="rgb(0,0,0)" stroke-linejoin="round" stroke-linecap="round" stroke-miterlimit="3"/><mask id="_mask_3629QOO6NJvcRQuuXgtWtGudV8sWnNWL"><path d=" M 20 115.47 L 20 92.376 L 40 103.923 L 40 127.017 L 20 115.47 Z " fill="white" stroke="none"/></mask><path d=" M 20 115.47 L 20 92.376 L 40 103.923 L 40 127.017 L 20 115.47 Z " fill="rgb(209,209,209)"/><path d=" M 20 115.47 L 20 92.376 L 40 103.923 L 40 127.017 L 20 115.47 Z " fill="rgb(209,209,209)" mask="url(#_mask_3629QOO6NJvcRQuuXgtWtGudV8sWnNWL)" vector-effect="non-scaling-stroke" stroke-width="2" stroke="rgb(0,0,0)" stroke-linejoin="round" stroke-linecap="round" stroke-miterlimit="3"/><mask id="_mask_XF4Irz0Xl5ME17Erw6v5x4cBu2olvINx"><path d=" M 0 103.923 L 0 80.829 L 20 92.376 L 20 115.47 L 0 103.923 Z " fill="white" stroke="none"/></mask><path d=" M 0 103.923 L 0 80.829 L 20 92.376 L 20 115.47 L 0 103.923 Z " fill="rgb(255,255,255)"/><path d=" M 0 103.923 L 0 80.829 L 20 92.376 L 20 115.47 L 0 103.923 Z " fill="rgb(255,255,255)" mask="url(#_mask_XF4Irz0Xl5ME17Erw6v5x4cBu2olvINx)" vector-effect="non-scaling-stroke" stroke-width="2" stroke="rgb(0,0,0)" stroke-linejoin="round" stroke-linecap="round" stroke-miterlimit="3"/><mask id="_mask_A8hmyyjo88q9C1KdXFnLC7J7CKGQQjiI"><path d=" M 40 34.641 L 20 46.188 L 40 57.735 L 60 46.188 L 40 34.641 Z " fill="white" stroke="none"/></mask><path d=" M 40 34.641 L 20 46.188 L 40 57.735 L 60 46.188 L 40 34.641 Z " fill="rgb(209,209,209)"/><path d=" M 40 34.641 L 20 46.188 L 40 57.735 L 60 46.188 L 40 34.641 Z " fill="rgb(209,209,209)" mask="url(#_mask_A8hmyyjo88q9C1KdXFnLC7J7CKGQQjiI)" vector-effect="non-scaling-stroke" stroke-width="2" stroke="rgb(0,0,0)" stroke-linejoin="round" stroke-linecap="round" stroke-miterlimit="3"/><mask id="_mask_1FZso3QL6mTQRBKRtWmm3eMhHDCm6Cbk"><path d=" M 20 23.094 L 0 34.641 L 20 46.188 L 40 34.641 L 20 23.094 Z " fill="white" stroke="none"/></mask><path d=" M 20 23.094 L 0 34.641 L 20 46.188 L 40 34.641 L 20 23.094 Z " fill="rgb(255,255,255)"/><path d=" M 20 23.094 L 0 34.641 L 20 46.188 L 40 34.641 L 20 23.094 Z " fill="rgb(255,255,255)" mask="url(#_mask_1FZso3QL6mTQRBKRtWmm3eMhHDCm6Cbk)" vector-effect="non-scaling-stroke" stroke-width="2" stroke="rgb(0,0,0)" stroke-linejoin="round" stroke-linecap="round" stroke-miterlimit="3"/><mask id="_mask_h5WyEYtJp4gTKkHsVSuQQ1NNGJyTZufF"><path d=" M 80 34.641 L 60 46.188 L 80 57.735 L 100 46.188 L 80 34.641 Z " fill="white" stroke="none"/></mask><path d=" M 80 34.641 L 60 46.188 L 80 57.735 L 100 46.188 L 80 34.641 Z " fill="rgb(209,209,209)"/><path d=" M 80 34.641 L 60 46.188 L 80 57.735 L 100 46.188 L 80 34.641 Z " fill="rgb(209,209,209)" mask="url(#_mask_h5WyEYtJp4gTKkHsVSuQQ1NNGJyTZufF)" vector-effect="non-scaling-stroke" stroke-width="2" stroke="rgb(0,0,0)" stroke-linejoin="round" stroke-linecap="round" stroke-miterlimit="3"/><mask id="_mask_f6J3YioFzhU2JuI4cWBSZBOTHFVfOCpS"><path d=" M 60 23.094 L 40 34.641 L 60 46.188 L 80 34.641 L 60 23.094 Z " fill="white" stroke="none"/></mask><path d=" M 60 23.094 L 40 34.641 L 60 46.188 L 80 34.641 L 60 23.094 Z " fill="rgb(209,209,209)"/><path d=" M 60 23.094 L 40 34.641 L 60 46.188 L 80 34.641 L 60 23.094 Z " fill="rgb(209,209,209)" mask="url(#_mask_f6J3YioFzhU2JuI4cWBSZBOTHFVfOCpS)" vector-effect="non-scaling-stroke" stroke-width="2" stroke="rgb(0,0,0)" stroke-linejoin="round" stroke-linecap="round" stroke-miterlimit="3"/><mask id="_mask_LV0EO492DtJMvadYikeq8SjAKEuTQz1s"><path d=" M 40 11.547 L 20 23.094 L 40 34.641 L 60 23.094 L 40 11.547 Z " fill="white" stroke="none"/></mask><path d=" M 40 11.547 L 20 23.094 L 40 34.641 L 60 23.094 L 40 11.547 Z " fill="rgb(255,255,255)"/><path d=" M 40 11.547 L 20 23.094 L 40 34.641 L 60 23.094 L 40 11.547 Z " fill="rgb(255,255,255)" mask="url(#_mask_LV0EO492DtJMvadYikeq8SjAKEuTQz1s)" vector-effect="non-scaling-stroke" stroke-width="2" stroke="rgb(0,0,0)" stroke-linejoin="round" stroke-linecap="round" stroke-miterlimit="3"/><mask id="_mask_JMzoHsc1UXDTXpcJb5hezmTPahiqXfnp"><path d=" M 100 23.094 L 80 34.641 L 100 46.188 L 120 34.641 L 100 23.094 Z " fill="white" stroke="none"/></mask><path d=" M 100 23.094 L 80 34.641 L 100 46.188 L 120 34.641 L 100 23.094 Z " fill="rgb(209,209,209)"/><path d=" M 100 23.094 L 80 34.641 L 100 46.188 L 120 34.641 L 100 23.094 Z " fill="rgb(209,209,209)" mask="url(#_mask_JMzoHsc1UXDTXpcJb5hezmTPahiqXfnp)" vector-effect="non-scaling-stroke" stroke-width="2" stroke="rgb(0,0,0)" stroke-linejoin="round" stroke-linecap="round" stroke-miterlimit="3"/><mask id="_mask_LImyNuBMhulVPzbV3nFFWMzn56pcewDT"><path d=" M 80 11.547 L 60 23.094 L 80 34.641 L 100 23.094 L 80 11.547 Z " fill="white" stroke="none"/></mask><path d=" M 80 11.547 L 60 23.094 L 80 34.641 L 100 23.094 L 80 11.547 Z " fill="rgb(209,209,209)"/><path d=" M 80 11.547 L 60 23.094 L 80 34.641 L 100 23.094 L 80 11.547 Z " fill="rgb(209,209,209)" mask="url(#_mask_LImyNuBMhulVPzbV3nFFWMzn56pcewDT)" vector-effect="non-scaling-stroke" stroke-width="2" stroke="rgb(0,0,0)" stroke-linejoin="round" stroke-linecap="round" stroke-miterlimit="3"/><mask id="_mask_xN5LovPS3JpIjmJJbE28XTr6r51TjkAD"><path d=" M 60 0 L 40 11.547 L 60 23.094 L 80 11.547 L 60 0 Z " fill="white" stroke="none"/></mask><path d=" M 60 0 L 40 11.547 L 60 23.094 L 80 11.547 L 60 0 Z " fill="rgb(255,255,255)"/><path d=" M 60 0 L 40 11.547 L 60 23.094 L 80 11.547 L 60 0 Z " fill="rgb(255,255,255)" mask="url(#_mask_xN5LovPS3JpIjmJJbE28XTr6r51TjkAD)" vector-effect="non-scaling-stroke" stroke-width="2" stroke="rgb(0,0,0)" stroke-linejoin="round" stroke-linecap="round" stroke-miterlimit="3"/><mask id="_mask_vBxsckQ6pYPNY79L9teMVnLRiJRZIaAc"><path d=" M 120 80.829 L 100 92.376 L 100 69.282 L 120 57.735 L 120 80.829 Z " fill="white" stroke="none"/></mask><path d=" M 120 80.829 L 100 92.376 L 100 69.282 L 120 57.735 L 120 80.829 Z " fill="rgb(209,209,209)"/><path d=" M 120 80.829 L 100 92.376 L 100 69.282 L 120 57.735 L 120 80.829 Z " fill="rgb(209,209,209)" mask="url(#_mask_vBxsckQ6pYPNY79L9teMVnLRiJRZIaAc)" vector-effect="non-scaling-stroke" stroke-width="2" stroke="rgb(0,0,0)" stroke-linejoin="round" stroke-linecap="round" stroke-miterlimit="3"/><mask id="_mask_AGe7ortYA4dvGH3sATcseCoF0Vy5udml"><path d=" M 100 92.376 L 80 103.923 L 80 80.829 L 100 69.282 L 100 92.376 Z " fill="white" stroke="none"/></mask><path d=" M 100 92.376 L 80 103.923 L 80 80.829 L 100 69.282 L 100 92.376 Z " fill="rgb(209,209,209)"/><path d=" M 100 92.376 L 80 103.923 L 80 80.829 L 100 69.282 L 100 92.376 Z " fill="rgb(209,209,209)" mask="url(#_mask_AGe7ortYA4dvGH3sATcseCoF0Vy5udml)" vector-effect="non-scaling-stroke" stroke-width="2" stroke="rgb(0,0,0)" stroke-linejoin="round" stroke-linecap="round" stroke-miterlimit="3"/><mask id="_mask_SSCRbBKeg5SfgLmxn7HfVTcsscyX4ZbX"><path d=" M 80 103.923 L 60 115.47 L 60 92.376 L 80 80.829 L 80 103.923 Z " fill="white" stroke="none"/></mask><path d=" M 80 103.923 L 60 115.47 L 60 92.376 L 80 80.829 L 80 103.923 Z " fill="rgb(209,209,209)"/><path d=" M 80 103.923 L 60 115.47 L 60 92.376 L 80 80.829 L 80 103.923 Z " fill="rgb(209,209,209)" mask="url(#_mask_SSCRbBKeg5SfgLmxn7HfVTcsscyX4ZbX)" vector-effect="non-scaling-stroke" stroke-width="2" stroke="rgb(0,0,0)" stroke-linejoin="round" stroke-linecap="round" stroke-miterlimit="3"/><mask id="_mask_nQh1qzOl8tCaBMcWbvdwmHMn9oGfkOkH"><path d=" M 120 103.923 L 100 115.47 L 100 92.376 L 120 80.829 L 120 103.923 Z " fill="white" stroke="none"/></mask><path d=" M 120 103.923 L 100 115.47 L 100 92.376 L 120 80.829 L 120 103.923 Z " fill="rgb(209,209,209)"/><path d=" M 120 103.923 L 100 115.47 L 100 92.376 L 120 80.829 L 120 103.923 Z " fill="rgb(209,209,209)" mask="url(#_mask_nQh1qzOl8tCaBMcWbvdwmHMn9oGfkOkH)" vector-effect="non-scaling-stroke" stroke-width="2" stroke="rgb(0,0,0)" stroke-linejoin="round" stroke-linecap="round" stroke-miterlimit="3"/><mask id="_mask_CivzE5el8jkQtFZJDrv0yNAqg5PDnOAo"><path d=" M 100 115.47 L 80 127.017 L 80 103.923 L 100 92.376 L 100 115.47 Z " fill="white" stroke="none"/></mask><path d=" M 100 115.47 L 80 127.017 L 80 103.923 L 100 92.376 L 100 115.47 Z " fill="rgb(209,209,209)"/><path d=" M 100 115.47 L 80 127.017 L 80 103.923 L 100 92.376 L 100 115.47 Z " fill="rgb(209,209,209)" mask="url(#_mask_CivzE5el8jkQtFZJDrv0yNAqg5PDnOAo)" vector-effect="non-scaling-stroke" stroke-width="2" stroke="rgb(0,0,0)" stroke-linejoin="round" stroke-linecap="round" stroke-miterlimit="3"/><mask id="_mask_zaHi43StrZ2EJn4aecjQ9JWjy3BZbBhA"><path d=" M 80 127.017 L 60 138.564 L 60 115.47 L 80 103.923 L 80 127.017 Z " fill="white" stroke="none"/></mask><path d=" M 80 127.017 L 60 138.564 L 60 115.47 L 80 103.923 L 80 127.017 Z " fill="rgb(209,209,209)"/><path d=" M 80 127.017 L 60 138.564 L 60 115.47 L 80 103.923 L 80 127.017 Z " fill="rgb(209,209,209)" mask="url(#_mask_zaHi43StrZ2EJn4aecjQ9JWjy3BZbBhA)" vector-effect="non-scaling-stroke" stroke-width="2" stroke="rgb(0,0,0)" stroke-linejoin="round" stroke-linecap="round" stroke-miterlimit="3"/><path d=" M 120 103.923 L 60 138.564 L 0 103.923 L 0 34.641 L 60 0 L 120 34.641 L 120 103.923 Z " fill="none" vector-effect="non-scaling-stroke" stroke-width="2" stroke="rgb(0,0,0)" stroke-linejoin="round" stroke-linecap="round" stroke-miterlimit="3"/><line x1="50" y1="51.962" x2="90" y2="28.868" vector-effect="non-scaling-stroke" stroke-width="5" stroke="rgb(153,0,255)" stroke-linejoin="miter" stroke-linecap="square" stroke-miterlimit="3"/><path d=" M 89.629 35.537 L 96.516 25.105 L 84.039 25.854 Z " fill="rgb(153,0,255)" stroke="none"/></g></svg>