<?xml version="1.0" encoding="UTF-8" standalone="no"?><!-- Generator: Gravit.io --><svg xmlns="http://www.w3.org/2000/svg" xmlns:xlink="http://www.w3.org/1999/xlink" style="isolation:isolate" viewBox="-1 -1 122 140.564" width="122pt" height="140.564pt"><defs><clipPath id="_clipPath_I2AIs2EB3uygQ7DplmwH3DmuJL0rE52f"><rect x="-1" y="-1" width="122" height="140.564"/></clipPath></defs><g clip-path="url(#_clipPath_I2AIs2EB3uygQ7DplmwH3DmuJL0rE52f)"><mask id="_mask_jW2D2mBUt1pzdwJQTVYZ2ELtf3rGWfR6"><path d=" M 120 57.735 L 100 69.282 L 100 46.188 L 120 34.641 L 120 57.735 Z " fill="white" stroke="none"/></mask><path d=" M 120 57.735 L 100 69.282 L 100 46.188 L 120 34.641 L 120 57.735 Z " fill="rgb(255,255,255)"/><path d=" M 120 57.735 L 100 69.282 L 100 46.188 L 120 34.641 L 120 57.735 Z " fill="rgb(255,255,255)" mask="url(#_mask_jW2D2mBUt1pzdwJQTVYZ2ELtf3rGWfR6)" vector-effect="non-scaling-stroke" stroke-width="2" stroke="rgb(0,0,0)" stroke-linejoin="round" stroke-linecap="round" stroke-miterlimit="3"/><mask id="_mask_oENQTFqAbOLYqlAsji05YV84WIbwGNB7"><path d=" M 100 69.282 L 80 80.829 L 80 57.735 L 100 46.188 L 100 69.282 Z " fill="white" stroke="none"/></mask><path d=" M 100 69.282 L 80 80.829 L 80 57.735 L 100 46.188 L 100 69.282 Z " fill="rgb(209,209,209)"/><path d=" M 100 69.282 L 80 80.829 L 80 57.735 L 100 46.188 L 100 69.282 Z " fill="rgb(209,209,209)" mask="url(#_mask_oENQTFqAbOLYqlAsji05YV84WIbwGNB7)" vector-effect="non-scaling-stroke" stroke-width="2" stroke="rgb(0,0,0)" stroke-linejoin="round" stroke-linecap="round" stroke-miterlimit="3"/><mask id="_mask_OHWxYfek3CKw6O5glrtRVjVpSOWOCKyZ"><path d=" M 80 80.829 L 60 92.376 L 60 69.282 L 80 57.735 L 80 80.829 Z " fill="white" stroke="none"/></mask><path d=" M 80 80.829 L 60 92.376 L 60 69.282 L 80 57.735 L 80 80.829 Z " fill="rgb(255,255,255)"/><path d=" M 80 80.829 L 60 92.376 L 60 69.282 L 80 57.735 L 80 80.829 Z " fill="rgb(255,255,255)" mask="url(#_mask_OHWxYfek3CKw6O5glrtRVjVpSOWOCKyZ)" vector-effect="non-scaling-stroke" stroke-width="2" stroke="rgb(0,0,0)" stroke-linejoin="round" stroke-linecap="round" stroke-miterlimit="3"/><mask id="_mask_4ajNr5h8ltgQWmXp5b9wttYOzDI9Yxfy"><path d=" M 60 46.188 L 40 57.735 L 60 69.282 L 80 57.735 L 60 46.188 Z " fill="white" stroke="none"/></mask><path d=" M 60 46.188 L 40 57.735 L 60 69.282 L 80 57.735 L 60 46.188 Z " fill="rgb(255,255,255)"/><path d=" M 60 46.188 L 40 57.735 L 60 69.282 L 80 57.735 L 60 46.188 Z " fill="rgb(255,255,255)" mask="url(#_mask_4ajNr5h8ltgQWmXp5b9wttYOzDI9Yxfy)" vector-effect="non-scaling-stroke" stroke-width="2" stroke="rgb(0,0,0)" stroke-linejoin="round" stroke-linecap="round" stroke-miterlimit="3"/><mask id="_mask_dg6dKphtVKBHhPfGnWGV75q6nc8bzdmj"><path d=" M 40 80.829 L 40 57.735 L 60 69.282 L 60 92.376 L 40 80.829 Z " fill="white" stroke="none"/></mask><path d=" M 40 80.829 L 40 57.735 L 60 69.282 L 60 92.376 L 40 80.829 Z " fill="rgb(255,255,255)"/><path d=" M 40 80.829 L 40 57.735 L 60 69.282 L 60 92.376 L 40 80.829 Z " fill="rgb(255,255,255)" mask="url(#_mask_dg6dKphtVKBHhPfGnWGV75q6nc8bzdmj)" vector-effect="non-scaling-stroke" stroke-width="2" stroke="rgb(0,0,0)" stroke-linejoin="round" stroke-linecap="round" stroke-miterlimit="3"/><mask id="_mask_OEYTIc8x6KeIZX3NafK6zbQ1dWSMcOBh"><path d=" M 20 69.282 L 20 46.188 L 40 57.735 L 40 80.829 L 20 69.282 Z " fill="white" stroke="none"/></mask><path d=" M 20 69.282 L 20 46.188 L 40 57.735 L 40 80.829 L 20 69.282 Z " fill="rgb(255,255,255)"/><path d=" M 20 69.282 L 20 46.188 L 40 57.735 L 40 80.829 L 20 69.282 Z " fill="rgb(255,255,255)" mask="url(#_mask_OEYTIc8x6KeIZX3NafK6zbQ1dWSMcOBh)" vector-effect="non-scaling-stroke" stroke-width="2" stroke="rgb(0,0,0)" stroke-linejoin="round" stroke-linecap="round" stroke-miterlimit="3"/><mask id="_mask_nVHSgDkZ8KoPKI0oCxBzem6dsEkt7LbL"><path d=" M 0 57.735 L 0 34.641 L 20 46.188 L 20 69.282 L 0 57.735 Z " fill="white" stroke="none"/></mask><path d=" M 0 57.735 L 0 34.641 L 20 46.188 L 20 69.282 L 0 57.735 Z " fill="rgb(255,255,255)"/><path d=" M 0 57.735 L 0 34.641 L 20 46.188 L 20 69.282 L 0 57.735 Z " fill="rgb(255,255,255)" mask="url(#_mask_nVHSgDkZ8KoPKI0oCxBzem6dsEkt7LbL)" vector-effect="non-scaling-stroke" stroke-width="2" stroke="rgb(0,0,0)" stroke-linejoin="round" stroke-linecap="round" stroke-miterlimit="3"/><mask id="_mask_R3es5ACCQWXEnZFZwZMWK0Tzi9dzFNid"><path d=" M 40 103.923 L 40 80.829 L 60 92.376 L 60 115.47 L 40 103.923 Z " fill="white" stroke="none"/></mask><path d=" M 40 103.923 L 40 80.829 L 60 92.376 L 60 115.47 L 40 103.923 Z " fill="rgb(255,255,255)"/><path d=" M 40 103.923 L 40 80.829 L 60 92.376 L 60 115.47 L 40 103.923 Z " fill="rgb(255,255,255)" mask="url(#_mask_R3es5ACCQWXEnZFZwZMWK0Tzi9dzFNid)" vector-effect="non-scaling-stroke" stroke-width="2" stroke="rgb(0,0,0)" stroke-linejoin="round" stroke-linecap="round" stroke-miterlimit="3"/><mask id="_mask_gaDInoKVTWrSHuwsB5t3JKYxloxniOIf"><path d=" M 20 92.376 L 20 69.282 L 40 80.829 L 40 103.923 L 20 92.376 Z " fill="white" stroke="none"/></mask><path d=" M 20 92.376 L 20 69.282 L 40 80.829 L 40 103.923 L 20 92.376 Z " fill="rgb(255,255,255)"/><path d=" M 20 92.376 L 20 69.282 L 40 80.829 L 40 103.923 L 20 92.376 Z " fill="rgb(255,255,255)" mask="url(#_mask_gaDInoKVTWrSHuwsB5t3JKYxloxniOIf)" vector-effect="non-scaling-stroke" stroke-width="2" stroke="rgb(0,0,0)" stroke-linejoin="round" stroke-linecap="round" stroke-miterlimit="3"/><mask id="_mask_W0mGI0krznAz5GGEDkQEBXIOQoSGxQbU"><path d=" M 0 80.829 L 0 57.735 L 20 69.282 L 20 92.376 L 0 80.829 Z " fill="white" stroke="none"/></mask><path d=" M 0 80.829 L 0 57.735 L 20 69.282 L 20 92.376 L 0 80.829 Z " fill="rgb(255,255,255)"/><path d=" M 0 80.829 L 0 57.735 L 20 69.282 L 20 92.376 L 0 80.829 Z " fill="rgb(255,255,255)" mask="url(#_mask_W0mGI0krznAz5GGEDkQEBXIOQoSGxQbU)" vector-effect="non-scaling-stroke" stroke-width="2" stroke="rgb(0,0,0)" stroke-linejoin="round" stroke-linecap="round" stroke-miterlimit="3"/><mask id="_mask_ouRpeWS1fTDFEYOK625pBetJHYVetnt3"><path d=" M 40 127.017 L 40 103.923 L 60 115.47 L 60 138.564 L 40 127.017 Z " fill="white" stroke="none"/></mask><path d=" M 40 127.017 L 40 103.923 L 60 115.47 L 60 138.564 L 40 127.017 Z " fill="rgb(255,255,255)"/><path d=" M 40 127.017 L 40 103.923 L 60 115.47 L 60 138.564 L 40 127.017 Z " fill="rgb(255,255,255)" mask="url(#_mask_ouRpeWS1fTDFEYOK625pBetJHYVetnt3)" vector-effect="non-scaling-stroke" stroke-width="2" stroke="rgb(0,0,0)" stroke-linejoin="round" stroke-linecap="round" stroke-miterlimit="3"/><mask id="_mask_GSbC1u7YpEYSDpYXAz82vZw9olMQAPx7"><path d=" M 20 115.47 L 20 92.376 L 40 103.923 L 40 127.017 L 20 115.47 Z " fill="white" stroke="none"/></mask><path d=" M 20 115.47 L 20 92.376 L 40 103.923 L 40 127.017 L 20 115.47 Z " fill="rgb(255,255,255)"/><path d=" M 20 115.47 L 20 92.376 L 40 103.923 L 40 127.017 L 20 115.47 Z " fill="rgb(255,255,255)" mask="url(#_mask_GSbC1u7YpEYSDpYXAz82vZw9olMQAPx7)" vector-effect="non-scaling-stroke" stroke-width="2" stroke="rgb(0,0,0)" stroke-linejoin="round" stroke-linecap="round" stroke-miterlimit="3"/><mask id="_mask_PuenSs3bVWkb5dCy0F3HlkOqs6E4PHKi"><path d=" M 0 103.923 L 0 80.829 L 20 92.376 L 20 115.47 L 0 103.923 Z " fill="white" stroke="none"/></mask><path d=" M 0 103.923 L 0 80.829 L 20 92.376 L 20 115.47 L 0 103.923 Z " fill="rgb(255,255,255)"/><path d=" M 0 103.923 L 0 80.829 L 20 92.376 L 20 115.47 L 0 103.923 Z " fill="rgb(255,255,255)" mask="url(#_mask_PuenSs3bVWkb5dCy0F3HlkOqs6E4PHKi)" vector-effect="non-scaling-stroke" stroke-width="2" stroke="rgb(0,0,0)" stroke-linejoin="round" stroke-linecap="round" stroke-miterlimit="3"/><mask id="_mask_GSnayWZIPA4iWeziyNeVjfBZgjsyouyx"><path d=" M 40 34.641 L 20 46.188 L 40 57.735 L 60 46.188 L 40 34.641 Z " fill="white" stroke="none"/></mask><path d=" M 40 34.641 L 20 46.188 L 40 57.735 L 60 46.188 L 40 34.641 Z " fill="rgb(255,255,255)"/><path d=" M 40 34.641 L 20 46.188 L 40 57.735 L 60 46.188 L 40 34.641 Z " fill="rgb(255,255,255)" mask="url(#_mask_GSnayWZIPA4iWeziyNeVjfBZgjsyouyx)" vector-effect="non-scaling-stroke" stroke-width="2" stroke="rgb(0,0,0)" stroke-linejoin="round" stroke-linecap="round" stroke-miterlimit="3"/><mask id="_mask_F1l7snAizndc93Lua3xvm56SRrTrz8Sw"><path d=" M 20 23.094 L 0 34.641 L 20 46.188 L 40 34.641 L 20 23.094 Z " fill="white" stroke="none"/></mask><path d=" M 20 23.094 L 0 34.641 L 20 46.188 L 40 34.641 L 20 23.094 Z " fill="rgb(255,255,255)"/><path d=" M 20 23.094 L 0 34.641 L 20 46.188 L 40 34.641 L 20 23.094 Z " fill="rgb(255,255,255)" mask="url(#_mask_F1l7snAizndc93Lua3xvm56SRrTrz8Sw)" vector-effect="non-scaling-stroke" stroke-width="2" stroke="rgb(0,0,0)" stroke-linejoin="round" stroke-linecap="round" stroke-miterlimit="3"/><mask id="_mask_lCYYZv5OEA35zDfPKWZGb2bJWrqb7GIz"><path d=" M 80 34.641 L 60 46.188 L 80 57.735 L 100 46.188 L 80 34.641 Z " fill="white" stroke="none"/></mask><path d=" M 80 34.641 L 60 46.188 L 80 57.735 L 100 46.188 L 80 34.641 Z " fill="rgb(209,209,209)"/><path d=" M 80 34.641 L 60 46.188 L 80 57.735 L 100 46.188 L 80 34.641 Z " fill="rgb(209,209,209)" mask="url(#_mask_lCYYZv5OEA35zDfPKWZGb2bJWrqb7GIz)" vector-effect="non-scaling-stroke" stroke-width="2" stroke="rgb(0,0,0)" stroke-linejoin="round" stroke-linecap="round" stroke-miterlimit="3"/><mask id="_mask_yWOuNPiqHBD1rkFYZcYcKLEvRWFDd5PK"><path d=" M 60 23.094 L 40 34.641 L 60 46.188 L 80 34.641 L 60 23.094 Z " fill="white" stroke="none"/></mask><path d=" M 60 23.094 L 40 34.641 L 60 46.188 L 80 34.641 L 60 23.094 Z " fill="rgb(209,209,209)"/><path d=" M 60 23.094 L 40 34.641 L 60 46.188 L 80 34.641 L 60 23.094 Z " fill="rgb(209,209,209)" mask="url(#_mask_yWOuNPiqHBD1rkFYZcYcKLEvRWFDd5PK)" vector-effect="non-scaling-stroke" stroke-width="2" stroke="rgb(0,0,0)" stroke-linejoin="round" stroke-linecap="round" stroke-miterlimit="3"/><mask id="_mask_OWSccK5mDm4gIyrBJQsQyjzPzzF1Id9l"><path d=" M 40 11.547 L 20 23.094 L 40 34.641 L 60 23.094 L 40 11.547 Z " fill="white" stroke="none"/></mask><path d=" M 40 11.547 L 20 23.094 L 40 34.641 L 60 23.094 L 40 11.547 Z " fill="rgb(209,209,209)"/><path d=" M 40 11.547 L 20 23.094 L 40 34.641 L 60 23.094 L 40 11.547 Z " fill="rgb(209,209,209)" mask="url(#_mask_OWSccK5mDm4gIyrBJQsQyjzPzzF1Id9l)" vector-effect="non-scaling-stroke" stroke-width="2" stroke="rgb(0,0,0)" stroke-linejoin="round" stroke-linecap="round" stroke-miterlimit="3"/><mask id="_mask_bwmwRCwQ2mOGxvmXOPJzwDif3TWX22sL"><path d=" M 100 23.094 L 80 34.641 L 100 46.188 L 120 34.641 L 100 23.094 Z " fill="white" stroke="none"/></mask><path d=" M 100 23.094 L 80 34.641 L 100 46.188 L 120 34.641 L 100 23.094 Z " fill="rgb(255,255,255)"/><path d=" M 100 23.094 L 80 34.641 L 100 46.188 L 120 34.641 L 100 23.094 Z " fill="rgb(255,255,255)" mask="url(#_mask_bwmwRCwQ2mOGxvmXOPJzwDif3TWX22sL)" vector-effect="non-scaling-stroke" stroke-width="2" stroke="rgb(0,0,0)" stroke-linejoin="round" stroke-linecap="round" stroke-miterlimit="3"/><mask id="_mask_IiReBF7Y7euwHgB5y3WAE6um1ImlwNuv"><path d=" M 80 11.547 L 60 23.094 L 80 34.641 L 100 23.094 L 80 11.547 Z " fill="white" stroke="none"/></mask><path d=" M 80 11.547 L 60 23.094 L 80 34.641 L 100 23.094 L 80 11.547 Z " fill="rgb(255,255,255)"/><path d=" M 80 11.547 L 60 23.094 L 80 34.641 L 100 23.094 L 80 11.547 Z " fill="rgb(255,255,255)" mask="url(#_mask_IiReBF7Y7euwHgB5y3WAE6um1ImlwNuv)" vector-effect="non-scaling-stroke" stroke-width="2" stroke="rgb(0,0,0)" stroke-linejoin="round" stroke-linecap="round" stroke-miterlimit="3"/><mask id="_mask_JU48Qppd96vdkHw4HaGB16trHGleRn1q"><path d=" M 60 0 L 40 11.547 L 60 23.094 L 80 11.547 L 60 0 Z " fill="white" stroke="none"/></mask><path d=" M 60 0 L 40 11.547 L 60 23.094 L 80 11.547 L 60 0 Z " fill="rgb(255,255,255)"/><path d=" M 60 0 L 40 11.547 L 60 23.094 L 80 11.547 L 60 0 Z " fill="rgb(255,255,255)" mask="url(#_mask_JU48Qppd96vdkHw4HaGB16trHGleRn1q)" vector-effect="non-scaling-stroke" stroke-width="2" stroke="rgb(0,0,0)" stroke-linejoin="round" stroke-linecap="round" stroke-miterlimit="3"/><mask id="_mask_8Yg3pRM7nEsFzkynrQseCItk7Ey6H70Y"><path d=" M 120 80.829 L 100 92.376 L 100 69.282 L 120 57.735 L 120 80.829 Z " fill="white" stroke="none"/></mask><path d=" M 120 80.829 L 100 92.376 L 100 69.282 L 120 57.735 L 120 80.829 Z " fill="rgb(255,255,255)"/><path d=" M 120 80.829 L 100 92.376 L 100 69.282 L 120 57.735 L 120 80.829 Z " fill="rgb(255,255,255)" mask="url(#_mask_8Yg3pRM7nEsFzkynrQseCItk7Ey6H70Y)" vector-effect="non-scaling-stroke" stroke-width="2" stroke="rgb(0,0,0)" stroke-linejoin="round" stroke-linecap="round" stroke-miterlimit="3"/><mask id="_mask_Y4PJwQwca85MUS5FJj1bUlvCNeYVPVm8"><path d=" M 100 92.376 L 80 103.923 L 80 80.829 L 100 69.282 L 100 92.376 Z " fill="white" stroke="none"/></mask><path d=" M 100 92.376 L 80 103.923 L 80 80.829 L 100 69.282 L 100 92.376 Z " fill="rgb(209,209,209)"/><path d=" M 100 92.376 L 80 103.923 L 80 80.829 L 100 69.282 L 100 92.376 Z " fill="rgb(209,209,209)" mask="url(#_mask_Y4PJwQwca85MUS5FJj1bUlvCNeYVPVm8)" vector-effect="non-scaling-stroke" stroke-width="2" stroke="rgb(0,0,0)" stroke-linejoin="round" stroke-linecap="round" stroke-miterlimit="3"/><mask id="_mask_AzbUQxKfqzyktRr0TBhIMfZZHrAGpn4C"><path d=" M 80 103.923 L 60 115.47 L 60 92.376 L 80 80.829 L 80 103.923 Z " fill="white" stroke="none"/></mask><path d=" M 80 103.923 L 60 115.47 L 60 92.376 L 80 80.829 L 80 103.923 Z " fill="rgb(255,255,255)"/><path d=" M 80 103.923 L 60 115.47 L 60 92.376 L 80 80.829 L 80 103.923 Z " fill="rgb(255,255,255)" mask="url(#_mask_AzbUQxKfqzyktRr0TBhIMfZZHrAGpn4C)" vector-effect="non-scaling-stroke" stroke-width="2" stroke="rgb(0,0,0)" stroke-linejoin="round" stroke-linecap="round" stroke-miterlimit="3"/><mask id="_mask_8kgrKmjtuJCKBW87xLqEhn2WwoEWBhbJ"><path d=" M 120 103.923 L 100 115.47 L 100 92.376 L 120 80.829 L 120 103.923 Z " fill="white" stroke="none"/></mask><path d=" M 120 103.923 L 100 115.47 L 100 92.376 L 120 80.829 L 120 103.923 Z " fill="rgb(255,255,255)"/><path d=" M 120 103.923 L 100 115.47 L 100 92.376 L 120 80.829 L 120 103.923 Z " fill="rgb(255,255,255)" mask="url(#_mask_8kgrKmjtuJCKBW87xLqEhn2WwoEWBhbJ)" vector-effect="non-scaling-stroke" stroke-width="2" stroke="rgb(0,0,0)" stroke-linejoin="round" stroke-linecap="round" stroke-miterlimit="3"/><mask id="_mask_5BLd4I0wTaRahyzKl74iwQjlkmA6fj27"><path d=" M 100 115.47 L 80 127.017 L 80 103.923 L 100 92.376 L 100 115.47 Z " fill="white" stroke="none"/></mask><path d=" M 100 115.47 L 80 127.017 L 80 103.923 L 100 92.376 L 100 115.47 Z " fill="rgb(209,209,209)"/><path d=" M 100 115.47 L 80 127.017 L 80 103.923 L 100 92.376 L 100 115.47 Z " fill="rgb(209,209,209)" mask="url(#_mask_5BLd4I0wTaRahyzKl74iwQjlkmA6fj27)" vector-effect="non-scaling-stroke" stroke-width="2" stroke="rgb(0,0,0)" stroke-linejoin="round" stroke-linecap="round" stroke-miterlimit="3"/><mask id="_mask_GzcDACwCS7ES9VFd3FNbZjAqIP2e6OJb"><path d=" M 80 127.017 L 60 138.564 L 60 115.47 L 80 103.923 L 80 127.017 Z " fill="white" stroke="none"/></mask><path d=" M 80 127.017 L 60 138.564 L 60 115.47 L 80 103.923 L 80 127.017 Z " fill="rgb(255,255,255)"/><path d=" M 80 127.017 L 60 138.564 L 60 115.47 L 80 103.923 L 80 127.017 Z " fill="rgb(255,255,255)" mask="url(#_mask_GzcDACwCS7ES9VFd3FNbZjAqIP2e6OJb)" vector-effect="non-scaling-stroke" stroke-width="2" stroke="rgb(0,0,0)" stroke-linejoin="round" stroke-linecap="round" stroke-miterlimit="3"/><path d=" M 120 103.923 L 60 138.564 L 0 103.923 L 0 34.641 L 60 0 L 120 34.641 L 120 103.923 Z " fill="none" vector-effect="non-scaling-stroke" stroke-width="2" stroke="rgb(0,0,0)" stroke-linejoin="round" stroke-linecap="round" stroke-miterlimit="3"/><line x1="80" y1="46.188" x2="40" y2="23.094" vector-effect="non-scaling-stroke" stroke-width="5" stroke="rgb(153,0,255)" stroke-linejoin="miter" stroke-linecap="square" stroke-miterlimit="3"/><path d=" M 45.961 20.081 L 33.484 19.332 L 40.371 29.763 Z " fill="rgb(153,0,255)" stroke="none"/></g></svg>