<?xml version="1.0" encoding="UTF-8" standalone="no"?><!-- Generator: Gravit.io --><svg xmlns="http://www.w3.org/2000/svg" xmlns:xlink="http://www.w3.org/1999/xlink" style="isolation:isolate" viewBox="-1 -1 122 140.564" width="122pt" height="140.564pt"><defs><clipPath id="_clipPath_M2GFDmiom4gEDxYFbFEmGdmw2JJgaTJU"><rect x="-1" y="-1" width="122" height="140.564"/></clipPath></defs><g clip-path="url(#_clipPath_M2GFDmiom4gEDxYFbFEmGdmw2JJgaTJU)"><mask id="_mask_EnGL1mMlhyxlkBfJQYAei1wi4hnj0uRf"><path d=" M 20 23.094 L 40 34.641 L 20 46.188 L 0 34.641 L 20 23.094 Z " fill="white" stroke="none"/></mask><path d=" M 20 23.094 L 40 34.641 L 20 46.188 L 0 34.641 L 20 23.094 Z " fill="rgb(209,209,209)"/><path d=" M 20 23.094 L 40 34.641 L 20 46.188 L 0 34.641 L 20 23.094 Z " fill="rgb(209,209,209)" mask="url(#_mask_EnGL1mMlhyxlkBfJQYAei1wi4hnj0uRf)" vector-effect="non-scaling-stroke" stroke-width="2" stroke="rgb(0,0,0)" stroke-linejoin="round" stroke-linecap="round" stroke-miterlimit="3"/><mask id="_mask_Wr5iPDvduqVI20RLn6NZ9FGcbvSYif9O"><path d=" M 40 34.641 L 60 46.188 L 40 57.735 L 20 46.188 L 40 34.641 Z " fill="white" stroke="none"/></mask><path d=" M 40 34.641 L 60 46.188 L 40 57.735 L 20 46.188 L 40 34.641 Z " fill="rgb(209,209,209)"/><path d=" M 40 34.641 L 60 46.188 L 40 57.735 L 20 46.188 L 40 34.641 Z " fill="rgb(209,209,209)" mask="url(#_mask_Wr5iPDvduqVI20RLn6NZ9FGcbvSYif9O)" vector-effect="non-scaling-stroke" stroke-width="2" stroke="rgb(0,0,0)" stroke-linejoin="round" stroke-linecap="round" stroke-miterlimit="3"/><mask id="_mask_OpFvwm9KGqsc3vAZNQv702olL7rT4Fhu"><path d=" M 60 46.188 L 80 57.735 L 60 69.282 L 40 57.735 L 60 46.188 Z " fill="white" stroke="none"/></mask><path d=" M 60 46.188 L 80 57.735 L 60 69.282 L 40 57.735 L 60 46.188 Z " fill="rgb(209,209,209)"/><path d=" M 60 46.188 L 80 57.735 L 60 69.282 L 40 57.735 L 60 46.188 Z " fill="rgb(209,209,209)" mask="url(#_mask_OpFvwm9KGqsc3vAZNQv702olL7rT4Fhu)" vector-effect="non-scaling-stroke" stroke-width="2" stroke="rgb(0,0,0)" stroke-linejoin="round" stroke-linecap="round" stroke-miterlimit="3"/><mask id="_mask_5cnnujUxRvgJARwXcPufISZ2CaokTflH"><path d=" M 40 80.829 L 60 92.376 L 60 69.282 L 40 57.735 L 40 80.829 Z " fill="white" stroke="none"/></mask><path d=" M 40 80.829 L 60 92.376 L 60 69.282 L 40 57.735 L 40 80.829 Z " fill="rgb(209,209,209)"/><path d=" M 40 80.829 L 60 92.376 L 60 69.282 L 40 57.735 L 40 80.829 Z " fill="rgb(209,209,209)" mask="url(#_mask_5cnnujUxRvgJARwXcPufISZ2CaokTflH)" vector-effect="non-scaling-stroke" stroke-width="2" stroke="rgb(0,0,0)" stroke-linejoin="round" stroke-linecap="round" stroke-miterlimit="3"/><mask id="_mask_CSQa4FLwgOnSYEx3DX2865c0yuUKulhS"><path d=" M 80 80.829 L 60 92.376 L 60 69.282 L 80 57.735 L 80 80.829 Z " fill="white" stroke="none"/></mask><path d=" M 80 80.829 L 60 92.376 L 60 69.282 L 80 57.735 L 80 80.829 Z " fill="rgb(209,209,209)"/><path d=" M 80 80.829 L 60 92.376 L 60 69.282 L 80 57.735 L 80 80.829 Z " fill="rgb(209,209,209)" mask="url(#_mask_CSQa4FLwgOnSYEx3DX2865c0yuUKulhS)" vector-effect="non-scaling-stroke" stroke-width="2" stroke="rgb(0,0,0)" stroke-linejoin="round" stroke-linecap="round" stroke-miterlimit="3"/><mask id="_mask_Cbm42rOinHvLVNmf8CtpYdRsBtOsx7lT"><path d=" M 80 103.923 L 60 115.47 L 60 92.376 L 80 80.829 L 80 103.923 Z " fill="white" stroke="none"/></mask><path d=" M 80 103.923 L 60 115.47 L 60 92.376 L 80 80.829 L 80 103.923 Z " fill="rgb(209,209,209)"/><path d=" M 80 103.923 L 60 115.47 L 60 92.376 L 80 80.829 L 80 103.923 Z " fill="rgb(209,209,209)" mask="url(#_mask_Cbm42rOinHvLVNmf8CtpYdRsBtOsx7lT)" vector-effect="non-scaling-stroke" stroke-width="2" stroke="rgb(0,0,0)" stroke-linejoin="round" stroke-linecap="round" stroke-miterlimit="3"/><mask id="_mask_GixWimg1URqCdvgFFWMDsyT2nKpOw48L"><path d=" M 80 127.017 L 60 138.564 L 60 115.47 L 80 103.923 L 80 127.017 Z " fill="white" stroke="none"/></mask><path d=" M 80 127.017 L 60 138.564 L 60 115.47 L 80 103.923 L 80 127.017 Z " fill="rgb(209,209,209)"/><path d=" M 80 127.017 L 60 138.564 L 60 115.47 L 80 103.923 L 80 127.017 Z " fill="rgb(209,209,209)" mask="url(#_mask_GixWimg1URqCdvgFFWMDsyT2nKpOw48L)" vector-effect="non-scaling-stroke" stroke-width="2" stroke="rgb(0,0,0)" stroke-linejoin="round" stroke-linecap="round" stroke-miterlimit="3"/><mask id="_mask_MMTojZ6nMemOHDiHNNqYZwP4BB2HpBCn"><path d=" M 100 69.282 L 80 80.829 L 80 57.735 L 100 46.188 L 100 69.282 Z " fill="white" stroke="none"/></mask><path d=" M 100 69.282 L 80 80.829 L 80 57.735 L 100 46.188 L 100 69.282 Z " fill="rgb(209,209,209)"/><path d=" M 100 69.282 L 80 80.829 L 80 57.735 L 100 46.188 L 100 69.282 Z " fill="rgb(209,209,209)" mask="url(#_mask_MMTojZ6nMemOHDiHNNqYZwP4BB2HpBCn)" vector-effect="non-scaling-stroke" stroke-width="2" stroke="rgb(0,0,0)" stroke-linejoin="round" stroke-linecap="round" stroke-miterlimit="3"/><mask id="_mask_cBFE2KyXwCwZZYkpwBETzvG6Jk18ZkTM"><path d=" M 100 92.376 L 80 103.923 L 80 80.829 L 100 69.282 L 100 92.376 Z " fill="white" stroke="none"/></mask><path d=" M 100 92.376 L 80 103.923 L 80 80.829 L 100 69.282 L 100 92.376 Z " fill="rgb(209,209,209)"/><path d=" M 100 92.376 L 80 103.923 L 80 80.829 L 100 69.282 L 100 92.376 Z " fill="rgb(209,209,209)" mask="url(#_mask_cBFE2KyXwCwZZYkpwBETzvG6Jk18ZkTM)" vector-effect="non-scaling-stroke" stroke-width="2" stroke="rgb(0,0,0)" stroke-linejoin="round" stroke-linecap="round" stroke-miterlimit="3"/><mask id="_mask_wZ58XSneTnFduojFsO2NE2SK23BgrUYg"><path d=" M 100 115.47 L 80 127.017 L 80 103.923 L 100 92.376 L 100 115.47 Z " fill="white" stroke="none"/></mask><path d=" M 100 115.47 L 80 127.017 L 80 103.923 L 100 92.376 L 100 115.47 Z " fill="rgb(209,209,209)"/><path d=" M 100 115.47 L 80 127.017 L 80 103.923 L 100 92.376 L 100 115.47 Z " fill="rgb(209,209,209)" mask="url(#_mask_wZ58XSneTnFduojFsO2NE2SK23BgrUYg)" vector-effect="non-scaling-stroke" stroke-width="2" stroke="rgb(0,0,0)" stroke-linejoin="round" stroke-linecap="round" stroke-miterlimit="3"/><mask id="_mask_u4qxsHO5c6j1o9b0HXMLQzyvGJ5PUb2d"><path d=" M 120 57.735 L 100 69.282 L 100 46.188 L 120 34.641 L 120 57.735 Z " fill="white" stroke="none"/></mask><path d=" M 120 57.735 L 100 69.282 L 100 46.188 L 120 34.641 L 120 57.735 Z " fill="rgb(209,209,209)"/><path d=" M 120 57.735 L 100 69.282 L 100 46.188 L 120 34.641 L 120 57.735 Z " fill="rgb(209,209,209)" mask="url(#_mask_u4qxsHO5c6j1o9b0HXMLQzyvGJ5PUb2d)" vector-effect="non-scaling-stroke" stroke-width="2" stroke="rgb(0,0,0)" stroke-linejoin="round" stroke-linecap="round" stroke-miterlimit="3"/><mask id="_mask_0SEG6GQW42l2tDBPTsW6NQIQUN1yS9Em"><path d=" M 120 80.829 L 100 92.376 L 100 69.282 L 120 57.735 L 120 80.829 Z " fill="white" stroke="none"/></mask><path d=" M 120 80.829 L 100 92.376 L 100 69.282 L 120 57.735 L 120 80.829 Z " fill="rgb(209,209,209)"/><path d=" M 120 80.829 L 100 92.376 L 100 69.282 L 120 57.735 L 120 80.829 Z " fill="rgb(209,209,209)" mask="url(#_mask_0SEG6GQW42l2tDBPTsW6NQIQUN1yS9Em)" vector-effect="non-scaling-stroke" stroke-width="2" stroke="rgb(0,0,0)" stroke-linejoin="round" stroke-linecap="round" stroke-miterlimit="3"/><mask id="_mask_HcJRZI5hEdHPgcBGMLlc35i82A3Y4VzE"><path d=" M 120 103.923 L 100 115.47 L 100 92.376 L 120 80.829 L 120 103.923 Z " fill="white" stroke="none"/></mask><path d=" M 120 103.923 L 100 115.47 L 100 92.376 L 120 80.829 L 120 103.923 Z " fill="rgb(209,209,209)"/><path d=" M 120 103.923 L 100 115.47 L 100 92.376 L 120 80.829 L 120 103.923 Z " fill="rgb(209,209,209)" mask="url(#_mask_HcJRZI5hEdHPgcBGMLlc35i82A3Y4VzE)" vector-effect="non-scaling-stroke" stroke-width="2" stroke="rgb(0,0,0)" stroke-linejoin="round" stroke-linecap="round" stroke-miterlimit="3"/><mask id="_mask_LWfK6ilSZBnvTPJFPFWlOASGOkd8ub0S"><path d=" M 40 103.923 L 60 115.47 L 60 92.376 L 40 80.829 L 40 103.923 Z " fill="white" stroke="none"/></mask><path d=" M 40 103.923 L 60 115.47 L 60 92.376 L 40 80.829 L 40 103.923 Z " fill="rgb(209,209,209)"/><path d=" M 40 103.923 L 60 115.47 L 60 92.376 L 40 80.829 L 40 103.923 Z " fill="rgb(209,209,209)" mask="url(#_mask_LWfK6ilSZBnvTPJFPFWlOASGOkd8ub0S)" vector-effect="non-scaling-stroke" stroke-width="2" stroke="rgb(0,0,0)" stroke-linejoin="round" stroke-linecap="round" stroke-miterlimit="3"/><mask id="_mask_QbQwobs3VqGB1aaF5f979vG2X7LImhGA"><path d=" M 40 127.017 L 60 138.564 L 60 115.47 L 40 103.923 L 40 127.017 Z " fill="white" stroke="none"/></mask><path d=" M 40 127.017 L 60 138.564 L 60 115.47 L 40 103.923 L 40 127.017 Z " fill="rgb(209,209,209)"/><path d=" M 40 127.017 L 60 138.564 L 60 115.47 L 40 103.923 L 40 127.017 Z " fill="rgb(209,209,209)" mask="url(#_mask_QbQwobs3VqGB1aaF5f979vG2X7LImhGA)" vector-effect="non-scaling-stroke" stroke-width="2" stroke="rgb(0,0,0)" stroke-linejoin="round" stroke-linecap="round" stroke-miterlimit="3"/><mask id="_mask_pwvr9RYmYZWHfn7a6XH4en82CiiMgzsv"><path d=" M 20 69.282 L 40 80.829 L 40 57.735 L 20 46.188 L 20 69.282 Z " fill="white" stroke="none"/></mask><path d=" M 20 69.282 L 40 80.829 L 40 57.735 L 20 46.188 L 20 69.282 Z " fill="rgb(209,209,209)"/><path d=" M 20 69.282 L 40 80.829 L 40 57.735 L 20 46.188 L 20 69.282 Z " fill="rgb(209,209,209)" mask="url(#_mask_pwvr9RYmYZWHfn7a6XH4en82CiiMgzsv)" vector-effect="non-scaling-stroke" stroke-width="2" stroke="rgb(0,0,0)" stroke-linejoin="round" stroke-linecap="round" stroke-miterlimit="3"/><mask id="_mask_oMeI6NwriQEwhJAFwU5Too5iQD0tERO2"><path d=" M 20 92.376 L 40 103.923 L 40 80.829 L 20 69.282 L 20 92.376 Z " fill="white" stroke="none"/></mask><path d=" M 20 92.376 L 40 103.923 L 40 80.829 L 20 69.282 L 20 92.376 Z " fill="rgb(209,209,209)"/><path d=" M 20 92.376 L 40 103.923 L 40 80.829 L 20 69.282 L 20 92.376 Z " fill="rgb(209,209,209)" mask="url(#_mask_oMeI6NwriQEwhJAFwU5Too5iQD0tERO2)" vector-effect="non-scaling-stroke" stroke-width="2" stroke="rgb(0,0,0)" stroke-linejoin="round" stroke-linecap="round" stroke-miterlimit="3"/><mask id="_mask_4TJP8BoW0fao2D2gOCumKyWB2qAgm1eY"><path d=" M 20 115.47 L 40 127.017 L 40 103.923 L 20 92.376 L 20 115.47 Z " fill="white" stroke="none"/></mask><path d=" M 20 115.47 L 40 127.017 L 40 103.923 L 20 92.376 L 20 115.47 Z " fill="rgb(209,209,209)"/><path d=" M 20 115.47 L 40 127.017 L 40 103.923 L 20 92.376 L 20 115.47 Z " fill="rgb(209,209,209)" mask="url(#_mask_4TJP8BoW0fao2D2gOCumKyWB2qAgm1eY)" vector-effect="non-scaling-stroke" stroke-width="2" stroke="rgb(0,0,0)" stroke-linejoin="round" stroke-linecap="round" stroke-miterlimit="3"/><mask id="_mask_vd7p9aqYeKZJwctWJFcdbUIrYm3hi9Kb"><path d=" M 0 57.735 L 20 69.282 L 20 46.188 L 0 34.641 L 0 57.735 Z " fill="white" stroke="none"/></mask><path d=" M 0 57.735 L 20 69.282 L 20 46.188 L 0 34.641 L 0 57.735 Z " fill="rgb(209,209,209)"/><path d=" M 0 57.735 L 20 69.282 L 20 46.188 L 0 34.641 L 0 57.735 Z " fill="rgb(209,209,209)" mask="url(#_mask_vd7p9aqYeKZJwctWJFcdbUIrYm3hi9Kb)" vector-effect="non-scaling-stroke" stroke-width="2" stroke="rgb(0,0,0)" stroke-linejoin="round" stroke-linecap="round" stroke-miterlimit="3"/><mask id="_mask_wVTyNaAXQ1ppldvzhJ6eNewqI6UumK51"><path d=" M 0 80.829 L 20 92.376 L 20 69.282 L 0 57.735 L 0 80.829 Z " fill="white" stroke="none"/></mask><path d=" M 0 80.829 L 20 92.376 L 20 69.282 L 0 57.735 L 0 80.829 Z " fill="rgb(209,209,209)"/><path d=" M 0 80.829 L 20 92.376 L 20 69.282 L 0 57.735 L 0 80.829 Z " fill="rgb(209,209,209)" mask="url(#_mask_wVTyNaAXQ1ppldvzhJ6eNewqI6UumK51)" vector-effect="non-scaling-stroke" stroke-width="2" stroke="rgb(0,0,0)" stroke-linejoin="round" stroke-linecap="round" stroke-miterlimit="3"/><mask id="_mask_knpTkSjG802EviIRXVSCe7Ili85bH3w8"><path d=" M 0 103.923 L 20 115.47 L 20 92.376 L 0 80.829 L 0 103.923 Z " fill="white" stroke="none"/></mask><path d=" M 0 103.923 L 20 115.47 L 20 92.376 L 0 80.829 L 0 103.923 Z " fill="rgb(209,209,209)"/><path d=" M 0 103.923 L 20 115.47 L 20 92.376 L 0 80.829 L 0 103.923 Z " fill="rgb(209,209,209)" mask="url(#_mask_knpTkSjG802EviIRXVSCe7Ili85bH3w8)" vector-effect="non-scaling-stroke" stroke-width="2" stroke="rgb(0,0,0)" stroke-linejoin="round" stroke-linecap="round" stroke-miterlimit="3"/><mask id="_mask_CQpMckI8dXe6L1J0qpyfHPjZHlGHH9kG"><path d=" M 40 11.547 L 60 23.094 L 40 34.641 L 20 23.094 L 40 11.547 Z " fill="white" stroke="none"/></mask><path d=" M 40 11.547 L 60 23.094 L 40 34.641 L 20 23.094 L 40 11.547 Z " fill="rgb(209,209,209)"/><path d=" M 40 11.547 L 60 23.094 L 40 34.641 L 20 23.094 L 40 11.547 Z " fill="rgb(209,209,209)" mask="url(#_mask_CQpMckI8dXe6L1J0qpyfHPjZHlGHH9kG)" vector-effect="non-scaling-stroke" stroke-width="2" stroke="rgb(0,0,0)" stroke-linejoin="round" stroke-linecap="round" stroke-miterlimit="3"/><mask id="_mask_LajcDQ0WMNlFAgQBigNrXxYGA3mD8jFn"><path d=" M 60 23.094 L 80 34.641 L 60 46.188 L 40 34.641 L 60 23.094 Z " fill="white" stroke="none"/></mask><path d=" M 60 23.094 L 80 34.641 L 60 46.188 L 40 34.641 L 60 23.094 Z " fill="rgb(209,209,209)"/><path d=" M 60 23.094 L 80 34.641 L 60 46.188 L 40 34.641 L 60 23.094 Z " fill="rgb(209,209,209)" mask="url(#_mask_LajcDQ0WMNlFAgQBigNrXxYGA3mD8jFn)" vector-effect="non-scaling-stroke" stroke-width="2" stroke="rgb(0,0,0)" stroke-linejoin="round" stroke-linecap="round" stroke-miterlimit="3"/><mask id="_mask_1xaD8WPn4CG9jeHe3Jts9bkBkAaL2o8R"><path d=" M 80 34.641 L 100 46.188 L 80 57.735 L 60 46.188 L 80 34.641 Z " fill="white" stroke="none"/></mask><path d=" M 80 34.641 L 100 46.188 L 80 57.735 L 60 46.188 L 80 34.641 Z " fill="rgb(209,209,209)"/><path d=" M 80 34.641 L 100 46.188 L 80 57.735 L 60 46.188 L 80 34.641 Z " fill="rgb(209,209,209)" mask="url(#_mask_1xaD8WPn4CG9jeHe3Jts9bkBkAaL2o8R)" vector-effect="non-scaling-stroke" stroke-width="2" stroke="rgb(0,0,0)" stroke-linejoin="round" stroke-linecap="round" stroke-miterlimit="3"/><mask id="_mask_rJrsY71KtQlgXtjHkiVG4pI0S71oTqts"><path d=" M 60 0 L 80 11.547 L 60 23.094 L 40 11.547 L 60 0 Z " fill="white" stroke="none"/></mask><path d=" M 60 0 L 80 11.547 L 60 23.094 L 40 11.547 L 60 0 Z " fill="rgb(209,209,209)"/><path d=" M 60 0 L 80 11.547 L 60 23.094 L 40 11.547 L 60 0 Z " fill="rgb(209,209,209)" mask="url(#_mask_rJrsY71KtQlgXtjHkiVG4pI0S71oTqts)" vector-effect="non-scaling-stroke" stroke-width="2" stroke="rgb(0,0,0)" stroke-linejoin="round" stroke-linecap="round" stroke-miterlimit="3"/><mask id="_mask_nER4sVhlS6Z3Hv6e0W8wfn42jmTjKd8s"><path d=" M 80 11.547 L 100 23.094 L 80 34.641 L 60 23.094 L 80 11.547 Z " fill="white" stroke="none"/></mask><path d=" M 80 11.547 L 100 23.094 L 80 34.641 L 60 23.094 L 80 11.547 Z " fill="rgb(209,209,209)"/><path d=" M 80 11.547 L 100 23.094 L 80 34.641 L 60 23.094 L 80 11.547 Z " fill="rgb(209,209,209)" mask="url(#_mask_nER4sVhlS6Z3Hv6e0W8wfn42jmTjKd8s)" vector-effect="non-scaling-stroke" stroke-width="2" stroke="rgb(0,0,0)" stroke-linejoin="round" stroke-linecap="round" stroke-miterlimit="3"/><mask id="_mask_XXtmvzgOXW53OgDSv4KX8tmeWAYDLTNS"><path d=" M 100 23.094 L 120 34.641 L 100 46.188 L 80 34.641 L 100 23.094 Z " fill="white" stroke="none"/></mask><path d=" M 100 23.094 L 120 34.641 L 100 46.188 L 80 34.641 L 100 23.094 Z " fill="rgb(209,209,209)"/><path d=" M 100 23.094 L 120 34.641 L 100 46.188 L 80 34.641 L 100 23.094 Z " fill="rgb(209,209,209)" mask="url(#_mask_XXtmvzgOXW53OgDSv4KX8tmeWAYDLTNS)" vector-effect="non-scaling-stroke" stroke-width="2" stroke="rgb(0,0,0)" stroke-linejoin="round" stroke-linecap="round" stroke-miterlimit="3"/><path d=" M 60 0 L 120 34.641 L 120 103.923 L 60 138.564 L 0 103.923 L 0 34.641 L 60 0 Z " fill="none" vector-effect="non-scaling-stroke" stroke-width="2" stroke="rgb(0,0,0)" stroke-linejoin="round" stroke-linecap="round" stroke-miterlimit="3"/><line x1="30" y1="109.697" x2="30" y2="63.509" vector-effect="non-scaling-stroke" stroke-width="5" stroke="rgb(153,0,255)" stroke-linejoin="miter" stroke-linecap="square" stroke-miterlimit="3"/><path d=" M 35.59 67.165 L 30 55.984 L 24.41 67.165 Z " fill="rgb(153,0,255)" stroke="none"/></g></svg>