<?xml version="1.0" encoding="UTF-8" standalone="no"?><!-- Generator: Gravit.io --><svg xmlns="http://www.w3.org/2000/svg" xmlns:xlink="http://www.w3.org/1999/xlink" style="isolation:isolate" viewBox="-1 -1 122 140.564" width="122pt" height="140.564pt"><defs><clipPath id="_clipPath_K1Bt8HJXGVwNsyuoe413tAPHjjGyNNXl"><rect x="-1" y="-1" width="122" height="140.564"/></clipPath></defs><g clip-path="url(#_clipPath_K1Bt8HJXGVwNsyuoe413tAPHjjGyNNXl)"><mask id="_mask_Ibes7aaeOT7VMKuFdqqZVOqxLMHkngq9"><path d=" M 40 127.017 L 40 103.923 L 60 115.47 L 60 138.564 L 40 127.017 Z " fill="white" stroke="none"/></mask><path d=" M 40 127.017 L 40 103.923 L 60 115.47 L 60 138.564 L 40 127.017 Z " fill="rgb(209,209,209)"/><path d=" M 40 127.017 L 40 103.923 L 60 115.47 L 60 138.564 L 40 127.017 Z " fill="rgb(209,209,209)" mask="url(#_mask_Ibes7aaeOT7VMKuFdqqZVOqxLMHkngq9)" vector-effect="non-scaling-stroke" stroke-width="2" stroke="rgb(0,0,0)" stroke-linejoin="round" stroke-linecap="round" stroke-miterlimit="3"/><mask id="_mask_yhQy7PsZKeH9Dsr7crb3YVt3m8wTmDcH"><path d=" M 40 103.923 L 40 80.829 L 60 92.376 L 60 115.47 L 40 103.923 Z " fill="white" stroke="none"/></mask><path d=" M 40 103.923 L 40 80.829 L 60 92.376 L 60 115.47 L 40 103.923 Z " fill="rgb(209,209,209)"/><path d=" M 40 103.923 L 40 80.829 L 60 92.376 L 60 115.47 L 40 103.923 Z " fill="rgb(209,209,209)" mask="url(#_mask_yhQy7PsZKeH9Dsr7crb3YVt3m8wTmDcH)" vector-effect="non-scaling-stroke" stroke-width="2" stroke="rgb(0,0,0)" stroke-linejoin="round" stroke-linecap="round" stroke-miterlimit="3"/><mask id="_mask_Vu2Lt4Rg9NJE2zDlkiDlXvTG59kwF7kq"><path d=" M 40 80.829 L 40 57.735 L 60 69.282 L 60 92.376 L 40 80.829 Z " fill="white" stroke="none"/></mask><path d=" M 40 80.829 L 40 57.735 L 60 69.282 L 60 92.376 L 40 80.829 Z " fill="rgb(209,209,209)"/><path d=" M 40 80.829 L 40 57.735 L 60 69.282 L 60 92.376 L 40 80.829 Z " fill="rgb(209,209,209)" mask="url(#_mask_Vu2Lt4Rg9NJE2zDlkiDlXvTG59kwF7kq)" vector-effect="non-scaling-stroke" stroke-width="2" stroke="rgb(0,0,0)" stroke-linejoin="round" stroke-linecap="round" stroke-miterlimit="3"/><mask id="_mask_FckHJy0FnbxsYtS8mzAtDtZMnsyvM4Al"><path d=" M 80 80.829 L 80 57.735 L 60 69.282 L 60 92.376 L 80 80.829 Z " fill="white" stroke="none"/></mask><path d=" M 80 80.829 L 80 57.735 L 60 69.282 L 60 92.376 L 80 80.829 Z " fill="rgb(209,209,209)"/><path d=" M 80 80.829 L 80 57.735 L 60 69.282 L 60 92.376 L 80 80.829 Z " fill="rgb(209,209,209)" mask="url(#_mask_FckHJy0FnbxsYtS8mzAtDtZMnsyvM4Al)" vector-effect="non-scaling-stroke" stroke-width="2" stroke="rgb(0,0,0)" stroke-linejoin="round" stroke-linecap="round" stroke-miterlimit="3"/><mask id="_mask_8CxZS3gMfl4ONo1iC3fFUi9k1tLMlq1s"><path d=" M 60 46.188 L 80 57.735 L 60 69.282 L 40 57.735 L 60 46.188 Z " fill="white" stroke="none"/></mask><path d=" M 60 46.188 L 80 57.735 L 60 69.282 L 40 57.735 L 60 46.188 Z " fill="rgb(209,209,209)"/><path d=" M 60 46.188 L 80 57.735 L 60 69.282 L 40 57.735 L 60 46.188 Z " fill="rgb(209,209,209)" mask="url(#_mask_8CxZS3gMfl4ONo1iC3fFUi9k1tLMlq1s)" vector-effect="non-scaling-stroke" stroke-width="2" stroke="rgb(0,0,0)" stroke-linejoin="round" stroke-linecap="round" stroke-miterlimit="3"/><mask id="_mask_rv401Gzloo8Apj5v8aQFUqMFwZGQxGOh"><path d=" M 80 34.641 L 100 46.188 L 80 57.735 L 60 46.188 L 80 34.641 Z " fill="white" stroke="none"/></mask><path d=" M 80 34.641 L 100 46.188 L 80 57.735 L 60 46.188 L 80 34.641 Z " fill="rgb(209,209,209)"/><path d=" M 80 34.641 L 100 46.188 L 80 57.735 L 60 46.188 L 80 34.641 Z " fill="rgb(209,209,209)" mask="url(#_mask_rv401Gzloo8Apj5v8aQFUqMFwZGQxGOh)" vector-effect="non-scaling-stroke" stroke-width="2" stroke="rgb(0,0,0)" stroke-linejoin="round" stroke-linecap="round" stroke-miterlimit="3"/><mask id="_mask_GhvZClCjFUiSxfwAkRbTmOWMXHpa9jwI"><path d=" M 100 23.094 L 120 34.641 L 100 46.188 L 80 34.641 L 100 23.094 Z " fill="white" stroke="none"/></mask><path d=" M 100 23.094 L 120 34.641 L 100 46.188 L 80 34.641 L 100 23.094 Z " fill="rgb(209,209,209)"/><path d=" M 100 23.094 L 120 34.641 L 100 46.188 L 80 34.641 L 100 23.094 Z " fill="rgb(209,209,209)" mask="url(#_mask_GhvZClCjFUiSxfwAkRbTmOWMXHpa9jwI)" vector-effect="non-scaling-stroke" stroke-width="2" stroke="rgb(0,0,0)" stroke-linejoin="round" stroke-linecap="round" stroke-miterlimit="3"/><mask id="_mask_Yf6pzW6TUzsrjBD4ZEuCcXQJ15c8EFHe"><path d=" M 40 34.641 L 60 46.188 L 40 57.735 L 20 46.188 L 40 34.641 Z " fill="white" stroke="none"/></mask><path d=" M 40 34.641 L 60 46.188 L 40 57.735 L 20 46.188 L 40 34.641 Z " fill="rgb(209,209,209)"/><path d=" M 40 34.641 L 60 46.188 L 40 57.735 L 20 46.188 L 40 34.641 Z " fill="rgb(209,209,209)" mask="url(#_mask_Yf6pzW6TUzsrjBD4ZEuCcXQJ15c8EFHe)" vector-effect="non-scaling-stroke" stroke-width="2" stroke="rgb(0,0,0)" stroke-linejoin="round" stroke-linecap="round" stroke-miterlimit="3"/><mask id="_mask_Sp7YXNFlnXYYXQBeq9uYhWhSvsl0o1u4"><path d=" M 60 23.094 L 80 34.641 L 60 46.188 L 40 34.641 L 60 23.094 Z " fill="white" stroke="none"/></mask><path d=" M 60 23.094 L 80 34.641 L 60 46.188 L 40 34.641 L 60 23.094 Z " fill="rgb(209,209,209)"/><path d=" M 60 23.094 L 80 34.641 L 60 46.188 L 40 34.641 L 60 23.094 Z " fill="rgb(209,209,209)" mask="url(#_mask_Sp7YXNFlnXYYXQBeq9uYhWhSvsl0o1u4)" vector-effect="non-scaling-stroke" stroke-width="2" stroke="rgb(0,0,0)" stroke-linejoin="round" stroke-linecap="round" stroke-miterlimit="3"/><mask id="_mask_ezYShw2v3ddkHtqc7VtTMxCXa1bNqL9z"><path d=" M 80 11.547 L 100 23.094 L 80 34.641 L 60 23.094 L 80 11.547 Z " fill="white" stroke="none"/></mask><path d=" M 80 11.547 L 100 23.094 L 80 34.641 L 60 23.094 L 80 11.547 Z " fill="rgb(209,209,209)"/><path d=" M 80 11.547 L 100 23.094 L 80 34.641 L 60 23.094 L 80 11.547 Z " fill="rgb(209,209,209)" mask="url(#_mask_ezYShw2v3ddkHtqc7VtTMxCXa1bNqL9z)" vector-effect="non-scaling-stroke" stroke-width="2" stroke="rgb(0,0,0)" stroke-linejoin="round" stroke-linecap="round" stroke-miterlimit="3"/><mask id="_mask_2taIluFeNUxIQ1eQ0BLLOPTZ8rbDrnF8"><path d=" M 20 23.094 L 40 34.641 L 20 46.188 L 0 34.641 L 20 23.094 Z " fill="white" stroke="none"/></mask><path d=" M 20 23.094 L 40 34.641 L 20 46.188 L 0 34.641 L 20 23.094 Z " fill="rgb(209,209,209)"/><path d=" M 20 23.094 L 40 34.641 L 20 46.188 L 0 34.641 L 20 23.094 Z " fill="rgb(209,209,209)" mask="url(#_mask_2taIluFeNUxIQ1eQ0BLLOPTZ8rbDrnF8)" vector-effect="non-scaling-stroke" stroke-width="2" stroke="rgb(0,0,0)" stroke-linejoin="round" stroke-linecap="round" stroke-miterlimit="3"/><mask id="_mask_u6GkO6DXhUi77fQ5OiggVDKSBqjGbkTi"><path d=" M 40 11.547 L 60 23.094 L 40 34.641 L 20 23.094 L 40 11.547 Z " fill="white" stroke="none"/></mask><path d=" M 40 11.547 L 60 23.094 L 40 34.641 L 20 23.094 L 40 11.547 Z " fill="rgb(209,209,209)"/><path d=" M 40 11.547 L 60 23.094 L 40 34.641 L 20 23.094 L 40 11.547 Z " fill="rgb(209,209,209)" mask="url(#_mask_u6GkO6DXhUi77fQ5OiggVDKSBqjGbkTi)" vector-effect="non-scaling-stroke" stroke-width="2" stroke="rgb(0,0,0)" stroke-linejoin="round" stroke-linecap="round" stroke-miterlimit="3"/><mask id="_mask_51MxftkUnAi1SIaVeWqJagrCJlzmufBA"><path d=" M 60 0 L 80 11.547 L 60 23.094 L 40 11.547 L 60 0 Z " fill="white" stroke="none"/></mask><path d=" M 60 0 L 80 11.547 L 60 23.094 L 40 11.547 L 60 0 Z " fill="rgb(209,209,209)"/><path d=" M 60 0 L 80 11.547 L 60 23.094 L 40 11.547 L 60 0 Z " fill="rgb(209,209,209)" mask="url(#_mask_51MxftkUnAi1SIaVeWqJagrCJlzmufBA)" vector-effect="non-scaling-stroke" stroke-width="2" stroke="rgb(0,0,0)" stroke-linejoin="round" stroke-linecap="round" stroke-miterlimit="3"/><mask id="_mask_chf64rMC7FXJupkDet33StUbKa7DMSxq"><path d=" M 100 69.282 L 100 46.188 L 80 57.735 L 80 80.829 L 100 69.282 Z " fill="white" stroke="none"/></mask><path d=" M 100 69.282 L 100 46.188 L 80 57.735 L 80 80.829 L 100 69.282 Z " fill="rgb(209,209,209)"/><path d=" M 100 69.282 L 100 46.188 L 80 57.735 L 80 80.829 L 100 69.282 Z " fill="rgb(209,209,209)" mask="url(#_mask_chf64rMC7FXJupkDet33StUbKa7DMSxq)" vector-effect="non-scaling-stroke" stroke-width="2" stroke="rgb(0,0,0)" stroke-linejoin="round" stroke-linecap="round" stroke-miterlimit="3"/><mask id="_mask_1kMznPcRjw0l23n0RBN3je33TJl6LX5B"><path d=" M 120 57.735 L 120 34.641 L 100 46.188 L 100 69.282 L 120 57.735 Z " fill="white" stroke="none"/></mask><path d=" M 120 57.735 L 120 34.641 L 100 46.188 L 100 69.282 L 120 57.735 Z " fill="rgb(209,209,209)"/><path d=" M 120 57.735 L 120 34.641 L 100 46.188 L 100 69.282 L 120 57.735 Z " fill="rgb(209,209,209)" mask="url(#_mask_1kMznPcRjw0l23n0RBN3je33TJl6LX5B)" vector-effect="non-scaling-stroke" stroke-width="2" stroke="rgb(0,0,0)" stroke-linejoin="round" stroke-linecap="round" stroke-miterlimit="3"/><mask id="_mask_4XtnvTG0IskUj69meqj2zIgQJLiEoi2R"><path d=" M 80 103.923 L 80 80.829 L 60 92.376 L 60 115.47 L 80 103.923 Z " fill="white" stroke="none"/></mask><path d=" M 80 103.923 L 80 80.829 L 60 92.376 L 60 115.47 L 80 103.923 Z " fill="rgb(209,209,209)"/><path d=" M 80 103.923 L 80 80.829 L 60 92.376 L 60 115.47 L 80 103.923 Z " fill="rgb(209,209,209)" mask="url(#_mask_4XtnvTG0IskUj69meqj2zIgQJLiEoi2R)" vector-effect="non-scaling-stroke" stroke-width="2" stroke="rgb(0,0,0)" stroke-linejoin="round" stroke-linecap="round" stroke-miterlimit="3"/><mask id="_mask_spiHh1SMfx56HNXbNdxCCVziGyN4vEVV"><path d=" M 100 92.376 L 100 69.282 L 80 80.829 L 80 103.923 L 100 92.376 Z " fill="white" stroke="none"/></mask><path d=" M 100 92.376 L 100 69.282 L 80 80.829 L 80 103.923 L 100 92.376 Z " fill="rgb(209,209,209)"/><path d=" M 100 92.376 L 100 69.282 L 80 80.829 L 80 103.923 L 100 92.376 Z " fill="rgb(209,209,209)" mask="url(#_mask_spiHh1SMfx56HNXbNdxCCVziGyN4vEVV)" vector-effect="non-scaling-stroke" stroke-width="2" stroke="rgb(0,0,0)" stroke-linejoin="round" stroke-linecap="round" stroke-miterlimit="3"/><mask id="_mask_s3plHflQafGGAZ5PrHcwwvQmqQSGfU0d"><path d=" M 120 80.829 L 120 57.735 L 100 69.282 L 100 92.376 L 120 80.829 Z " fill="white" stroke="none"/></mask><path d=" M 120 80.829 L 120 57.735 L 100 69.282 L 100 92.376 L 120 80.829 Z " fill="rgb(209,209,209)"/><path d=" M 120 80.829 L 120 57.735 L 100 69.282 L 100 92.376 L 120 80.829 Z " fill="rgb(209,209,209)" mask="url(#_mask_s3plHflQafGGAZ5PrHcwwvQmqQSGfU0d)" vector-effect="non-scaling-stroke" stroke-width="2" stroke="rgb(0,0,0)" stroke-linejoin="round" stroke-linecap="round" stroke-miterlimit="3"/><mask id="_mask_rUoKpJNvHixTA2YZJhcDg6jJvsaLgEgL"><path d=" M 80 127.017 L 80 103.923 L 60 115.47 L 60 138.564 L 80 127.017 Z " fill="white" stroke="none"/></mask><path d=" M 80 127.017 L 80 103.923 L 60 115.47 L 60 138.564 L 80 127.017 Z " fill="rgb(209,209,209)"/><path d=" M 80 127.017 L 80 103.923 L 60 115.47 L 60 138.564 L 80 127.017 Z " fill="rgb(209,209,209)" mask="url(#_mask_rUoKpJNvHixTA2YZJhcDg6jJvsaLgEgL)" vector-effect="non-scaling-stroke" stroke-width="2" stroke="rgb(0,0,0)" stroke-linejoin="round" stroke-linecap="round" stroke-miterlimit="3"/><mask id="_mask_LiJrqyVGdCEbajjNPiqe6qCz62TmV45V"><path d=" M 100 115.47 L 100 92.376 L 80 103.923 L 80 127.017 L 100 115.47 Z " fill="white" stroke="none"/></mask><path d=" M 100 115.47 L 100 92.376 L 80 103.923 L 80 127.017 L 100 115.47 Z " fill="rgb(209,209,209)"/><path d=" M 100 115.47 L 100 92.376 L 80 103.923 L 80 127.017 L 100 115.47 Z " fill="rgb(209,209,209)" mask="url(#_mask_LiJrqyVGdCEbajjNPiqe6qCz62TmV45V)" vector-effect="non-scaling-stroke" stroke-width="2" stroke="rgb(0,0,0)" stroke-linejoin="round" stroke-linecap="round" stroke-miterlimit="3"/><mask id="_mask_xaugXQWC8ccjfkFVzeb2zjFPaA7TDC7c"><path d=" M 120 103.923 L 120 80.829 L 100 92.376 L 100 115.47 L 120 103.923 Z " fill="white" stroke="none"/></mask><path d=" M 120 103.923 L 120 80.829 L 100 92.376 L 100 115.47 L 120 103.923 Z " fill="rgb(209,209,209)"/><path d=" M 120 103.923 L 120 80.829 L 100 92.376 L 100 115.47 L 120 103.923 Z " fill="rgb(209,209,209)" mask="url(#_mask_xaugXQWC8ccjfkFVzeb2zjFPaA7TDC7c)" vector-effect="non-scaling-stroke" stroke-width="2" stroke="rgb(0,0,0)" stroke-linejoin="round" stroke-linecap="round" stroke-miterlimit="3"/><mask id="_mask_X0wL1silH55jVscQRkbaPgeIXshYVKf3"><path d=" M 20 115.47 L 20 92.376 L 40 103.923 L 40 127.017 L 20 115.47 Z " fill="white" stroke="none"/></mask><path d=" M 20 115.47 L 20 92.376 L 40 103.923 L 40 127.017 L 20 115.47 Z " fill="rgb(209,209,209)"/><path d=" M 20 115.47 L 20 92.376 L 40 103.923 L 40 127.017 L 20 115.47 Z " fill="rgb(209,209,209)" mask="url(#_mask_X0wL1silH55jVscQRkbaPgeIXshYVKf3)" vector-effect="non-scaling-stroke" stroke-width="2" stroke="rgb(0,0,0)" stroke-linejoin="round" stroke-linecap="round" stroke-miterlimit="3"/><mask id="_mask_4xKrW980CLcxKsELTeAWH3TadrsWCa5K"><path d=" M 20 92.376 L 20 69.282 L 40 80.829 L 40 103.923 L 20 92.376 Z " fill="white" stroke="none"/></mask><path d=" M 20 92.376 L 20 69.282 L 40 80.829 L 40 103.923 L 20 92.376 Z " fill="rgb(209,209,209)"/><path d=" M 20 92.376 L 20 69.282 L 40 80.829 L 40 103.923 L 20 92.376 Z " fill="rgb(209,209,209)" mask="url(#_mask_4xKrW980CLcxKsELTeAWH3TadrsWCa5K)" vector-effect="non-scaling-stroke" stroke-width="2" stroke="rgb(0,0,0)" stroke-linejoin="round" stroke-linecap="round" stroke-miterlimit="3"/><mask id="_mask_jITL6jXJ1AQq3ha4JMpum75S1CrhsXpN"><path d=" M 20 69.282 L 20 46.188 L 40 57.735 L 40 80.829 L 20 69.282 Z " fill="white" stroke="none"/></mask><path d=" M 20 69.282 L 20 46.188 L 40 57.735 L 40 80.829 L 20 69.282 Z " fill="rgb(209,209,209)"/><path d=" M 20 69.282 L 20 46.188 L 40 57.735 L 40 80.829 L 20 69.282 Z " fill="rgb(209,209,209)" mask="url(#_mask_jITL6jXJ1AQq3ha4JMpum75S1CrhsXpN)" vector-effect="non-scaling-stroke" stroke-width="2" stroke="rgb(0,0,0)" stroke-linejoin="round" stroke-linecap="round" stroke-miterlimit="3"/><mask id="_mask_mmNkDd0RdpTKjSmvty25Q4F3RavGxR5W"><path d=" M 0 103.923 L 0 80.829 L 20 92.376 L 20 115.47 L 0 103.923 Z " fill="white" stroke="none"/></mask><path d=" M 0 103.923 L 0 80.829 L 20 92.376 L 20 115.47 L 0 103.923 Z " fill="rgb(209,209,209)"/><path d=" M 0 103.923 L 0 80.829 L 20 92.376 L 20 115.47 L 0 103.923 Z " fill="rgb(209,209,209)" mask="url(#_mask_mmNkDd0RdpTKjSmvty25Q4F3RavGxR5W)" vector-effect="non-scaling-stroke" stroke-width="2" stroke="rgb(0,0,0)" stroke-linejoin="round" stroke-linecap="round" stroke-miterlimit="3"/><mask id="_mask_aa5wiTEw3CYh9wE3zvY2k1g9iHL9Ln9b"><path d=" M 0 80.829 L 0 57.735 L 20 69.282 L 20 92.376 L 0 80.829 Z " fill="white" stroke="none"/></mask><path d=" M 0 80.829 L 0 57.735 L 20 69.282 L 20 92.376 L 0 80.829 Z " fill="rgb(209,209,209)"/><path d=" M 0 80.829 L 0 57.735 L 20 69.282 L 20 92.376 L 0 80.829 Z " fill="rgb(209,209,209)" mask="url(#_mask_aa5wiTEw3CYh9wE3zvY2k1g9iHL9Ln9b)" vector-effect="non-scaling-stroke" stroke-width="2" stroke="rgb(0,0,0)" stroke-linejoin="round" stroke-linecap="round" stroke-miterlimit="3"/><mask id="_mask_WpbqhSjltfWHIuLxhgKefSUI77jt5z6p"><path d=" M 0 57.735 L 0 34.641 L 20 46.188 L 20 69.282 L 0 57.735 Z " fill="white" stroke="none"/></mask><path d=" M 0 57.735 L 0 34.641 L 20 46.188 L 20 69.282 L 0 57.735 Z " fill="rgb(209,209,209)"/><path d=" M 0 57.735 L 0 34.641 L 20 46.188 L 20 69.282 L 0 57.735 Z " fill="rgb(209,209,209)" mask="url(#_mask_WpbqhSjltfWHIuLxhgKefSUI77jt5z6p)" vector-effect="non-scaling-stroke" stroke-width="2" stroke="rgb(0,0,0)" stroke-linejoin="round" stroke-linecap="round" stroke-miterlimit="3"/><path d=" M 0 103.923 L 0 34.641 L 60 0 L 120 34.641 L 120 103.923 L 60 138.564 L 0 103.923 Z " fill="none" vector-effect="non-scaling-stroke" stroke-width="2" stroke="rgb(0,0,0)" stroke-linejoin="round" stroke-linecap="round" stroke-miterlimit="3"/><line x1="110" y1="75.056" x2="70" y2="98.15" vector-effect="non-scaling-stroke" stroke-width="5" stroke="rgb(153,0,255)" stroke-linejoin="miter" stroke-linecap="square" stroke-miterlimit="3"/><path d=" M 70.371 91.48 L 63.484 101.912 L 75.961 101.163 Z " fill="rgb(153,0,255)" stroke="none"/></g></svg>