<?xml version="1.0" encoding="UTF-8" standalone="no"?><!-- Generator: Gravit.io --><svg xmlns="http://www.w3.org/2000/svg" xmlns:xlink="http://www.w3.org/1999/xlink" style="isolation:isolate" viewBox="-1 -1 122 140.564" width="122pt" height="140.564pt"><defs><clipPath id="_clipPath_VTp4i2eVkd3heZkgJAgu7L3tjxsWCKFW"><rect x="-1" y="-1" width="122" height="140.564"/></clipPath></defs><g clip-path="url(#_clipPath_VTp4i2eVkd3heZkgJAgu7L3tjxsWCKFW)"><mask id="_mask_wlgn3R19P7jwEvZhp6wq62o8iQsETalr"><path d=" M 120 57.735 L 100 69.282 L 100 46.188 L 120 34.641 L 120 57.735 Z " fill="white" stroke="none"/></mask><path d=" M 120 57.735 L 100 69.282 L 100 46.188 L 120 34.641 L 120 57.735 Z " fill="rgb(209,209,209)"/><path d=" M 120 57.735 L 100 69.282 L 100 46.188 L 120 34.641 L 120 57.735 Z " fill="rgb(209,209,209)" mask="url(#_mask_wlgn3R19P7jwEvZhp6wq62o8iQsETalr)" vector-effect="non-scaling-stroke" stroke-width="2" stroke="rgb(0,0,0)" stroke-linejoin="round" stroke-linecap="round" stroke-miterlimit="3"/><mask id="_mask_uWFSlVbjXApVL2MnAqKcVIm302XWjI5F"><path d=" M 100 69.282 L 80 80.829 L 80 57.735 L 100 46.188 L 100 69.282 Z " fill="white" stroke="none"/></mask><path d=" M 100 69.282 L 80 80.829 L 80 57.735 L 100 46.188 L 100 69.282 Z " fill="rgb(209,209,209)"/><path d=" M 100 69.282 L 80 80.829 L 80 57.735 L 100 46.188 L 100 69.282 Z " fill="rgb(209,209,209)" mask="url(#_mask_uWFSlVbjXApVL2MnAqKcVIm302XWjI5F)" vector-effect="non-scaling-stroke" stroke-width="2" stroke="rgb(0,0,0)" stroke-linejoin="round" stroke-linecap="round" stroke-miterlimit="3"/><mask id="_mask_wExuebHOlCr3Jp0WVncyASDDcYqigwUl"><path d=" M 80 80.829 L 60 92.376 L 60 69.282 L 80 57.735 L 80 80.829 Z " fill="white" stroke="none"/></mask><path d=" M 80 80.829 L 60 92.376 L 60 69.282 L 80 57.735 L 80 80.829 Z " fill="rgb(209,209,209)"/><path d=" M 80 80.829 L 60 92.376 L 60 69.282 L 80 57.735 L 80 80.829 Z " fill="rgb(209,209,209)" mask="url(#_mask_wExuebHOlCr3Jp0WVncyASDDcYqigwUl)" vector-effect="non-scaling-stroke" stroke-width="2" stroke="rgb(0,0,0)" stroke-linejoin="round" stroke-linecap="round" stroke-miterlimit="3"/><mask id="_mask_yR6hYgB2kwJ4bkOOFAPUXqmFgovMpKRg"><path d=" M 60 46.188 L 40 57.735 L 60 69.282 L 80 57.735 L 60 46.188 Z " fill="white" stroke="none"/></mask><path d=" M 60 46.188 L 40 57.735 L 60 69.282 L 80 57.735 L 60 46.188 Z " fill="rgb(209,209,209)"/><path d=" M 60 46.188 L 40 57.735 L 60 69.282 L 80 57.735 L 60 46.188 Z " fill="rgb(209,209,209)" mask="url(#_mask_yR6hYgB2kwJ4bkOOFAPUXqmFgovMpKRg)" vector-effect="non-scaling-stroke" stroke-width="2" stroke="rgb(0,0,0)" stroke-linejoin="round" stroke-linecap="round" stroke-miterlimit="3"/><mask id="_mask_cZ5vufD4BhNYI9UAr63s8rDW4qllYfwz"><path d=" M 40 80.829 L 40 57.735 L 60 69.282 L 60 92.376 L 40 80.829 Z " fill="white" stroke="none"/></mask><path d=" M 40 80.829 L 40 57.735 L 60 69.282 L 60 92.376 L 40 80.829 Z " fill="rgb(209,209,209)"/><path d=" M 40 80.829 L 40 57.735 L 60 69.282 L 60 92.376 L 40 80.829 Z " fill="rgb(209,209,209)" mask="url(#_mask_cZ5vufD4BhNYI9UAr63s8rDW4qllYfwz)" vector-effect="non-scaling-stroke" stroke-width="2" stroke="rgb(0,0,0)" stroke-linejoin="round" stroke-linecap="round" stroke-miterlimit="3"/><mask id="_mask_sADU45kqyfrObnSNlZXKFGOJDiaOk9Tx"><path d=" M 20 69.282 L 20 46.188 L 40 57.735 L 40 80.829 L 20 69.282 Z " fill="white" stroke="none"/></mask><path d=" M 20 69.282 L 20 46.188 L 40 57.735 L 40 80.829 L 20 69.282 Z " fill="rgb(209,209,209)"/><path d=" M 20 69.282 L 20 46.188 L 40 57.735 L 40 80.829 L 20 69.282 Z " fill="rgb(209,209,209)" mask="url(#_mask_sADU45kqyfrObnSNlZXKFGOJDiaOk9Tx)" vector-effect="non-scaling-stroke" stroke-width="2" stroke="rgb(0,0,0)" stroke-linejoin="round" stroke-linecap="round" stroke-miterlimit="3"/><mask id="_mask_AtKoFhhDCaymUuHaQGRB3FWuP36rHpR0"><path d=" M 0 57.735 L 0 34.641 L 20 46.188 L 20 69.282 L 0 57.735 Z " fill="white" stroke="none"/></mask><path d=" M 0 57.735 L 0 34.641 L 20 46.188 L 20 69.282 L 0 57.735 Z " fill="rgb(209,209,209)"/><path d=" M 0 57.735 L 0 34.641 L 20 46.188 L 20 69.282 L 0 57.735 Z " fill="rgb(209,209,209)" mask="url(#_mask_AtKoFhhDCaymUuHaQGRB3FWuP36rHpR0)" vector-effect="non-scaling-stroke" stroke-width="2" stroke="rgb(0,0,0)" stroke-linejoin="round" stroke-linecap="round" stroke-miterlimit="3"/><mask id="_mask_TBWwl1AhSvYRKqCAErGEwIC30gfUfaQa"><path d=" M 40 103.923 L 40 80.829 L 60 92.376 L 60 115.47 L 40 103.923 Z " fill="white" stroke="none"/></mask><path d=" M 40 103.923 L 40 80.829 L 60 92.376 L 60 115.47 L 40 103.923 Z " fill="rgb(209,209,209)"/><path d=" M 40 103.923 L 40 80.829 L 60 92.376 L 60 115.47 L 40 103.923 Z " fill="rgb(209,209,209)" mask="url(#_mask_TBWwl1AhSvYRKqCAErGEwIC30gfUfaQa)" vector-effect="non-scaling-stroke" stroke-width="2" stroke="rgb(0,0,0)" stroke-linejoin="round" stroke-linecap="round" stroke-miterlimit="3"/><mask id="_mask_bya8S4gsGgf1WJndAVjcQ1Icr9cmXAq8"><path d=" M 20 92.376 L 20 69.282 L 40 80.829 L 40 103.923 L 20 92.376 Z " fill="white" stroke="none"/></mask><path d=" M 20 92.376 L 20 69.282 L 40 80.829 L 40 103.923 L 20 92.376 Z " fill="rgb(209,209,209)"/><path d=" M 20 92.376 L 20 69.282 L 40 80.829 L 40 103.923 L 20 92.376 Z " fill="rgb(209,209,209)" mask="url(#_mask_bya8S4gsGgf1WJndAVjcQ1Icr9cmXAq8)" vector-effect="non-scaling-stroke" stroke-width="2" stroke="rgb(0,0,0)" stroke-linejoin="round" stroke-linecap="round" stroke-miterlimit="3"/><mask id="_mask_wZ6CVrVLEMtcomu30Ncjym1eKfeAImnc"><path d=" M 0 80.829 L 0 57.735 L 20 69.282 L 20 92.376 L 0 80.829 Z " fill="white" stroke="none"/></mask><path d=" M 0 80.829 L 0 57.735 L 20 69.282 L 20 92.376 L 0 80.829 Z " fill="rgb(209,209,209)"/><path d=" M 0 80.829 L 0 57.735 L 20 69.282 L 20 92.376 L 0 80.829 Z " fill="rgb(209,209,209)" mask="url(#_mask_wZ6CVrVLEMtcomu30Ncjym1eKfeAImnc)" vector-effect="non-scaling-stroke" stroke-width="2" stroke="rgb(0,0,0)" stroke-linejoin="round" stroke-linecap="round" stroke-miterlimit="3"/><mask id="_mask_NMWOPJ0QCtJEYadnwwg0ABE1BiwEWbuD"><path d=" M 40 127.017 L 40 103.923 L 60 115.47 L 60 138.564 L 40 127.017 Z " fill="white" stroke="none"/></mask><path d=" M 40 127.017 L 40 103.923 L 60 115.47 L 60 138.564 L 40 127.017 Z " fill="rgb(209,209,209)"/><path d=" M 40 127.017 L 40 103.923 L 60 115.47 L 60 138.564 L 40 127.017 Z " fill="rgb(209,209,209)" mask="url(#_mask_NMWOPJ0QCtJEYadnwwg0ABE1BiwEWbuD)" vector-effect="non-scaling-stroke" stroke-width="2" stroke="rgb(0,0,0)" stroke-linejoin="round" stroke-linecap="round" stroke-miterlimit="3"/><mask id="_mask_OTxXkLoF9t6CKlSAKeXnLAcOo3LERAzq"><path d=" M 20 115.47 L 20 92.376 L 40 103.923 L 40 127.017 L 20 115.47 Z " fill="white" stroke="none"/></mask><path d=" M 20 115.47 L 20 92.376 L 40 103.923 L 40 127.017 L 20 115.47 Z " fill="rgb(209,209,209)"/><path d=" M 20 115.47 L 20 92.376 L 40 103.923 L 40 127.017 L 20 115.47 Z " fill="rgb(209,209,209)" mask="url(#_mask_OTxXkLoF9t6CKlSAKeXnLAcOo3LERAzq)" vector-effect="non-scaling-stroke" stroke-width="2" stroke="rgb(0,0,0)" stroke-linejoin="round" stroke-linecap="round" stroke-miterlimit="3"/><mask id="_mask_gNBHuZEiPkRnWT3rsmO64z6S5Bc2lXGY"><path d=" M 0 103.923 L 0 80.829 L 20 92.376 L 20 115.47 L 0 103.923 Z " fill="white" stroke="none"/></mask><path d=" M 0 103.923 L 0 80.829 L 20 92.376 L 20 115.47 L 0 103.923 Z " fill="rgb(209,209,209)"/><path d=" M 0 103.923 L 0 80.829 L 20 92.376 L 20 115.47 L 0 103.923 Z " fill="rgb(209,209,209)" mask="url(#_mask_gNBHuZEiPkRnWT3rsmO64z6S5Bc2lXGY)" vector-effect="non-scaling-stroke" stroke-width="2" stroke="rgb(0,0,0)" stroke-linejoin="round" stroke-linecap="round" stroke-miterlimit="3"/><mask id="_mask_QBPqDPmLHHSbL2VfGehtmveryJKFfw3z"><path d=" M 40 34.641 L 20 46.188 L 40 57.735 L 60 46.188 L 40 34.641 Z " fill="white" stroke="none"/></mask><path d=" M 40 34.641 L 20 46.188 L 40 57.735 L 60 46.188 L 40 34.641 Z " fill="rgb(209,209,209)"/><path d=" M 40 34.641 L 20 46.188 L 40 57.735 L 60 46.188 L 40 34.641 Z " fill="rgb(209,209,209)" mask="url(#_mask_QBPqDPmLHHSbL2VfGehtmveryJKFfw3z)" vector-effect="non-scaling-stroke" stroke-width="2" stroke="rgb(0,0,0)" stroke-linejoin="round" stroke-linecap="round" stroke-miterlimit="3"/><mask id="_mask_D0v3Fn0QdEuKl6G9GuODPxGpEodUPU2T"><path d=" M 20 23.094 L 0 34.641 L 20 46.188 L 40 34.641 L 20 23.094 Z " fill="white" stroke="none"/></mask><path d=" M 20 23.094 L 0 34.641 L 20 46.188 L 40 34.641 L 20 23.094 Z " fill="rgb(209,209,209)"/><path d=" M 20 23.094 L 0 34.641 L 20 46.188 L 40 34.641 L 20 23.094 Z " fill="rgb(209,209,209)" mask="url(#_mask_D0v3Fn0QdEuKl6G9GuODPxGpEodUPU2T)" vector-effect="non-scaling-stroke" stroke-width="2" stroke="rgb(0,0,0)" stroke-linejoin="round" stroke-linecap="round" stroke-miterlimit="3"/><mask id="_mask_ztQuy229SIOGBAM0hr6RWVRtBS6b31dh"><path d=" M 80 34.641 L 60 46.188 L 80 57.735 L 100 46.188 L 80 34.641 Z " fill="white" stroke="none"/></mask><path d=" M 80 34.641 L 60 46.188 L 80 57.735 L 100 46.188 L 80 34.641 Z " fill="rgb(209,209,209)"/><path d=" M 80 34.641 L 60 46.188 L 80 57.735 L 100 46.188 L 80 34.641 Z " fill="rgb(209,209,209)" mask="url(#_mask_ztQuy229SIOGBAM0hr6RWVRtBS6b31dh)" vector-effect="non-scaling-stroke" stroke-width="2" stroke="rgb(0,0,0)" stroke-linejoin="round" stroke-linecap="round" stroke-miterlimit="3"/><mask id="_mask_wUEHZZiQXMGMN00QerqBesQfWZMw9BLh"><path d=" M 60 23.094 L 40 34.641 L 60 46.188 L 80 34.641 L 60 23.094 Z " fill="white" stroke="none"/></mask><path d=" M 60 23.094 L 40 34.641 L 60 46.188 L 80 34.641 L 60 23.094 Z " fill="rgb(209,209,209)"/><path d=" M 60 23.094 L 40 34.641 L 60 46.188 L 80 34.641 L 60 23.094 Z " fill="rgb(209,209,209)" mask="url(#_mask_wUEHZZiQXMGMN00QerqBesQfWZMw9BLh)" vector-effect="non-scaling-stroke" stroke-width="2" stroke="rgb(0,0,0)" stroke-linejoin="round" stroke-linecap="round" stroke-miterlimit="3"/><mask id="_mask_svKYDdaRVptJpXBHlwebePf8xqIE46k0"><path d=" M 40 11.547 L 20 23.094 L 40 34.641 L 60 23.094 L 40 11.547 Z " fill="white" stroke="none"/></mask><path d=" M 40 11.547 L 20 23.094 L 40 34.641 L 60 23.094 L 40 11.547 Z " fill="rgb(209,209,209)"/><path d=" M 40 11.547 L 20 23.094 L 40 34.641 L 60 23.094 L 40 11.547 Z " fill="rgb(209,209,209)" mask="url(#_mask_svKYDdaRVptJpXBHlwebePf8xqIE46k0)" vector-effect="non-scaling-stroke" stroke-width="2" stroke="rgb(0,0,0)" stroke-linejoin="round" stroke-linecap="round" stroke-miterlimit="3"/><mask id="_mask_dwiSl6wUSFwDou5KbwrqViGH85jwM0p4"><path d=" M 100 23.094 L 80 34.641 L 100 46.188 L 120 34.641 L 100 23.094 Z " fill="white" stroke="none"/></mask><path d=" M 100 23.094 L 80 34.641 L 100 46.188 L 120 34.641 L 100 23.094 Z " fill="rgb(209,209,209)"/><path d=" M 100 23.094 L 80 34.641 L 100 46.188 L 120 34.641 L 100 23.094 Z " fill="rgb(209,209,209)" mask="url(#_mask_dwiSl6wUSFwDou5KbwrqViGH85jwM0p4)" vector-effect="non-scaling-stroke" stroke-width="2" stroke="rgb(0,0,0)" stroke-linejoin="round" stroke-linecap="round" stroke-miterlimit="3"/><mask id="_mask_5uoWEnzg6psT8jbzjWM04CCNdxhOjBe1"><path d=" M 80 11.547 L 60 23.094 L 80 34.641 L 100 23.094 L 80 11.547 Z " fill="white" stroke="none"/></mask><path d=" M 80 11.547 L 60 23.094 L 80 34.641 L 100 23.094 L 80 11.547 Z " fill="rgb(209,209,209)"/><path d=" M 80 11.547 L 60 23.094 L 80 34.641 L 100 23.094 L 80 11.547 Z " fill="rgb(209,209,209)" mask="url(#_mask_5uoWEnzg6psT8jbzjWM04CCNdxhOjBe1)" vector-effect="non-scaling-stroke" stroke-width="2" stroke="rgb(0,0,0)" stroke-linejoin="round" stroke-linecap="round" stroke-miterlimit="3"/><mask id="_mask_LmC8zQ4nPRrMWPIDX0XnjdtFltwen92d"><path d=" M 60 0 L 40 11.547 L 60 23.094 L 80 11.547 L 60 0 Z " fill="white" stroke="none"/></mask><path d=" M 60 0 L 40 11.547 L 60 23.094 L 80 11.547 L 60 0 Z " fill="rgb(209,209,209)"/><path d=" M 60 0 L 40 11.547 L 60 23.094 L 80 11.547 L 60 0 Z " fill="rgb(209,209,209)" mask="url(#_mask_LmC8zQ4nPRrMWPIDX0XnjdtFltwen92d)" vector-effect="non-scaling-stroke" stroke-width="2" stroke="rgb(0,0,0)" stroke-linejoin="round" stroke-linecap="round" stroke-miterlimit="3"/><mask id="_mask_5jnOumXLQB3hcpwYWJbbn0E3NLXXdsw7"><path d=" M 120 80.829 L 100 92.376 L 100 69.282 L 120 57.735 L 120 80.829 Z " fill="white" stroke="none"/></mask><path d=" M 120 80.829 L 100 92.376 L 100 69.282 L 120 57.735 L 120 80.829 Z " fill="rgb(209,209,209)"/><path d=" M 120 80.829 L 100 92.376 L 100 69.282 L 120 57.735 L 120 80.829 Z " fill="rgb(209,209,209)" mask="url(#_mask_5jnOumXLQB3hcpwYWJbbn0E3NLXXdsw7)" vector-effect="non-scaling-stroke" stroke-width="2" stroke="rgb(0,0,0)" stroke-linejoin="round" stroke-linecap="round" stroke-miterlimit="3"/><mask id="_mask_zRXMFEHhJbdN33SVS6I6KrtUskTRKmtf"><path d=" M 100 92.376 L 80 103.923 L 80 80.829 L 100 69.282 L 100 92.376 Z " fill="white" stroke="none"/></mask><path d=" M 100 92.376 L 80 103.923 L 80 80.829 L 100 69.282 L 100 92.376 Z " fill="rgb(209,209,209)"/><path d=" M 100 92.376 L 80 103.923 L 80 80.829 L 100 69.282 L 100 92.376 Z " fill="rgb(209,209,209)" mask="url(#_mask_zRXMFEHhJbdN33SVS6I6KrtUskTRKmtf)" vector-effect="non-scaling-stroke" stroke-width="2" stroke="rgb(0,0,0)" stroke-linejoin="round" stroke-linecap="round" stroke-miterlimit="3"/><mask id="_mask_PWN3fvzRxOFZ1nyKfLLyJXL9tzF9XK1g"><path d=" M 80 103.923 L 60 115.47 L 60 92.376 L 80 80.829 L 80 103.923 Z " fill="white" stroke="none"/></mask><path d=" M 80 103.923 L 60 115.47 L 60 92.376 L 80 80.829 L 80 103.923 Z " fill="rgb(209,209,209)"/><path d=" M 80 103.923 L 60 115.47 L 60 92.376 L 80 80.829 L 80 103.923 Z " fill="rgb(209,209,209)" mask="url(#_mask_PWN3fvzRxOFZ1nyKfLLyJXL9tzF9XK1g)" vector-effect="non-scaling-stroke" stroke-width="2" stroke="rgb(0,0,0)" stroke-linejoin="round" stroke-linecap="round" stroke-miterlimit="3"/><mask id="_mask_TheXgEkxIlQbqG7YQxhe63skaNr1T2Id"><path d=" M 120 103.923 L 100 115.47 L 100 92.376 L 120 80.829 L 120 103.923 Z " fill="white" stroke="none"/></mask><path d=" M 120 103.923 L 100 115.47 L 100 92.376 L 120 80.829 L 120 103.923 Z " fill="rgb(209,209,209)"/><path d=" M 120 103.923 L 100 115.47 L 100 92.376 L 120 80.829 L 120 103.923 Z " fill="rgb(209,209,209)" mask="url(#_mask_TheXgEkxIlQbqG7YQxhe63skaNr1T2Id)" vector-effect="non-scaling-stroke" stroke-width="2" stroke="rgb(0,0,0)" stroke-linejoin="round" stroke-linecap="round" stroke-miterlimit="3"/><mask id="_mask_pcAU3i4naSD4Hvy2SEF6Jf5HMuGMyY60"><path d=" M 100 115.47 L 80 127.017 L 80 103.923 L 100 92.376 L 100 115.47 Z " fill="white" stroke="none"/></mask><path d=" M 100 115.47 L 80 127.017 L 80 103.923 L 100 92.376 L 100 115.47 Z " fill="rgb(209,209,209)"/><path d=" M 100 115.47 L 80 127.017 L 80 103.923 L 100 92.376 L 100 115.47 Z " fill="rgb(209,209,209)" mask="url(#_mask_pcAU3i4naSD4Hvy2SEF6Jf5HMuGMyY60)" vector-effect="non-scaling-stroke" stroke-width="2" stroke="rgb(0,0,0)" stroke-linejoin="round" stroke-linecap="round" stroke-miterlimit="3"/><mask id="_mask_mrRKTFG4bgPbmT0UCRHcVXq97VyCCcwe"><path d=" M 80 127.017 L 60 138.564 L 60 115.47 L 80 103.923 L 80 127.017 Z " fill="white" stroke="none"/></mask><path d=" M 80 127.017 L 60 138.564 L 60 115.47 L 80 103.923 L 80 127.017 Z " fill="rgb(209,209,209)"/><path d=" M 80 127.017 L 60 138.564 L 60 115.47 L 80 103.923 L 80 127.017 Z " fill="rgb(209,209,209)" mask="url(#_mask_mrRKTFG4bgPbmT0UCRHcVXq97VyCCcwe)" vector-effect="non-scaling-stroke" stroke-width="2" stroke="rgb(0,0,0)" stroke-linejoin="round" stroke-linecap="round" stroke-miterlimit="3"/><path d=" M 120 103.923 L 60 138.564 L 0 103.923 L 0 34.641 L 60 0 L 120 34.641 L 120 103.923 Z " fill="none" vector-effect="non-scaling-stroke" stroke-width="2" stroke="rgb(0,0,0)" stroke-linejoin="round" stroke-linecap="round" stroke-miterlimit="3"/><path d=" M 90 109.697 L 90 51.962 L 40 23.094" fill="none" vector-effect="non-scaling-stroke" stroke-width="5" stroke="rgb(153,0,255)" stroke-linejoin="miter" stroke-linecap="square" stroke-miterlimit="3"/><path d=" M 45.961 20.081 L 33.484 19.332 L 40.371 29.763 Z " fill="rgb(153,0,255)" stroke="none"/></g></svg>